<?xml version="1.0" encoding="utf-8"?>
<!-- Generator: Adobe Illustrator 24.1.2, SVG Export Plug-In . SVG Version: 6.00 Build 0)  -->
<svg version="1.1"
	 id="svg47" inkscape:version="1.3 (0e150ed6c4, 2023-07-21)" sodipodi:docname="markers.svg" xmlns:inkscape="http://www.inkscape.org/namespaces/inkscape" xmlns:sodipodi="http://sodipodi.sourceforge.net/DTD/sodipodi-0.dtd" xmlns:svg="http://www.w3.org/2000/svg"
	 xmlns="http://www.w3.org/2000/svg" xmlns:xlink="http://www.w3.org/1999/xlink" x="0px" y="0px" viewBox="0 0 1200 1200"
	 style="enable-background:new 0 0 1200 1200;" xml:space="preserve">
<style type="text/css">
	.st0{fill:#FF0000;}
	.st1{font-family:'ArialMT';}
	.st2{font-size:26.6667px;}
</style>
<path id="tempestine" inkscape:label="tempestine" d="M594.8,1084.3c0-2.2-0.6-3.3-2.6-4.8c-3.3-2.5-3.7-2.6-7.3-0.9
	c-5.8,2.6-4.3,10.5,2.2,11.7c5.1,0.9,7.2-0.5,7.6-4.9C594.8,1085,594.8,1084.6,594.8,1084.3z M592.3,1084.9c0,2-1.3,2.8-4.1,2.5
	c-2.4-0.2-3.4-0.9-3.6-2.5c-0.6-4.4,6.5-6,7.5-1.6C592.2,1083.9,592.3,1084.4,592.3,1084.9L592.3,1084.9z M608.8,1051.7
	c0-0.7-1-2.6-2.2-4.1c-2.4-3-5.7-3.4-9.2-1c-4.6,3.1-1.4,10.7,4.6,10.7C604.7,1057.3,608.8,1054.1,608.8,1051.7z M593.4,1046.9
	c0-1.8-0.6-3.6-1.9-4.7c-4.4-3.9-11.7-0.4-10.4,4.8c0.8,3.3,8,5.9,10.7,3.7C592.9,1049.9,593.4,1048.4,593.4,1046.9L593.4,1046.9z
	 M605.5,1051.2c0,1.1-0.6,2.1-1.9,2.8c-1.4,0.7-2.4,0.6-3.8-0.3c-2.5-1.7-1.6-5.1,1.5-5.6C603.8,1047.8,605.5,1049.5,605.5,1051.2
	L605.5,1051.2z M590.3,1046.5c0,1.2-1,2.2-2.7,2.2c-3.3,0-4.6-2.7-2.3-4.8c1.4-1.3,2-1.4,3.3-0.3
	C589.7,1044.4,590.3,1045.5,590.3,1046.5L590.3,1046.5z M568.7,1054c0-1.4-0.6-2.9-1.8-4.2c-3-3.4-8-3.9-10.8-1
	c-2.5,2.7-3,7.3-0.8,9.1c2.8,2.2,7.9,2.5,10.8,0.7C567.8,1057.4,568.7,1055.8,568.7,1054L568.7,1054z M565.3,1053.7
	c0,1.5-1.1,2.7-3.1,3c-3.3,0.4-5.6-2.1-4.7-4.8c0.8-2.8,3.1-3.3,5.7-1.4C564.7,1051.3,565.3,1052.6,565.3,1053.7z M584.7,1057.4
	c0-1.4-0.6-2.9-1.8-4.2c-3-3.4-8-3.9-10.8-1c-2.5,2.7-3,7.3-0.8,9.1c2.8,2.2,7.9,2.5,10.8,0.7
	C583.8,1060.8,584.7,1059.2,584.7,1057.4L584.7,1057.4z M581.3,1057.1c0,1.5-1.1,2.7-3.1,3c-3.3,0.4-5.6-2.1-4.7-4.8
	c0.8-2.8,3.1-3.3,5.7-1.4C580.7,1054.7,581.3,1056,581.3,1057.1z M574.8,1068.2c0-1.4-0.6-2.9-1.8-4.2c-3-3.4-8-3.9-10.8-1
	c-2.5,2.7-3,7.3-0.8,9.1c2.8,2.2,7.9,2.5,10.8,0.7C573.9,1071.6,574.8,1070,574.8,1068.2L574.8,1068.2z M571.4,1067.9
	c0,1.5-1.1,2.7-3.1,3c-3.3,0.4-5.6-2.1-4.7-4.8c0.8-2.8,3.1-3.3,5.7-1.4C570.8,1065.5,571.4,1066.8,571.4,1067.9z M590.6,1071.6
	c0-1.4-0.6-2.9-1.8-4.2c-3-3.4-8-3.9-10.8-1c-2.5,2.7-3,7.3-0.8,9.1c2.8,2.2,7.9,2.5,10.8,0.7C589.7,1075,590.6,1073.4,590.6,1071.6
	L590.6,1071.6z M587.2,1071.3c0,1.5-1.1,2.7-3.1,3c-3.3,0.4-5.6-2.1-4.7-4.8c0.8-2.8,3.1-3.3,5.7-1.4
	C586.6,1068.9,587.2,1070.2,587.2,1071.3z M580.7,1082.2c0-1.4-0.6-2.9-1.8-4.2c-3-3.4-8-3.9-10.8-1c-2.5,2.7-3,7.3-0.8,9.1
	c2.8,2.2,7.9,2.5,10.8,0.7C579.8,1085.6,580.7,1084,580.7,1082.2L580.7,1082.2z M577.3,1081.9c0,1.5-1.1,2.7-3.1,3
	c-3.3,0.4-5.6-2.1-4.7-4.8c0.8-2.8,3.1-3.3,5.7-1.4C576.7,1079.5,577.3,1080.8,577.3,1081.9z M616.2,1063.8c0-1.4-0.6-2.9-1.8-4.2
	c-3-3.4-8-3.9-10.8-1c-2.5,2.7-3,7.3-0.8,9.1c2.8,2.2,7.9,2.5,10.8,0.7C615.3,1067.2,616.2,1065.6,616.2,1063.8L616.2,1063.8z
	 M612.8,1063.5c0,1.5-1.1,2.7-3.1,3c-3.3,0.4-5.6-2.1-4.7-4.8c0.8-2.8,3.1-3.3,5.7-1.4C612.2,1061.1,612.8,1062.4,612.8,1063.5z
	 M600.1,1061.9c0-2.2-0.6-3.3-2.6-4.8c-3.3-2.5-3.7-2.6-7.3-0.9c-5.8,2.6-4.3,10.5,2.2,11.7c5.1,0.9,7.2-0.5,7.6-4.9
	C600.1,1062.6,600.1,1062.2,600.1,1061.9z M597.6,1062.5c0,2-1.3,2.8-4.1,2.5c-2.4-0.2-3.4-0.9-3.6-2.5c-0.6-4.4,6.5-6,7.5-1.6
	C597.5,1061.5,597.6,1062,597.6,1062.5L597.6,1062.5z M605,1075.4c0-2.2-0.6-3.3-2.6-4.8c-3.3-2.5-3.7-2.6-7.3-0.9
	c-5.8,2.6-4.3,10.5,2.2,11.7c5.1,0.9,7.2-0.5,7.6-4.9C605,1076.1,605,1075.7,605,1075.4z M602.5,1076c0,2-1.3,2.8-4.1,2.5
	c-2.4-0.2-3.4-0.9-3.6-2.5c-0.6-4.4,6.5-6,7.5-1.6C602.4,1075,602.5,1075.5,602.5,1076L602.5,1076z M565.3,1078.4
	c0-0.7-1-2.6-2.2-4.1c-2.4-3-5.7-3.4-9.2-1c-4.6,3.1-1.4,10.7,4.6,10.7C561.2,1084,565.3,1080.8,565.3,1078.4z M562,1077.9
	c0,1.1-0.6,2.1-1.9,2.8c-1.4,0.7-2.4,0.6-3.8-0.3c-2.5-1.7-1.6-5.1,1.5-5.6C560.3,1074.5,562,1076.2,562,1077.9L562,1077.9z
	 M558.5,1066.4c0-0.7-1-2.6-2.2-4.1c-2.4-3-5.7-3.4-9.2-1c-4.6,3.1-1.4,10.7,4.6,10.7C554.4,1072,558.5,1068.8,558.5,1066.4z
	 M555.2,1065.9c0,1.1-0.6,2.1-1.9,2.8c-1.4,0.7-2.4,0.6-3.8-0.3c-2.5-1.7-1.6-5.1,1.5-5.6C553.5,1062.5,555.2,1064.2,555.2,1065.9
	L555.2,1065.9z M577.7,1044.7c0-1.8-0.6-3.6-1.9-4.7c-4.4-3.9-11.7-0.4-10.4,4.8c0.8,3.3,8,5.9,10.7,3.7
	C577.2,1047.7,577.7,1046.2,577.7,1044.7L577.7,1044.7z M574.6,1044.3c0,1.2-1,2.2-2.7,2.2c-3.3,0-4.6-2.7-2.3-4.8
	c1.4-1.3,2-1.4,3.3-0.3C574,1042.2,574.6,1043.3,574.6,1044.3L574.6,1044.3z"/>
<path id="puntine" inkscape:label="puntine" d="M399,1051.5c-1.1,0-2.2,1.5-3.3,4.7c-2.4,7.1-2.1,11,1.3,14.4c3.1,3,5.6,3.7,6.7,1.8
	c1.3-2,3.3-12.2,2.8-13.8C405.5,1055.9,400.9,1051.5,399,1051.5L399,1051.5z M445,1052.5c-4,0-9,0.6-11,1.8
	c-1.6,1.1-3.7,2.7-4.5,3.7c-1.3,1.5-1.2,1.9,1,3.7c2,1.6,3.3,1.8,7.1,1.3c9.3-1.3,17.1-7,12.9-9.6
	C449.5,1052.8,447.4,1052.5,445,1052.5L445,1052.5z M400,1054.6c0.8,0,1.7,0.8,2.8,2.4c2.6,4,0.3,13.5-3,12.2
	c-3.4-1.3-4.1-7.7-1.4-13C398.9,1055.1,399.4,1054.6,400,1054.6L400,1054.6z M442.3,1055.5c2.9,0,5.4,0.4,5.4,0.9
	c0,1.9-13.5,4.9-14.6,3.3C431.9,1057.7,436.8,1055.5,442.3,1055.5z M452.1,1063.4c-2.6,0-4.7,0.6-5.1,1.7
	c-1.6,4.2,8.8,11.4,16.5,11.4c8.5,0,8.1-6.1-0.7-10.8C459.8,1064.2,455.5,1063.4,452.1,1063.4z M453.9,1065.8c0.5,0,0.9,0,1.4,0.1
	c1.1,0.2,2.5,0.5,3.2,0.5c1.5,0,7.4,4.9,7.4,6.1c0,2.6-11.2-0.2-14-3.5c-1.3-1.5-1.3-1.9,0-2.7
	C452.3,1066.1,453.1,1065.9,453.9,1065.8z M439.7,1065c-0.5,0-1.7,1.8-2.7,4c-2.8,6.1-1.6,11.6,3.5,16.3c5.1,4.7,6.6,4,7.5-3.9
	C448.9,1073.2,444.8,1065,439.7,1065L439.7,1065z M440.9,1069.3c0.3,0,0.7,0.3,1.4,1c0.8,0.9,1.7,4,2,7c0.5,6.4-0.8,7.8-3.7,4.1
	c-2.3-2.9-2.7-7.4-1-10.6C440.2,1069.7,440.5,1069.3,440.9,1069.3z M411.5,1042c-0.5,0-1.7,1.8-2.7,4c-2.8,6.1-1.6,11.6,3.5,16.3
	c5.1,4.7,6.6,4,7.5-3.9C420.7,1050.2,416.6,1042,411.5,1042L411.5,1042z M412.7,1046.3c0.3,0,0.7,0.3,1.4,1c0.8,0.9,1.7,4,2,7
	c0.5,6.4-0.8,7.8-3.7,4.1c-2.3-2.9-2.7-7.4-1-10.6C412,1046.7,412.3,1046.3,412.7,1046.3z M422.5,1066.8c-4,0-9,0.6-11,1.8
	c-1.6,1.1-3.7,2.7-4.5,3.7c-1.3,1.5-1.2,1.9,1,3.7c2,1.6,3.3,1.8,7.1,1.3c9.3-1.3,17.1-7,12.9-9.6
	C427,1067.1,424.9,1066.8,422.5,1066.8L422.5,1066.8z M419.8,1069.8c2.9,0,5.4,0.4,5.4,0.9c0,1.9-13.5,4.9-14.6,3.3
	C409.4,1072,414.3,1069.8,419.8,1069.8z M394.2,1075.4c-2.6,0-4.7,0.6-5.1,1.7c-1.6,4.2,8.8,11.4,16.5,11.4c8.5,0,8.1-6.1-0.7-10.8
	C401.9,1076.2,397.6,1075.4,394.2,1075.4z M396,1077.8c0.5,0,0.9,0,1.4,0.1c1.1,0.2,2.5,0.5,3.2,0.5c1.5,0,7.4,4.9,7.4,6.1
	c0,2.6-11.2-0.2-14-3.5c-1.3-1.5-1.3-1.9,0-2.7C394.4,1078.1,395.2,1077.9,396,1077.8z M456.7,1040.9c-0.5,0-1.7,1.8-2.7,4
	c-2.8,6.1-1.6,11.6,3.5,16.3c5.1,4.7,6.6,4,7.5-3.9C465.9,1049.1,461.8,1040.9,456.7,1040.9L456.7,1040.9z M457.9,1045.2
	c0.3,0,0.7,0.3,1.4,1c0.8,0.9,1.7,4,2,7c0.5,6.4-0.8,7.8-3.7,4.1c-2.3-2.9-2.7-7.4-1-10.6C457.2,1045.6,457.5,1045.2,457.9,1045.2z
	 M465.6,1080.1c-4,0-9,0.6-11,1.8c-1.6,1.1-3.7,2.7-4.5,3.7c-1.3,1.5-1.2,1.9,1,3.7c2,1.6,3.3,1.8,7.1,1.3c9.3-1.3,17.1-7,12.9-9.6
	C470.1,1080.4,468,1080.1,465.6,1080.1L465.6,1080.1z M462.9,1083.1c2.9,0,5.4,0.4,5.4,0.9c0,1.9-13.5,4.9-14.6,3.3
	C452.5,1085.3,457.4,1083.1,462.9,1083.1z M419,1078.4c-2.6,0-4.7,0.6-5.1,1.7c-1.6,4.2,8.8,11.4,16.5,11.4c8.5,0,8.1-6.1-0.7-10.8
	C426.7,1079.2,422.4,1078.4,419,1078.4z M420.8,1080.8c0.5,0,0.9,0,1.4,0.1c1.1,0.2,2.5,0.5,3.2,0.5c1.5,0,7.4,4.9,7.4,6.1
	c0,2.6-11.2-0.2-14-3.5c-1.3-1.5-1.3-1.9,0-2.7C419.2,1081.1,420,1080.9,420.8,1080.8z M424.7,1038.6c-2.6,0-4.7,0.6-5.1,1.7
	c-1.6,4.2,8.8,11.4,16.5,11.4c8.5,0,8.1-6.1-0.7-10.8C432.4,1039.4,428.1,1038.6,424.7,1038.6z M426.5,1041c0.5,0,0.9,0,1.4,0.1
	c1.1,0.2,2.5,0.5,3.2,0.5c1.5,0,7.4,4.9,7.4,6.1c0,2.6-11.2-0.2-14-3.5c-1.3-1.5-1.3-1.9,0-2.7
	C424.9,1041.3,425.7,1041.1,426.5,1041z"/>
<path id="farfalline" inkscape:label="farfalline" d="M251.9,1043c-0.8,0.1-1.7,0.5-2.7,1.5c-0.9,1-3,1.7-5.4,1.9
	c-3.3,0.2-3.9,0.6-5.5,3.3c-0.9,1.7-2.6,3.5-3.8,4c-2.5,1.1-3,2.7-1.8,5.7c0.7,1.9,0.5,2.5-1.1,4.1c-2.6,2.5-2.6,4.1,0.5,6.1
	c2.5,1.5,2.5,1.8,1.3,4.6c-1.3,3.2-0.9,4,2.7,5.6c1.2,0.5,2.4,2,2.8,3.5c0.7,2.4,1.2,2.7,3.8,2.7c2.4,0,3.6,0.6,4.9,2.2
	c1.6,2,2,2.1,4.3,1.2c2.1-0.9,2.8-0.8,4.7,0.2c2.9,1.7,4.5,1.5,6.1-0.6c0.7-1.1,2.7-2.3,4.5-2.7c2.1-0.6,3.4-1.5,4.3-3.4
	c0.7-1.4,2-2.8,2.9-3c0.8-0.2,2-1.5,2.6-2.8c1.4-3.7,3.6-3,5.8,1.8c1,2.1,2,3.1,3.3,3.1c1.2,0,2.5,1,3.4,2.5c1.2,2.2,1.8,2.4,4,2
	c2.1-0.3,3,0,4.1,1.4c1.2,1.5,2.3,1.8,7.8,1.9c4.4,0.1,6.7-0.2,7.4-1c0.5-0.6,2.2-1.1,3.6-1.1c2.7,0,5.4-1.9,5.4-3.7
	c0-0.6,1.6-2,3.7-3.2c3.6-2,3.7-2.2,3.2-5.5c-0.5-2.8-0.3-3.7,1.3-5c2.5-2,2.4-5-0.4-6.5c-1.8-1.1-2.2-1.8-1.7-4
	c0.5-2.8-1.4-5.4-3.8-5.4c-0.6,0-2-1.3-3.1-2.8c-1.1-1.6-2.6-2.8-3.6-2.8s-2.8-0.7-4.2-1.7c-1.8-1.2-3.1-1.5-5.2-1.1
	c-1.9,0.4-3.3,0.2-4.4-0.7c-1.9-1.5-4.3-1-5.7,1.2c-0.5,1.1-1.9,1.5-4,1.5c-2.6,0-3.4,0.5-4.6,2.4c-0.9,1.6-2.2,2.5-3.8,2.7
	c-2,0.2-2.7,0.9-3.6,3.1c-0.6,1.5-1.6,2.8-2.2,2.8s-1.6-1.3-2.2-2.8c-0.8-2.3-1.6-2.9-3.6-3.1c-1.7-0.2-2.8-0.9-3.5-2.4
	c-0.7-1.8-1.3-2-3.6-1.5c-2.4,0.4-2.9,0.1-4.2-2c-1.3-2.3-1.7-2.4-4.4-2c-2.1,0.4-3.4,0.2-4.2-0.7
	C253.4,1043.4,252.7,1043,251.9,1043L251.9,1043z M251.2,1045.5c0.6,0,1.3,0.4,2.5,1.2c1.1,0.7,2.7,1,4.3,0.7
	c2.1-0.5,2.6-0.2,3.1,1.5c0.5,2.2,1.1,2.4,4.7,2.1c1.5-0.1,2.4,0.6,3.1,1.9c0.8,1.5,1.8,2.1,3.7,2.1c2.3,0,2.6,0.3,2.6,2.4
	c0,5,7.7,5,8.8,0c0.5-1.8,1.2-2.4,3-2.6c1.6-0.2,2.7-1.1,3.6-2.5c0.9-1.7,1.8-2.2,4.2-2.2c2.3,0,3.5-0.6,4.7-2.1
	c1.5-1.9,1.6-2,3.7-0.7c1.5,0.8,3.2,1.1,5.2,0.8c2.3-0.4,3.4-0.2,4.7,1.1c1,1,2.5,1.7,3.4,1.7s2.3,1.1,3,2.4
	c0.8,1.3,2.6,2.8,4.1,3.2c2.6,0.8,2.7,1,1.7,3.5s-0.8,2.8,1.8,4.8l2.9,2.1l-2.3,1.9c-2.5,2-2.8,4.1-1.4,6.6c0.8,1.3,0.5,1.8-2.2,3.2
	c-1.8,0.9-3.8,2.7-4.5,3.8c-0.9,1.7-1.8,2.2-4,2.2c-1.8,0-3.4,0.6-4.2,1.5c-1.2,1.4-1.6,1.5-4.1,0.6c-2.1-0.8-3.2-0.8-4.7-0.1
	c-1.6,0.8-2.2,0.6-3.7-1.2c-1.4-1.5-2.6-2-4.3-1.9c-1.8,0.2-2.6-0.2-3.6-2c-0.7-1.4-1.9-2.2-3.3-2.2c-1.5,0-2.5-0.8-3.4-2.6
	c-1.6-3.2-5-5-7.4-3.8c-0.9,0.4-1.6,1.4-1.6,2s-1.2,1.9-2.7,2.6c-1.6,0.8-2.7,2-2.7,3.1c0,2-1.6,3.6-4,3.6c-1,0-2.7,0.8-3.9,1.8
	c-1.8,1.5-2.4,1.6-4.3,0.7c-1.3-0.6-3.3-0.8-4.9-0.5c-2.1,0.4-3,0.2-4-1.1c-0.7-0.9-2.6-1.7-4.4-1.9c-2.5-0.2-3.3-0.6-3.5-2
	c-0.2-1.1-1.4-2.6-2.7-3.5c-1.9-1.4-2.4-2.3-2.1-4.6c0.2-2-0.3-3.3-1.7-4.7l-2-1.9l2.1-2.5c1.8-2.2,1.9-2.7,0.8-5
	c-0.6-1.4-1-2.6-0.8-2.7c0.2-0.2,1.5-0.8,2.7-1.5c1.4-0.8,2.6-2.4,2.9-3.8c0.5-2.4,0.8-2.5,4.7-2.5c3.2,0,4.4-0.4,5.1-1.6
	C250.2,1046,250.7,1045.5,251.2,1045.5L251.2,1045.5z M258.9,1060.8c-0.2,0-0.2,0.5,0,1c0.5,1.4,9.2,2.9,20.3,3.6
	c9,0.5,19.5-0.9,21.8-2.9c1.8-1.6-0.5-1.8-5.7-0.5c-6.6,1.6-19.1,1.6-28.9,0.1C262.5,1061.4,259.1,1060.8,258.9,1060.8z
	 M282.2,1068.5c-4.5,0-9.1,0.3-13,1c-9.9,1.7-10,1.8-8.9,2.8c0.7,0.6,3.1,0.5,8-0.4c3.8-0.7,10.6-1.3,15-1.3c7.1,0,10.2,0.4,16.3,2
	c1.5,0.4,2,0.2,2-0.6C301.6,1069.8,292.1,1068.5,282.2,1068.5L282.2,1068.5z"/>
<path id="stelline" inkscape:label="stelline" d="M124.1,1041.1c-1.6,0-2.6,0.5-3.5,1.5c-1,1-1.4,2.6-1.1,3.8
	c1.4,5.7,1.7,12.5,0.8,14.3c-0.6,1.1-2.7,3.9-4.7,6.2c-1.9,2.4-3.5,5.1-3.5,6.1c0,2.8,4.7,5.9,10,6.6c6.7,0.9,10.7,3.6,12.9,8.7
	c3.8,8.8,7.4,8.8,14.1,0.2c4-5.2,5.6-6.4,11.8-8.9c10.3-4.1,10.6-7,1.9-16.5c-3.9-4.3-4-4.4-3.3-10.5c0.5-5.4,0.4-6.5-1.3-8
	c-1.9-1.7-2.3-1.7-9.3-0.1l-7.3,1.7l-7.6-2.6C129,1041.9,126.1,1041.1,124.1,1041.1L124.1,1041.1z M125,1044.1
	c1.6,0.1,3.8,0.7,6.8,2c5.3,2.3,14.9,2.8,19.7,1c4.1-1.6,6,0.2,5.2,5.1c-0.8,4.8,1.2,9.7,5.9,14.9c1.9,2.2,3.5,4.6,3.5,5.4
	c0,0.9-2.9,2.9-7.2,4.9c-6,2.7-8,4.3-11.3,8.7c-5.4,7.3-7.4,7.4-10.5,0.9c-2.8-5.9-5.9-8.5-11.5-9.6c-5.1-0.9-10.5-3.2-10.5-4.3
	c0-0.5,1.6-3.1,3.6-5.7c5.1-6.6,5.8-9.2,4.4-15.8c-0.6-3.1-0.9-6-0.5-6.6C123,1044.3,123.8,1044,125,1044.1L125,1044.1z M136.5,1052
	c-1.2,0-2.9,0.5-4.3,1.6c-4.2,3-6.3,11.4-4.5,18.1c1.2,4.3,2.4,2.3,2.4-3.7c0-7,1.7-11.1,5.4-12.8c1.4-0.6,2.6-1.6,2.6-2.2
	C138.1,1052.3,137.5,1052,136.5,1052L136.5,1052z M141.9,1057.4c-1.5,0-3.1,0.3-4.5,1c-3.9,1.8-5.5,4.6-5.1,9.3
	c0.2,2.5,1.1,4.2,3,5.6c2.4,1.8,3.2,1.9,6.7,0.8c2.2-0.6,4.7-2.1,5.6-3.4c1.8-2.6,2-8.7,0.3-11
	C146.8,1058.2,144.4,1057.4,141.9,1057.4z M142.7,1060.1c1.3,0,2.4,0.3,3.2,1.1c3.1,3.1-1.1,10.8-5.9,10.8c-2.8,0-5.9-2.7-5.9-5.2
	C134.1,1063.3,138.9,1060.1,142.7,1060.1L142.7,1060.1z M148.2,1076.1c-0.7,0-2.2,0.3-4.6,0.8c-1.6,0.3-2.9,1.1-2.7,1.6
	c0.5,1.5,5.3,0.8,7.1-1C148.9,1076.5,149.2,1076.1,148.2,1076.1z"/>
<path id="spaghetti" inkscape:label="spaghetti" d="M809.4,888c-0.2,0-0.3,0-0.5,0c-0.3,0.1-17,0.4-37.1,0.7
	c-46.2,0.6-70.5,1.5-71.6,2.5c-0.5,0.4-0.9,1.6-0.9,2.5c0,3.8-0.3,3.8,39.4,2.8c20.3-0.4,44.8-0.9,54.3-0.9c17,0,17.3,0,18.4-1.7
	c0.7-1,1.2-2.4,1.2-3.1C812.3,889.7,810.7,888.2,809.4,888L809.4,888z M809,890.3c0.6,0.1,1,0.4,1,1.1s-0.3,1.4-0.9,1.7
	c-1,0.6-2.5-0.9-1.9-1.9C807.8,890.5,808.4,890.2,809,890.3z M781.8,890.7c19.6,0,22.7,0.2,22.7,1.1c0,1.4-10.3,1.8-65.4,2.7
	c-32.6,0.4-37.8,0.4-37.8-0.6c0-0.9,2.9-1.1,16.6-1.7c9.1-0.4,22-0.8,28.8-1.1C753.6,890.9,769.2,890.7,781.8,890.7L781.8,890.7z
	 M762.6,900.5c-16.5,0-31.8,0.2-38.5,0.4c-13.5,0.5-14.1,0.6-15.5,2.4c-1.7,2.3-1.7,4.3,0.1,5.6s108,1.2,111.3-0.1
	c3-1.2,4.1-6.1,1.8-7.7C821.1,900.6,790.2,900.4,762.6,900.5z M757.4,902.8c26.3,0,57.3,0.4,58,0.8c1.2,0.7,0.8,3.3-0.6,3.8
	c-0.8,0.2-24.5,0.4-52.7,0.3c-47.1-0.2-51.4-0.4-51.6-1.5c-0.2-0.7,0.3-1.6,0.8-1.8c0.5-0.4,5.8-0.9,11.8-1.1
	C727.6,902.8,741.7,902.8,757.4,902.8L757.4,902.8z M819.4,903.2c0.6-0.1,1.2,0.2,1.5,0.8c0.7,1.1-0.9,2.6-2.2,2
	c-0.7-0.4-0.9-1.1-0.8-1.7C818.2,903.6,818.8,903.3,819.4,903.2L819.4,903.2z M795.7,914.6c-8.4,0-21.4,0.1-41.9,0.3
	c-42,0.4-51.7,0.6-52.7,1.5c-1.5,1.3-1.5,5-0.1,6.3c0.9,0.8,12.6,1.1,52.7,1.1c28.3,0.1,52.3,0.4,53.2,0.8c3.5,1.2,7.3-6.3,4.5-8.8
	C810.4,915,809.6,914.6,795.7,914.6z M802.6,916.6c0.2,0,0.6,0.2,1.1,0.4c0.7,0.4,1.2,1.4,1.2,2.6v2.3l-41.8-0.2
	c-23.1-0.1-45.9,0-50.6,0.3c-7.6,0.4-8.9,0.3-10.1-1c-3-3.3-2-3.3,50.3-3.8C779.9,916.9,802.4,916.7,802.6,916.6
	C802.5,916.6,802.5,916.6,802.6,916.6z M808.6,917.2c0.4,0,0.9,0.5,1.3,1.2c0.6,1.6-0.6,2.8-1.9,1.9
	C806.8,919.7,807.3,917.2,808.6,917.2z"/>
<path id="mafaldine" inkscape:label="mafaldine" d="M651.2,881.2c-2.5-0.1-5.6,0.4-8.7,1.5c-5,1.7-7.2,1.8-11.3,0.3
	c-2.8-1.1-3.5-1-6.4,0.8l-3.2,2L619,884c-3.5-2.3-4.9-2.3-8.7,0.1c-2.5,1.5-3.5,1.7-5,0.9c-2.3-1.3-6.7-1.4-7.5-0.2
	c-1,1.4-4.9,1-7.6-0.9c-3.2-2.1-5.1-2.2-8.9-0.3c-2.8,1.4-3.2,1.4-8.1-0.4c-5.4-2.1-7.1-2.2-11.4-1.2c-3,0.7-3.9,3-4,11.4
	c-0.1,5.4,0.2,6.8,1.9,8.3c2.5,2.2,10.4,2.4,16.3,0.4c3.9-1.3,4.3-1.3,6,0c2.3,1.9,5.6,1.8,9.3-0.1c2.7-1.4,3.2-1.4,6.4,0.1
	c3.2,1.6,3.6,1.6,6.7,0.1c3.3-1.4,3.6-1.4,6.8,0.1s3.6,1.5,7.1,0.1c3.4-1.4,3.9-1.4,5.5-0.2c2.2,1.8,4.4,1.7,8.3-0.4
	c4.4-2.3,5.5-2.2,9.2,0.4c3.9,2.9,10.8,3.1,13.5,0.4c2.3-2.3,3.5-16.4,1.6-19.5C655.6,881.9,653.7,881.3,651.2,881.2L651.2,881.2z
	 M650.3,883.9c3.6,0,3.9,0.2,4.5,3.2c0.8,4-0.1,11.7-1.7,13.4c-2,2.1-8.3,1.5-11.1-1c-2.8-2.7-6.5-2.9-10.7-0.4
	c-2.9,1.7-3.1,1.7-6.4-0.1c-3.3-1.6-3.7-1.6-5.9-0.4c-2.7,1.5-6.1,1.8-7,0.4c-0.9-1.2-5.7-1.1-8.5,0.4c-2.2,1.1-2.8,1-5.5-0.6
	l-2.8-2l-4,2.1c-4.9,2.4-5.9,2.4-8.8,0l-2.3-2l-4.5,2c-4.3,2-11.3,2.6-13.4,1.2c-1.5-0.9-2.4-3.6-1.8-5.1c0.5-1.1,2.9-1.3,12.7-1.3
	c10.1,0,12.1-0.3,12.1-1.3c0-1.2-2-1.3-12.2-1.3h-12.2v-2.5c0-5.2,4.4-6,12.7-2.2l5.4,2.3l3-1.9c3.8-2.4,4.4-2.4,7.7-0.1
	c2.3,1.6,3.6,1.8,7.8,1.3c2.9-0.4,5.8-0.2,7.1,0.4c1.6,0.8,2.7,0.6,5.6-0.8c4.5-2.3,4.9-2.3,8.4,0l2.9,1.9l3.8-2.5
	c3.2-2.1,4.1-2.3,5.7-1.4c1,0.6,2.8,1.6,4,2.1c1.6,0.9,2.4,0.9,4.4-0.1C644.3,884.7,646.8,883.9,650.3,883.9L650.3,883.9z
	 M597.7,891.1c-1.9,0-2.4,0.4-2.4,1.3c0,1.2,0.9,1.4,4.9,1.2c2.6-0.2,4.8-0.7,4.8-1.2s-2.1-1-4.8-1.2
	C599.1,891.1,598.3,891.1,597.7,891.1L597.7,891.1z M651.6,906.3c-1.6,0-3.8,0.2-6.4,0.7c-1.9,0.4-4,1.2-4.6,1.7
	c-1.6,1.4-5.3,1.2-6.8-0.4c-1.8-2-7.4-1.7-9.7,0.4s-3.9,2.2-7.7,0.3c-2.8-1.5-3.2-1.5-6.5,0.1c-3.6,1.7-3.6,1.7-5.9-0.2
	c-2.9-2.4-6.3-2.5-8.5-0.2c-1,1-2.2,1.8-2.8,1.8s-1.8-0.8-2.8-1.8c-2.3-2.5-6.4-2.2-9.4,0.5c-2.5,2.4-4.7,2.1-7.6-0.9
	c-0.9-1-3.1-1.4-7.2-1.4c-8.6,0-9.4,1-8.6,11.1c0.3,4.5,0.8,8.9,1.2,9.7c0.9,2.1,9,1.9,13.9-0.4c4.9-2.3,6.4-2.2,10.1,0.4
	c3.3,2.4,5.8,2.3,9-0.1c1.4-1.1,1.9-1,4,0.5c2.9,2.3,4.1,2.2,8.2-0.3l3.5-2.1l4,1.7c3.8,1.8,4,1.8,7.3,0.2c3.2-1.5,3.6-1.5,5.9-0.1
	c3.3,1.8,7.1,1.9,10.3,0c2.2-1.2,2.6-1.2,4.8,0c3.6,2.2,11.6,1.9,14.4-0.6c3.8-3.3,4.7-16.3,1.3-20.1
	C654.4,906.6,653.3,906.3,651.6,906.3L651.6,906.3z M566.6,908.9c0.1,0,1.7,0.4,3.6,1.1c1.8,0.7,3.9,1.9,4.7,2.7
	c1.9,2.1,4.5,1.9,7.2-0.7c2.8-2.7,4.2-2.8,6.6-0.4c1,1,2.8,1.8,4.1,1.8c1.2,0,3.1-0.8,4.1-1.8c2.4-2.3,3.8-2.2,6.4,0.4
	c2.6,2.7,3.7,2.8,7,0.4c2.5-1.8,5.3-1.4,6.9,0.9c1,1.3,5.2,1.1,6.6-0.5c2.8-2.9,4.9-3.1,9.3-1.2c4.1,1.9,4.2,1.9,7.4,0.2
	c1.9-1,5.2-2.1,7.4-2.3c4.9-0.8,6.7,0.7,6.2,5l-0.3,2.9l-11.2,0.4c-14.5,0.6-14.7,2.1-0.2,2.5c10.8,0.3,10.9,0.3,10.9,2.4
	c0,1.2-0.8,2.6-1.9,3.1c-2.8,1.3-8.5,1.1-10.9-0.4c-2.5-1.7-4.7-1.7-8.4,0.2c-2.9,1.5-3.3,1.5-6.1,0c-3.7-1.9-5.6-1.9-8.7-0.1
	c-2.3,1.3-2.7,1.3-6-0.5l-3.6-1.9l-4,2c-3.9,2-5.1,2-8.5-0.3c-1.4-0.9-2.3-0.8-4.8,0.4c-3.8,2-4.8,1.9-7.9-0.3
	c-3.3-2.2-6.5-2.2-10.7,0c-1.8,1-5.1,1.8-7.1,1.8c-4.6,0-5.1-1.2-4.7-10.3c0.3-6.2,0.4-6.2,3.4-6.8
	C564.9,909.3,566.3,909,566.6,908.9L566.6,908.9z M615.7,916.9c-4,0-5.2,0.4-5.2,1.4c0,1.1,1,1.2,4.8,1.1
	C622,919,622.4,916.9,615.7,916.9L615.7,916.9z"/>
<path id="pappardelle" inkscape:label="pappardelle" d="M459.5,880.4l-5,2.5l-8.4-2c-13.4-3.2-24.1-2.2-25.8,2.3
	c-4.7,12.8-5.2,18-1.9,19.8c2.2,1.2,2.2,1.2-1.4,4.4c-7.1,6-6.9,8.8,1,20.5l3.7,5.5l9-0.1c6.6,0,10.6-0.6,15-2.2
	c7.1-2.6,7.5-2.7,7.5-0.6c0,2.3,6.4,4.6,10.8,3.9c9.3-1.6,11.4-4,15.2-17.6c2.1-7.9,2.6-15.4,1-16.4c-0.5-0.3-1-2.4-1-4.6
	c0-3.1-0.9-5.3-4.1-9.7C468.3,876.8,467.5,876.5,459.5,880.4L459.5,880.4z M467,882.6c-0.3,1.7-4.5,4.6-8.6,5.8
	c-3.6,1.1-2.5-2.4,1.7-5.2C464.2,880.4,467.5,880.2,467,882.6z M446.7,883.7c6.9,2,8.2,4.2,3.5,6.2c-3.4,1.4-14,0.7-21.1-1.3
	c-4.9-1.4-7.3-4.2-4.9-5.7S440.1,881.9,446.7,883.7z M474,889c1.7,2.3,2.8,4.7,2.5,5.5c-0.7,2-5.9,4.8-13.1,7.3
	c-10.8,3.7-39.5,2.3-43.9-2.2c-1.2-1.2-1.3-2.1-0.2-5.6c1.4-4.7,2-4.8,10.6-2.6c11.8,3.1,30,0.8,37.3-4.6c1.4-1,2.8-1.9,3.2-1.9
	C470.7,884.9,472.4,886.7,474,889L474,889z M477.9,901.6c1.3,3.3-3.2,5.3-11.8,5.3c-10,0-11.4,1.1-12.3,10.4
	c-1,9.3-3.5,11-19.9,13.8c-5,0.8-7.4,0.8-9.2,0c-2.7-1.3-7.9-8.8-7.2-10.5c0.2-0.7,2.2-1.8,4.3-2.6c2.2-0.8,7.3-3.7,11.4-6.4
	l7.4-5.1l9.4-0.3c8.8-0.3,16.8-2.2,21.8-5.2C474.6,899.5,477.2,899.7,477.9,901.6L477.9,901.6z M433.6,906.9c1.4,1.4-11.1,9-15,9
	c-4.2,0-4.9-1.1-2.4-4.3C420.5,906.2,430.2,903.5,433.6,906.9z M477.9,912.3c-1.1,7.9-4.6,15.6-8.1,17.7c-3.4,2.1-8.6,2.5-11.7,0.9
	c-1.6-0.9-1.9-2.2-1.9-8.5c0-4,0.4-8.5,1-9.9c0.9-2.4,1.5-2.6,7.2-2.7c3.5-0.1,7.7-0.5,9.3-0.9c1.7-0.4,3.4-0.8,3.9-0.9
	C478.1,908,478.2,909.9,477.9,912.3L477.9,912.3z"/>
<path id="tagliolini" inkscape:label="tagliolini" d="M293.2,876.2c-4.5,0-7.7,0.4-11.3,1.4c-3,0.9-7.5,1.7-10,1.7
	c-5.6,0.1-9,1.7-13.8,6.2c-2.6,2.5-3.6,3.9-2.8,4.6c0.7,0.6,2.1-0.1,4.4-2.3c1.7-1.8,4.6-3.9,6.1-4.6c3.3-1.4,14.1-1.7,14.1-0.4
	c0,0.4-1.5,0.9-3.3,0.9c-5.2,0.1-12.4,5.1-15.8,11.1c-3.6,6.1-6.7,14.2-5.9,14.9c1.1,1,2.1-0.7,5.7-8.8c2.4-5.4,4.4-8.4,6.8-10.3
	c4.4-3.3,5.6-3.3,3.7,0.1s-2.3,11.4-0.5,11.9c0.8,0.3,1.2-0.5,1.2-2.2c0-3.2,1.3-4.2,8.1-5.7c3-0.7,5.7-1.8,5.9-2.4
	c0.3-0.8-0.2-1-1.9-0.6c-6.3,1.3-10.1,1.7-10.1,0.9c0-1.9,22.7-4.4,27.9-3.1l3,0.8l-3,0.6c-14.1,2.7-24.4,6.3-25.6,8.9
	c-1,2.3,0.4,2.3,4.5,0c6.5-3.7,15.2-5.9,26.3-6.4c8.4-0.4,10.8-0.3,13.9,1.1c2.1,0.9,4.2,1.2,4.6,0.9c0.8-0.7-4.3-4.4-8.1-5.8
	c-4.5-1.6-3.6-3.4,1.6-3.4c5.3,0,9.6,2.6,12.2,7.5c1.8,3.2,3.7,4,3.7,1.5c0-2.4-4.4-8-7.7-9.8c-1.6-1-4.3-1.8-5.8-1.8
	s-6.3-1.7-10.6-3.7c-6.9-3.2-8.5-3.7-15.4-3.9C294.5,876.2,293.8,876.2,293.2,876.2L293.2,876.2z M293.1,878.2
	c3.5,0,7.2,0.8,11.9,2.7c2.8,1.1,5.3,2.5,5.3,2.9c0,1.3-1,1.2-6.2-0.4c-2.3-0.8-7.1-1.5-10.5-1.8c-6-0.4-9.4-1.8-6.6-2.5
	C289.1,878.5,291,878.2,293.1,878.2z M292.2,883.9c2.8-0.1,5.6,0.2,8.6,0.8c7.1,1.6,6.3,2.5-1.8,2.4c-4.1-0.2-10.3,0.1-13.7,0.4
	c-7.7,0.9-8.6-0.5-1.5-2.4C286.6,884.4,289.4,884,292.2,883.9L292.2,883.9z M311.5,895.6c-0.2,0-0.4,0.1-0.6,0.3
	c-0.3,0.5-0.3,1.6,0.1,2.5c0.5,1.2,0.2,1.4-1.8,1c-8-1.9-20.1-1.4-20.9,0.8c-0.3,0.7,2,0.9,7.1,0.5c8.2-0.4,11.9,0.6,11.9,3.3
	c0,2.6-1.4,2.7-5.1,0.4c-4-2.5-9.2-3.2-7.1-0.9c0.7,0.7,1.8,1.3,2.4,1.3c0.7,0,2.3,1,3.7,2.2l2.3,2.2h-4.3c-5.4,0-11.1-2.3-12.6-5
	c-1.2-2.3-3.8-2.7-3.8-0.6c0,2.6,5.5,6.2,11,7.3c10.8,1.9,22.7,0.5,24.2-2.9c0.6-1.3-3.2-9.8-5.2-11.8
	C312.3,895.8,311.9,895.5,311.5,895.6L311.5,895.6z M327,901.3c-0.7,0-2.5,1.8-4.4,4.8c-4.3,6.6-10,11.5-11.8,10.2
	c-1.1-0.8-2.7-0.8-6.5-0.1c-5.4,1-13.4,0.2-17.6-1.8c-1.1-0.5-4.1-2.5-6.5-4.5c-4.6-3.7-6.2-2.9-2.5,1.2c3.7,3.9,12,7.1,20.1,7.5
	c4.1,0.3,7.4,0.7,7.4,1.1c0,1.2-6.2,2.6-11.4,2.6c-8.1,0-17.1-5.3-21.7-12.8c-1.6-2.5-4.5-4.1-4.5-2.5c0,2,4.9,8,9.7,11.7
	c8,6.3,15.1,7.7,25.5,5c2.7-0.7,5.1-1.3,5.2-1.3s0,0.5-0.3,1.1c-0.3,0.7-2.2,2.1-4.4,3.1c-7.2,3.5-21.8,2.2-30.5-2.7
	c-4.1-2.3-6.6-6-8.2-11.8c-0.6-2.1-1.5-3.5-2.1-3.2c-0.5,0.3-0.8,1.1-0.5,1.9c0.3,0.9,1,3.2,1.6,5.3c2.5,8.6,12.8,14.2,27.1,14.9
	c7.5,0.4,8.9,0.2,13.8-1.9c3-1.2,6.4-2.3,7.5-2.3c2.2,0,8.5-3.8,12.7-7.5c3.9-3.6,8.9-12.4,8.9-15.4c0-3.7-1.4-2.4-4.2,3.9
	c-1.7,4.1-3.9,6.8-8.1,10.5c-6.4,5.6-9.8,6.8-7.9,2.7c0.5-1.3,2.7-3.9,4.8-5.9c4.2-3.9,7.7-8.7,8.8-11.8
	C327.5,901.9,327.5,901.3,327,901.3L327,901.3z M311.9,903.1c0.8,0,1.8,0.6,2.6,1.9c1,1.6,0.8,2.1-0.7,3.1c-2.5,1.7-4.5,1.4-4.5-0.5
	C309.3,904.8,310.5,903.1,311.9,903.1L311.9,903.1z"/>
<path id="tagliatelle" inkscape:label="tagliatelle" sodipodi:nodetypes="cccccsccccccccccccccccccccccccccsccscscsscccccsscccccssccccccccccccsscscccsccccsccscccsccccc" d="
	M136.8,879.3c-3.7,1.7-8.6,3.5-11,4.2c-6.7,1.7-10.7,6.4-12.1,13.9c-0.3,1.9-2,5.5-3.6,7.9c-3.5,5.2-4.2,13.5-1.6,17.7
	c1.5,2.5,1.4,5.2,3.3,4.2c4.6-2.5,4.4-11.1,7.1-8.3c5.6,5.7,13.4,10.7,27.1,10.2c9-0.3,11.4-0.8,16.1-3.1c3-1.4,6.3-3.2,7.2-3.9
	c1.4-1,2.1-0.7,4.7,2.1c2.6,2.7,6.7,8.6,8.5,7.6c1.1-0.6,2.7-2.2,3.6-3.6c1.5-2.2-1.9-8.5-3.3-14.2c-0.8-3.6-1.3-8.4-1-11.3
	c0.7-6.7-0.9-11.2-5.7-16.7c-5.5-6.2-12.2-8.9-23.5-9.4C144.3,876.4,143.1,876.6,136.8,879.3L136.8,879.3z M161.8,880
	c6.1,2.1,10.5,5.1,14.3,9.8c4,5.1,2.9,6.2-2.3,2.6c-8.5-6-32.6-9.6-41-6.1c-2.3,0.9-2.8,0.8-2.5-0.1c0.2-0.7,3.3-2.7,6.8-4.5
	c5.3-2.6,7.7-3.2,13.2-3.2C154,878.4,159.2,879.1,161.8,880z M122.2,893.2c-3.2,9.3-3.1,14.9,0.4,22.1c3.1,6.6,2.6,9.3-0.9,4.8
	c-5.7-7.1-7.5-21.9-3.5-28.3c1.9-3.1,4.9-5.7,5.7-4.9C124.1,887,123.3,889.9,122.2,893.2z M146.1,887.3c0,0.6-2.4,2.2-5.2,3.6
	c-2.9,1.5-7.4,4.4-10,6.6c-6.8,5.7-10.5,2.9-6-4.6c1.5-2.5,3-3.3,8.8-4.7C141.7,886.3,146.1,886,146.1,887.3z M158.5,890.6
	c0.9,1.2,1.6,3.3,1.6,4.5c0,2.1-0.5,2.3-4.6,2.3c-2.5,0-7.7,0.5-11.5,1.2c-8.9,1.4-10.6,0.2-5.4-3.8c3.9-2.9,12.5-6.3,16.2-6.4
	C156,888.4,157.7,889.4,158.5,890.6z M168,891.5c5.1,1.8,5.6,7.9,0.5,7.9c-3.1,0-6.4-3.3-6.4-6.5C162.1,890.1,163.2,889.9,168,891.5
	z M178.2,899.5c1.6,3.1,0.5,8.2-3,13.2c-3,4.4-7.8,8.4-8.8,7.3c-0.3-0.3,0.9-3.5,2.6-7.2c1.7-3.6,3.1-7,3.1-7.5c0-2,2.9-7.9,3.9-7.9
	C176.6,897.4,177.5,898.4,178.2,899.5L178.2,899.5z M135.1,902.4c2.1,3.9,9.3,7.1,18.6,8c4.8,0.5,9.2,0.8,9.7,0.7
	c0.6-0.1,1.2,0.5,1.4,1.4c0.6,2.4-4.3,4.1-13.2,4.6c-7.5,0.4-8.4,0.3-14.5-2.9c-3.5-1.8-7.3-4.5-8.4-6l-2-2.8l2.4-2.5
	C131.9,899.9,133.7,899.7,135.1,902.4z M164.4,901.5c4,1.1,5.7,3.3,3.9,5.1c-1.4,1.4-17.2,1.2-18.6-0.2c-0.5-0.5-0.6-2-0.2-3.4
	c0.6-2.4,1.1-2.6,5.9-2.6C158.2,900.4,162.3,900.9,164.4,901.5L164.4,901.5z M146.9,903.1c-0.4,2.2-3.4,2.9-5.3,1.3
	c-2.1-1.7-0.9-3,2.6-3C146.6,901.4,147.2,901.8,146.9,903.1z M126,908.8c2.5,4,8,7.8,14.7,10.1c3.8,1.3,6.7,1.6,12.7,1.1
	c4.2-0.4,7.7-0.3,7.7,0.2c0,2.3-4.5,5.2-9.6,6.2c-7,1.5-17.6,0.5-20.4-1.8c-2.1-1.9-9-15.2-9-17.7S123.8,905.2,126,908.8z
	 M114.1,910c1.5,3.8-0.9,14.5-2.8,14.1c-2.7-0.5-1.7-16.7,0.9-16.7C112.7,907.4,113.6,908.6,114.1,910L114.1,910z M180.5,914
	c1.1,2.8,4,12.6,2.5,13.9c-3.8,3.2-9.5-8.2-6.3-13C178.6,912,179.6,911.8,180.5,914z"/>
<path id="lasagne" inkscape:label="lasagne" d="M865.8,698c-11.1,1.1-15.9,1.2-24.4,0.4c-10.3-1-17.1-0.6-19.4,1
	c-1.2,0.9-5.6,9.4-8.4,16.1c-3.4,8.1-6.9,18-6.9,19.4c0,0.7,0.8,2,1.7,3c1.4,1.2,1.7,2,1.3,4.2c-0.3,2,0,2.9,1.3,4.2
	c1.5,1.4,1.7,1.9,1.3,5.1c-0.5,4.6-0.1,4.8,12,6.2c12.5,1.4,20,1.3,24.9-0.3c10.9-3.5,22.9-4,45.8-1.9c7.4,0.6,8.6,0,10.6-6
	c0.8-2.4,3.2-8.5,5.4-13.7c4.6-10.9,5-14,2.4-15.8c-2.1-1.4-2.3-2.6-0.9-5.2s1.3-5.1-0.5-6.9c-1.3-1.5-1.3-1.9-0.6-4.7
	c1.4-5.7,0.8-6-16.6-6.2C886.4,696.8,873.4,697.2,865.8,698L865.8,698z M907.4,699.8c1.3,0.4,2.1,1.1,2.1,2.2
	c0,3.5-1.8,4.2-12.7,4.6c-6.5,0.3-10.4,0.8-10.4,1.4c0.1,0.6,4.2,1.2,9.4,1.5c5.1,0.3,9.3,0.6,9.5,0.7c0.7,0.6-1.3,7.3-3.6,11.7
	c-0.8,1.5-2.1,4.4-2.9,6.6c-2.4,6.3-2.2,6.2-14.1,5.1c-10.8-1.1-12.6-0.9-27.3,2.1c-13.9,3-22.7,3.6-32.1,2.5
	c-10.6-1.3-15.4-2.6-15.8-4.3c-0.7-2.3,10.6-29.2,13.3-31.5c0.5-0.5,11-0.9,23.4-0.9c12.4-0.1,25.4-0.6,28.9-1
	C882.6,699.4,904.3,699,907.4,699.8L907.4,699.8z M910.8,712c0,0.4-0.7,2.2-1.7,4.1c-0.9,1.9-3.4,8.2-5.4,14.1
	c-2.6,7.5-4.1,10.8-5.2,11.3c-0.8,0.3-8.3,0.4-16.6,0c-12.4-0.5-16-0.4-19.6,0.8c-12.4,4-18.7,4.6-32.3,3.4
	c-15.7-1.4-16.7-1.7-16.7-4.1c0-1.9,0.3-1.9,6.3-1.1c9.4,1.3,27.4,0.7,35.1-0.9c15.4-3.4,16.7-3.5,26.9-2.8c5.6,0.4,11.4,0.7,13,0.7
	l3,0.1l4.6-10.6c2.6-5.8,5-11.7,5.4-13.2C908.2,711.6,910.8,710.1,910.8,712L910.8,712z M912.1,723.7c0.9,1.6,0.3,3.5-4.7,14.6
	c-1.8,3.9-3.4,8.2-3.7,9.5c-0.3,1.6-1.3,3-2.7,4c-2,1.3-3,1.3-9.8,0.1c-11.1-1.9-30.1-1.5-38,0.9c-9.4,2.8-13.2,3.1-23.4,2
	c-15.2-1.7-16.3-2.2-13.2-6c1.1-1.3,2-1.4,8.2-0.5c10,1.5,27.2,0.6,34-1.8c6.6-2.3,13.8-2.8,29.3-1.7l11.8,0.7l1.4-2.1
	c0.8-1.2,2.6-5.7,3.9-10.1c2.2-7,4.3-11.1,5.8-11.1C911.1,722.4,911.7,723,912.1,723.7L912.1,723.7z"/>
<path id="soli" inkscape:label="soli" d="M720.1,696.3c-1.4,0-2.6,0.7-4,2.2c-1.3,1.4-3.7,2.3-6.2,2.3c-3.3,0-4.3,0.6-5.8,3.9
	c-1.2,2.3-3.7,4.6-6.1,5.8c-3.6,1.6-4.1,2.3-3.3,5.1c0.5,2.4,0,3.8-1.8,5.4c-2.9,2.5-3,4.8-0.4,7.7c1.8,1.8,1.8,2.7,0.5,6.3
	c-1.6,4-1.6,4.3,2.1,7.2c2.5,2.1,3.7,4,3.7,6.1c0,3.3,2.9,5,6.3,3.7c1.4-0.5,2.5,0.5,4.1,3.5c2.1,4.6,2.4,4.6,7,3
	c2.4-0.9,3.8-0.8,6,0.6c3.9,2.4,6.1,2.2,10.3-1.2c1.9-1.6,4.8-2.9,6.4-2.9c2,0,3.2-1,4.5-3.8c0.8-2.1,3-4.7,4.8-5.8
	c2.4-1.5,3.1-3,3.1-6c0-2.8,0.8-4.5,3-6.1c3.5-2.7,3.8-5.5,1.1-9.2c-1.2-1.7-1.4-3.1-0.7-4.4c1.7-2.9,0.5-5.4-3.5-7.6
	c-1.9-1.2-3.5-3-3.5-4.2c0-2.7-1.9-4.3-6.1-5.2c-1.7-0.5-3.7-2.1-4.4-3.7c-1.6-3.2-3.3-3.6-8-1.5c-2.5,1-3.7,1-5.5,0
	C722.3,696.7,721.2,696.3,720.1,696.3L720.1,696.3z M719.5,699.8c0.8,0,1.7,0.4,3.1,1.2c1.7,1,3.1,1,6.1,0c3.8-1.3,4.3-1,7.3,2.2
	c1.8,1.8,4.4,3.5,5.7,3.5c1.7,0,2.5,1,3.1,3.5c0.5,2.2,2,4.2,4.3,5.2c3.1,1.6,3.2,2.1,2,4.6c-1.1,2.3-1,3.2,0.6,5
	c2.6,2.9,2.5,5.1-0.4,6.9c-1.7,0.9-2.4,2.7-2.4,5.4c0,3.2-0.6,4.3-3.5,5.7c-1.9,1-4.1,3.3-4.7,5.3c-1,2.4-2,3.5-3.9,3.5
	c-1.6,0-4.2,1.4-6,3c-3.1,2.9-3.3,2.9-6.8,1.2c-2.6-1.3-4.5-1.5-7.3-0.7c-3.3,0.9-3.9,0.7-5.5-2.3c-1.3-2.4-2.7-3.5-5.6-3.7
	c-3.5-0.3-3.9-0.8-3.9-3.7c-0.1-1.8-0.7-3.6-1.4-3.8c-4.2-1.4-5.1-3.2-3.7-7c1.2-3,1.2-4.3,0-6c-1.9-3-1.8-5.2,0.4-6.9
	c1.3-1,1.7-2.5,1.2-4.6c-0.6-2.7-0.2-3.3,2.9-4.6c2.1-0.8,4.1-2.7,4.8-4.7c1-2.7,1.9-3.3,4.7-3.3c1.9,0,4.4-1,5.6-2.3
	C717.5,700.5,718.4,699.8,719.5,699.8L719.5,699.8z M729,706.7c-0.6,0-1.2,0-1.9,0c-3.3,0-7.8,0.6-9.8,1.3
	c-9.4,3.2-13.4,8.5-14.4,19c-1,9.9,2.5,15.9,11.8,20.4c6.7,3.2,7.2,3.2,13.6,2c11.9-2.7,20.9-13.9,18.8-24
	c-1.2-6.1-3.3-9.7-8.8-14.5C734.4,707.5,733,706.8,729,706.7L729,706.7z M726,709.1c2.2,0,4.2,0.5,6.6,1.5c9.7,3.9,14.6,18,9.2,26.4
	c-3.1,5-6.7,7.3-13.7,9c-22.8,5.5-31.8-27.7-9.7-35.3C721.5,709.6,723.9,709.1,726,709.1z"/>
<path id="mezzelune" inkscape:label="mezzelune" d="M579.4,695.1c-1.5,0-2.8,1-4.3,3c-2.1,2.8-2.8,3.1-5,1.8
	c-5-2.7-8.6-1.7-10.4,2.8c-1,2.5-3.4,5.1-5.6,6.2c-3.3,1.7-3.8,2.6-3.4,6.2c0.2,3.4-0.4,4.8-3.1,7c-3.4,2.8-3.4,2.8-1.3,6.9
	c1.7,3.4,1.7,4.3,0.4,5.1c-0.8,0.6-1.9,1.1-2.4,1.1s-1.5,1.2-2.3,2.6c-1.1,2.2-0.8,3.3,1.3,6.2l2.7,3.7l-2.7,2.8
	c-5.8,6.2,0.8,10.2,10.4,6.1c4.2-1.8,4.6-1.7,7.1,0.6c3.3,3.1,4.5,3.1,7.3,0c1.2-1.3,2.8-2.4,3.5-2.4s2.1,1.1,2.9,2.4
	c1.9,3.1,4.5,3.1,8.5,0l3-2.4l2.7,2.4c3.4,3.2,6.4,3.1,9.9-0.2l2.8-2.7l1.9,2.7c2.3,3.4,6.2,3.4,9.8,0l2.8-2.6l2.8,2.6
	c4.8,4.5,14.2,2.8,14.2-2.6c0-1.5-0.8-4-1.9-5.5c-1.7-2.5-1.7-2.9,0-5.4c2.8-3.9,2.4-6.5-1.2-8.9l-3.1-2.1l2.7-2.8
	c3.1-3.4,2.5-6.1-1.8-8.2c-3.1-1.5-3.3-2.3-1.2-7.5c0.7-1.7-0.1-2.6-4-4.2c-3.5-1.3-5.3-2.9-6.2-5.4c-1.2-3.7-1.9-3.9-7.6-3.6
	c-1.9,0.1-4.8-1-6.5-2.3c-4.1-3.3-6.5-3.2-10.7,0l-3.3,2.6l-3.4-3.2C582.6,696.1,580.9,695.1,579.4,695.1L579.4,695.1z M580.9,698.6
	c0.7,0,1.1,0.3,1.1,1.3c0,0.6,1.3,2.1,3,3.2c2.8,1.8,3.3,1.8,7.3-0.7l4.2-2.7l3.9,3.3c3.6,3.1,5,3.3,9.7,1.2
	c1.6-0.6,2.4,0.1,3.8,3.4c1.2,2.8,2.9,4.5,5,5c3.1,0.7,4.2,3.6,1.9,5c-0.6,0.4-1.2,1.8-1.2,3.2c0,1.7,1.1,2.6,3.6,3.1
	c4.2,0.9,4.6,2.8,1.2,6c-3.4,3.1-3,5.1,1.2,7.4c4.1,2.1,4.5,3.3,1.8,5.5c-2.3,2-2.3,4.8,0.1,7.5c4.8,5.5-3,8.3-8,2.9
	c-1.6-1.7-3.3-3.1-3.9-3.1c-0.5,0-2.2,1.3-3.6,3.1c-3.3,3.9-4.1,3.8-7.6-0.4l-2.8-3.3l-3.5,3.3c-4.2,4-5.3,4.2-8.2,1
	c-1.2-1.3-2.9-2.4-3.9-2.4c-0.8,0-2.5,1.1-3.6,2.4c-2.8,3.2-3.5,3.1-6.9-0.9l-2.8-3.3l-4,3.3l-4,3.4l-2.5-2.6
	c-3.3-3.1-3.6-3.1-10.1,0.1c-6.5,3.2-8.5,2.2-5-2.7l2.7-3.6l-2.9-3.9c-2.7-3.7-2.7-3.9-0.6-5.5c1.3-0.9,2.7-1.6,3.1-1.6
	c1.8,0,2.1-3.6,0.4-6.7c-2.2-4.4-2.3-4.2,2.1-5.8c3.8-1.3,4.1-2.9,1.8-8.6c-0.7-1.5,0.1-2.6,3.4-4c2.4-1.2,4.4-2.8,4.4-3.6
	c0-0.9,0.7-2.5,1.6-3.7c1.5-2.1,2.1-2.1,6.3-0.6c4.5,1.7,4.6,1.6,7-1.7C578,700,579.8,698.7,580.9,698.6L580.9,698.6z M586.9,710
	c-4.7,0-8.9,0.6-11.7,1.6c-2.7,1-6.5,3.6-8.6,5.8c-8.6,8.9-13,23.8-7.9,26.3c1.1,0.6,13,1.5,26.3,1.8c29.3,1,30.4,0.6,30-8.3
	c-0.2-8.3-5.7-18.5-12.2-23.2c-4.5-3.2-6.4-3.8-13.9-4C588.3,710,587.6,710,586.9,710L586.9,710z M587.6,713.7c0.6,0,1.2,0,1.8,0.1
	c6.7,0.2,8.8,0.9,12.6,3.8c5.4,4.3,10.7,14.8,10.1,20.6l-0.4,4l-24.8-0.2c-29.1-0.4-29.5-0.6-26.2-9.4c2.8-7.4,9.9-15.2,15.9-17.4
	C579.2,714.2,583.4,713.6,587.6,713.7z"/>
<path id="ravioli" inkscape:label="ravioli" d="M443.6,698c-0.6,0-2.2,1.5-3.7,3.3l-2.8,3.2l-2.3-2.8c-2.8-3.3-4-3.4-6.4-0.4
	c-2.9,3.7-3.9,3.8-7.8,0.7c-3.6-2.9-7.5-3.7-10.9-2.4c-1.9,0.7-2.1,5.5-0.5,8.7c1,1.8,0.8,2.4-1.5,4.2c-3,2.4-3.2,4.2-0.9,8.3
	c1.7,2.9,1.7,3.1,0,5c-2.6,2.8-2.1,5.8,1.5,8.6l3.2,2.5l-2.2,2.4c-2.6,2.8-2.8,4.9-0.5,8.8c1.6,2.8,1.6,3.1-0.1,6
	c-4.1,6.9,0.8,10.5,8.7,6.4c5.7-2.9,7-3.1,8.7-1c1.6,2,4.5,1.9,8-0.2c2.7-1.5,3-1.5,5.4,0c3.1,2.1,5.5,2.1,8,0.2
	c1.6-1.2,2.2-1.2,4.7,0c3.6,1.9,7.3,1.9,8.9,0c1.7-2,2.6-1.9,5,0.5c2.5,2.5,10.1,2.8,12.4,0.4c2.2-2.1,2-5.7-0.4-7.9
	c-2.8-2.5-2.5-4.2,1-6c3.6-1.8,3.8-4,0.8-7.2l-2.2-2.3l2.7-2.8c3.3-3.5,3.4-4.6,0.2-8.4c-1.4-1.6-2.5-3.3-2.5-3.7s1.1-1.8,2.5-3.1
	c2.9-2.7,3.2-5.2,0.9-7.1c-1.2-1-1.5-2.4-1-5.6c1-7.3-3.7-9.5-10.6-4.8c-4.5,3-6.9,3.2-9.3,0.5c-2.3-2.5-4-2.5-7.3,0l-2.5,2.1
	l-3.2-3.1C445.9,699.4,444.1,698,443.6,698L443.6,698z M413.4,702c1.6-0.1,3.9,1,5.7,3c3.3,3.6,6.5,3.8,9.8,0.8l2.3-2.3l1.8,2.4
	c1.4,1.9,2.4,2.2,4.4,1.7c1.5-0.3,3.1-1.5,3.7-2.6c1.4-2.6,4.2-2.6,6.5,0c2.2,2.4,4.2,2.5,6.7,0.3c1.6-1.4,2.3-1.5,3.9-0.5
	c1,0.7,2.8,1.8,3.9,2.4c1.7,1.1,2.5,1,4.8-0.4c9.5-6,12.2-6,10.1,0.2c-0.9,2.5-0.9,3.7,0,5.1c1.5,2.6,1.4,3.7-0.9,6.6
	c-2.6,3.3-2.6,3.3,1,7.9l3.1,3.8l-3.1,2.4c-3.4,2.7-3.7,4.2-1.3,7.9c1.6,2.5,1.6,2.6-1,4.5c-3.2,2.3-3.4,4.8-0.7,7.3
	c1.1,1,2,2.6,2,3.7c0,2.9-6.1,2.4-9-0.7c-2.8-3-4.5-3.1-6.7-0.5c-2,2.3-5,2.5-7.7,0.5c-2.6-2-4.5-1.9-6.8,0.2
	c-1.8,1.6-2.1,1.6-4.7,0c-3.7-2.2-5.9-2.1-8.3,0c-1.6,1.4-2.2,1.5-3.6,0.5c-5-3.6-5.9-3.6-10.8-0.3c-7.3,4.8-8.8,4.2-5.8-2.3
	c1.6-3.3,1.6-3.6-0.4-6.7l-2-3.3l2.1-3.8l2.2-3.9l-3.2-2.9c-3.8-3.5-4-4.1-1.3-5.8c2.6-1.6,2.5-4.2-0.1-7.6l-2.2-2.7l3.3-2.7
	l3.2-2.7l-1.6-3.9c-0.9-2.1-1.3-4.2-1-4.7C412,702.3,412.6,702,413.4,702z M448.2,712.1c-7.3,0-14.7,0.1-16.1,0.4
	c-0.8,0.2-3.1,0.6-5,1c-7.2,1.2-7.5,1.8-7.1,17.8c0.2,11.2,0.6,14.6,1.8,15.9c1.4,1.6,3.7,1.8,19.6,1.8c24.1,0,25-0.4,27.6-13.8
	c0.6-2.9,1.1-7.2,1.1-9.4c0-5.3-3.4-12.4-6.3-13.2C462.7,712.3,455.5,712.1,448.2,712.1z M447.1,715.1c12.5,0,14.8,0.2,16.8,1.7
	c3.5,2.7,4.4,8.4,2.6,17.2s-2.4,9.6-7.3,11c-5.6,1.6-32.3,1.3-34.6-0.4c-1.6-1.2-1.9-2.8-1.9-13.4c-0.1-8.2,0.3-12.5,1.1-13.3
	C425.8,715.9,431.7,715.2,447.1,715.1z"/>
<path id="cappelletti" inkscape:label="cappelletti" d="M283.8,702.1c-7.7,1.2-19.1,6.5-24.1,11.3c-5.6,5.2-8.9,14.8-8.2,23.1
	c0.7,7.7,5.7,15.6,12.8,20.2l5.2,3.4l23.8,0.2c26.7,0.2,29.1-0.2,36.8-7.2c5.6-5,7.6-8.3,9.3-15.3c3.6-15.2-8.6-29.1-29.9-33.8
	C300.1,701.7,290.3,701.1,283.8,702.1L283.8,702.1z M301.6,705.6c9.5,1.4,21.2,5.6,27.4,10.1c4.3,3.2,7.8,10.5,8,16
	c0,3.7-0.8,5.1-6,9.8c-5.6,5.1-8.8,6.7-17.1,8.3c-1.9,0.5-3.4,1.2-3.4,1.9c0,2.3,10.6,0.3,15.8-2.9c6.3-3.8,7.1-3,2.1,1.7
	c-5.3,5.1-10.4,6.8-19.6,6.8H301l-0.6-4.8c-0.5-3.8-0.1-5.1,1.9-6.4c6.8-4.7,10.6-9,10.3-11.5c-0.6-3.9-4.1-3.8-6.5,0.2
	c-1.9,2.8-2.9,3.4-6.5,3.2c-2.3-0.1-5.9,0.1-8,0.7c-3.5,0.7-4.1,0.5-6.5-3.2c-3-4.7-7.7-5.6-8.8-1.7c-0.8,3,2.3,6,12.7,11.7
	c13.4,7.2,12.3,10-4.2,11.3c-12.4,0.8-16.3,0-21.7-4.8c-8.3-7.3-11.1-19.4-6.2-27.3c4.9-8.2,23.2-12.9,41.2-10.5
	c5.2,0.8,10.7,1.7,12.3,2.1c2.2,0.6,2.8,0.5,2.3-0.8c-1.4-4.2-28.2-5.9-41.3-2.7c-4,1-7.4,1.6-7.6,1.2c-0.8-0.8,8-5.1,13.9-6.8
	C288.5,704,289.5,704,301.6,705.6L301.6,705.6z M299.9,741.1c1.4,1.4-0.7,3.8-3.4,3.8c-3.5,0-5.2-2.1-2.9-3.5
	C295.5,740.3,298.8,740.1,299.9,741.1L299.9,741.1z"/>
<path id="tortellini" inkscape:label="tortellini" d="M151.6,682.9c-7.3,3.8-12,5.6-20.7,8.2c-4.1,1.1-9.1,2.7-10.8,3.4
	c-16.3,6.5-23.6,25.6-18.2,47.2c1.4,5.5,6.8,12,10.7,12.8c1.3,0.4,3.4,1.9,4.9,3.6c5.3,6.5,15.1,8.7,26.5,6.1
	c3.4-0.8,8.3-1.4,10.8-1.4c9.3,0,17.4-6.3,22.2-17.6c2.8-6.5,2.9-6.8,2.9-17.6c-0.1-9.1-0.4-11.9-1.9-16.7
	c-4.5-14.3-12.3-26.8-18.2-29.6C156.6,679.9,157.7,679.7,151.6,682.9z M160.4,684.1c1.4,0.8,3.8,3.3,5.6,5.9
	c4.1,5.6,10.2,19.3,8.9,19.8c-0.7,0.3-0.8,2.6-0.5,8.9c0.6,9.7-0.7,16.3-4.1,20.7l-2.1,2.6l0.6-3.1c0.3-1.7,0.6-6.5,0.6-10.6
	c-0.1-6.8-0.3-8.1-2.7-13c-4.2-8.7-9.7-12.9-20.2-15.5c-5.8-1.4-6.7-1.4-13.2-0.1c-8.4,1.7-12.9,3.8-17.5,8c-5.7,5.4-6.9,9-6.9,20.2
	c0.1,8.5-0.1,9.8-1.4,10.9c-1.2,0.9-1.4,1.9-1.1,4.1c0.6,4-0.7,3.8-2.4-0.4c-1-2.5-1.4-5.8-1.4-14.2c-0.1-12.9,1-16.5,7.3-23.8
	c4.2-5,8.5-7.6,16.2-9.9c2.9-0.9,7.7-2.4,10.8-3.3c3.1-0.9,8.6-3.2,12.4-5.1C157.1,682.4,157.3,682.3,160.4,684.1L160.4,684.1z
	 M151.8,703.6c14.7,6.5,21,27.3,12.3,40.4c-4.3,6.5-12.8,11.5-20.9,12.3c-3.4,0.4-4.7,0-9.4-2.7c-5.2-3.1-7.7-3.9-7.7-2.5
	c0,0.4,2.7,2.2,6,4c5.7,3.2,6.2,3.3,11.8,2.9c6.6-0.4,11-2.5,19.4-8.6c9.3-6.9,12.5-12.6,13.6-23.8c0.6-6.9,1.8-5.5,1.8,2.2
	c-0.1,9.7-3.7,19.8-9.6,26c-4.4,4.7-8.1,6.5-13.5,6.4c-2.5,0-6.6,0.5-9.2,1.3c-2.6,0.8-7.8,1.4-11.6,1.4c-5.8,0.1-7.4-0.2-10.5-2
	c-3.4-2-16.6-16.6-16.6-18.4c0-2.3,2.9-3.2,10.7-3.1c6.9,0,9.2,0.4,15.6,2.9c8.1,3.1,14.5,3.7,17.3,1.8c3.5-2.4,4.4-8.5,2.2-14.3
	c-1.4-3.5-3.3-4.5-2.4-1.2c2.1,7.6,2.2,8.4,1,10.9c-1.2,2.9-4.5,4.3-3.4,1.6c1.5-4,1.4-6.5-0.8-10.4c-2.5-4.7-7.8-8.8-13.6-10.2
	c-10.8-2.6-20.6,5.5-15.8,13.1c0.7,1.1,1.1,2.2,1,2.4c-0.2,0.2-2,0.5-4,0.9c-4.3,0.7-4.5,0.4-5.2-7.4c-1.1-11.7,4.6-21,15.7-25.5
	c6-2.5,7.4-2.6,15.1-2.3C145.5,701.8,149.5,702.5,151.8,703.6L151.8,703.6z M138.8,724.5c5.8,3.2,9.5,8.8,8.7,13.3
	c-0.5,2.7-1.8,2.1-3.4-1.7c-1.3-2.9-2.5-4.2-6.2-6.3c-4-2.2-5.7-2.5-11-2.6c-3.4,0-6.3-0.3-6.3-0.7s1.2-1.4,2.6-2.4
	C126.9,721.5,133.8,721.7,138.8,724.5z M135.9,731.3c4.5,2.3,7.7,6.1,7.7,9.3c0,2.5-1.9,2.4-10.5-0.8c-3.9-1.5-7.8-2.6-8.6-2.6
	c-1.7,0-4-3.2-4-5.4C120.5,727.8,128.6,727.6,135.9,731.3z"/>
<path id="creste" inkscape:label="creste" d="M731.5,537.7c-1.1,0.6-3.1,2.3-4.7,3.8c-2.4,2.5-2.9,2.6-5.8,1.5
	c-5.8-2.3-9.3-1.7-11.2,2c-2.9,5.7-3.5,6.2-8.4,7.1c-5.9,1.2-7.6,3.3-6.8,8.7c0.6,3.6,0.3,4.4-2.9,8.2c-1.9,2.3-3.5,5.1-3.5,6.2
	c0,3.4,3.2,6.4,7.3,7.1c2.1,0.3,4.3,1.3,4.7,2c1.5,2.7,9.2,6.8,14.1,7.5c6.8,0.8,11.1-0.2,15.4-4c4.8-4.1,9-6,14.9-6.8
	c6.4-0.9,11.2,0.9,14.5,5.7c1.5,2.1,3,4.2,3.6,4.6c1.7,1.3,7.6,0.9,15.2-0.8c6-1.5,7.8-2.4,10.6-5.8c1.9-2.1,4.8-4.3,6.3-4.7
	c1.7-0.4,3.5-1.2,4.2-1.8c1.9-1.7,1.4-6.5-1.3-9.1c-1.9-1.9-2.4-3.5-2.4-7.4c0-6.6-1.9-9.2-7.1-9.7c-3.7-0.3-4.3-0.7-6.3-4.8
	c-2-3.9-2.7-4.4-5.6-4.4c-1.8,0-4.7,0.7-6.2,1.6c-3.5,2-4.9,1.4-8.7-3.8c-3.7-4.8-6.7-5.3-12.8-1.9l-4,2.2l-4.7-2.2
	C734.3,536.1,734.1,536.1,731.5,537.7L731.5,537.7z M759.6,543.1c4.9,5.7,6,6.1,10.2,4.3c5.3-2.3,7.7-1.9,9.8,1.9
	c1.1,1.9,2,3.9,2.2,4.4s2.4,1.3,5.2,1.6l4.8,0.6l0.3,5.7c0.3,4.6,0.9,6.4,3.2,9.3c2.3,2.8,2.7,3.9,1.8,5c-2.3,3-5.9,1.7-10.5-4
	c-10.7-13.2-18.1-18.5-29.2-20.8c-11.9-2.4-28-0.4-37.6,4.7c-5.9,3.3-9.3,6.5-15.5,15.1c-5.1,7-8.3,9.1-11.4,7.5
	c-2.8-1.7-2.2-5,1.7-8.9c3.1-3.3,3.4-4,3.1-8.5c-0.3-5.5-0.6-5.3,8.2-7.2c1.9-0.4,3.3-1.8,4.8-4.8c2.1-4.6,1.8-4.6,11.2-2.5
	c2.5,0.6,3.8,0.1,7.7-3c2.5-2.1,4.9-3.7,5.3-3.6c0.3,0.2,2.6,1.2,5.2,2.3l4.6,1.9l4.7-2.6c2.5-1.5,5.1-2.7,5.5-2.7
	C755.2,538.6,757.5,540.7,759.6,543.1L759.6,543.1z M758.1,554.4c7.2,1.8,14.5,6.3,19.6,12.1c8.6,9.8,5.4,12.4-3.7,3.2
	c-5.7-5.9-12.4-10.1-15.8-10.1c-3.3,0-2.1,1.7,2.4,3.6c4.2,1.8,14.1,10.4,14.1,12.3c0,0.5-1.7,1.8-3.6,2.9c-2,1.1-4.8,3.2-5.9,4.6
	l-2.3,2.6l-4.3-3.5c-7.3-6-15.8-6.2-25.5-0.5c-3,1.7-5.7,3.2-6.1,3.2s-2.9-1.7-5.7-3.7c-3.1-2.3-6.7-3.9-9.6-4.3
	c-7.8-1.1-7.9-1.7-2.4-8.5c5.4-6.6,12-10.8,20.8-13.3C736.2,553.2,752,552.8,758.1,554.4L758.1,554.4z M718.1,582.3
	c7.7,4.3,7.4,6.2-0.8,6.1c-4.5,0-7.5-0.7-10.4-2.3c-4.7-2.6-5.5-3.8-4.8-6.2C703.1,577.3,711.4,578.6,718.1,582.3L718.1,582.3z
	 M785.9,579.1c0.9,0.3,1.6,1.4,1.6,2.2c0,2.9-19.5,10.2-21.6,7.9C761.6,584.7,778.6,576.1,785.9,579.1z"/>
<path id="gnocchi" inkscape:label="gnocchi" d="M598,538.2c-2.6,0.1-3.7,0.9-6.6,3.7c-3.9,3.9-4.2,4-6.7,2.4
	c-3.5-2.4-10.7-2.3-13,0.1c-0.9,1.1-2.1,3.4-2.6,5.3c-0.5,1.8-2.5,4.5-4.4,6.2c-3.5,2.7-3.7,3-3.8,13.1v10.2l4.2,3.3
	c2.5,1.9,4.4,4.1,4.4,5c0,4.7,9.5,7.8,15.3,4.9c1.5-0.8,2.5-0.8,2.9,0c1.4,2.1,9.9,5.5,13.5,5.5c2.6,0,4.7-1,7.2-3.5
	c3.4-3.5,3.4-3.5,6.8-1.7c3.9,2.1,9.8,2.4,13.3,0.7c1.3-0.7,3.5-3.8,5.1-7c1.5-3.3,3.7-6.2,4.6-6.5c3.4-1.2,4.4-6,3.2-14.4
	c-0.9-6.3-1.8-8.3-4.7-11.2c-2-2-3.7-4.4-3.7-5.4c0-1.1-1.3-3.2-2.9-4.7c-3.1-3-9.4-3.8-13.7-1.7c-1.8,1-3.1,0.7-6-1.2
	c-2-1.4-6-2.7-9.3-3C599.9,538.3,598.9,538.2,598,538.2L598,538.2z M599.3,541.7c0.3,0,0.5,0,0.8,0c2.8,0.3,3.1,0.9,3.4,5.9
	c0.1,3,0.6,6.3,0.9,7.2c1.1,2.8,2.8-1.1,2.8-6.4c0-2.5,0.5-4.7,1.2-4.7c2.9,0,3.8,5.2,3.3,23.1c-0.2,15.1-0.7,19.2-2.5,22.1
	c-4.2,7.4-10.5,8.5-16.7,3c-2.9-2.5-2.9-2.8-2.9-20.1c0-9.6,0.6-19.5,1.2-21.9C592,544.9,595.4,541.7,599.3,541.7L599.3,541.7z
	 M622.5,544.8c2,0,4,0.5,5.5,1.6c2,1.4,2.2,3.3,2.6,20.8c0.4,18.3,0.2,19.4-2.1,22.3c-3.1,3.5-7.3,3.9-10.6,0.8
	c-2.1-2-2.4-3.7-2.4-21.7c0-11.3,0.5-20.3,1.2-21.6C617.6,545.5,620,544.8,622.5,544.8L622.5,544.8z M578.2,545.3
	c1.8,0,3.7,0.9,5.9,2.6c1.8,1.4,2,3.9,2,18.7c0,19.6-1.3,24.7-6.4,24.7c-4,0-7.8-3.7-7.9-7.5c-0.4-7.2-0.4-13.6-0.1-23.8
	c0.2-9.2,0.6-11.1,2.7-13.1C575.6,545.9,576.8,545.3,578.2,545.3L578.2,545.3z M634.7,557.3c0.4,0,0.9,0.4,1.6,1
	c1.1,1,2.1,4.4,2.5,8.3c0.6,6.7-1.2,12.6-3.2,10.8c-0.8-0.8-1.8-15.6-1.3-19.8C634.3,557.4,634.5,557.3,634.7,557.3L634.7,557.3z
	 M566.8,558.5c1.1,0.2,1.6,3.6,1.6,10c0,9.6-0.6,11.4-3.2,9.4c-1.9-1.6-2.1-14.5-0.2-17.7C565.7,559,566.3,558.4,566.8,558.5z
	 M605.4,566.9c-0.9,0-1.6,2.5-1.6,6.8c0,3.7,0.5,6.7,1.1,6.7c1.4,0,2.9-9.3,2-11.6C606.3,567.4,605.8,566.9,605.4,566.9L605.4,566.9
	z"/>
<path id="conchiglie" inkscape:label="conchiglie" d="M449.5,542.4c-2.8,0-5.7,0.1-8.6,0.4c-9.1,0.9-18.3,3.2-23.3,5.8
	c-4.7,2.3-11.9,9.8-14.9,15.1c-2.6,4.8-1.9,7.1,2.5,8c4.4,0.8,7.1,2.6,13.2,8.7c3.4,3.4,7.9,6.9,11.3,8.5c5,2.4,6.5,2.7,15,2.7
	c8.3,0,10.1-0.3,15-2.6c3-1.4,8.4-4.6,11.8-7.1c6.9-5,10.7-7,16.8-8.5c4.2-1,6-3.4,5.1-6.7c-1-3.9-15.2-17-22.3-20.4
	C466.2,543.8,458.1,542.4,449.5,542.4z M451.2,544.7c0.2,0,0.5,0,0.8,0.1c1.6,0.2,2.2,1.1,2.5,3.8c0.6,4.4,2.3,4.9,2.6,0.8
	c0.3-2.6,0.7-3,3-3c3,0,12.5,3.8,13.5,5.5c0.5,0.7-0.2,1-1.6,1c-1.3,0-6.4,1.2-11.5,2.8c-11.9,3.6-16.4,3.6-26.6-0.4
	c-4.5-1.8-9-3.3-10-3.4c-3.8-0.7-2.5-2.6,2.6-4.1c7.2-2,9.6-1.7,9.2,1.6c-0.2,1.9,0.2,2.6,1.2,2.6c0.8,0,1.4-0.8,1.4-1.8
	c0-2.5,2.5-4.7,5.4-4.7c2.4,0,2.4,0.1,1.9,4.6c-0.5,3.5-0.3,4.6,0.7,4.6c0.8,0,1.5-1.7,2-4.5C449.2,545.6,449.5,544.6,451.2,544.7
	L451.2,544.7z M419.5,554.2c3.5,0,7.9,1.2,14.3,3.9c9.4,3.8,14.8,4.1,23.8,1.4c15.3-4.7,21.4-4.1,28.6,3c5.7,5.6,5.5,6.9-1.8,7.5
	c-3.3,0.3-9.4,1.6-13.6,2.9c-4.2,1.2-12.2,3-17.8,3.8c-12.9,2-20.1,1.1-32.1-4.2c-4.7-2-9.3-3.7-10.3-3.7c-3.2,0-6-1.1-6-2.3
	c0-2.1,6-9,9.4-10.9C415.7,554.7,417.5,554.2,419.5,554.2L419.5,554.2z M418.1,575c0.5,0,1.8,0.4,3.3,1.1c1.9,0.9,5,2,6.8,2.4
	c5.9,1.1,6.4,1.4,7,4.7c0.8,4.3,0.2,5.1-3.3,3.9c-2.9-1-14-10.5-14-12C417.9,575,418,575,418.1,575z M473.7,575.5
	c0.4,0,0.6,0,0.6,0.1c0,0.5-10.6,8.5-13,9.8c-3.5,1.9-5,0.7-4-2.8c0.5-1.6,1.1-3.2,1.4-3.4C459.7,578.3,470.9,575.6,473.7,575.5z
	 M454,579.1c0.5,0,0.6,1.7,0.3,3.7c-0.9,6.9-6.3,9-6.3,2.5C448,580.8,449.1,579.7,454,579.1z M440.8,580.9c0.4,0,0.9,0,1.4,0.1
	c2.4,0.2,3.6,0.7,3.8,1.9c0.2,0.9,0.1,2.7-0.2,4c-0.5,1.8-1.2,2.2-3.8,2.2c-2.9,0-3.2-0.3-3.8-3.2
	C437.4,582.1,437.9,580.9,440.8,580.9L440.8,580.9z"/>
<path id="farfalle" inkscape:label="farfalle" d="M324.3,539.7c-2.8,0.1-6,1.1-10.5,3.2c-3.8,1.8-9.2,5-11.9,7
	c-8.6,6.4-14.3,6.9-22.4,2.1c-16.2-9.5-19.8-10.9-26.4-10.9h-6.6v4.9c0,4.5-0.2,5-2.5,5.8c-3.3,1.2-3.4,4.5-0.3,5.8
	c3.1,1.3,2.9,2.2-0.7,4c-4.4,2.2-4.4,5.2,0,7.4c3.3,1.7,3.4,1.9,1.7,3.2c-4,2.9-4.3,3.4-3.2,5.5c0.5,1.1,2,2.4,3.3,3
	c1.9,0.7,2.1,1.2,1.2,2.4c-0.6,0.7-0.9,2.6-0.7,4.2c0.3,2.8,0.4,2.8,6.8,2.7c7.2,0,10-1.3,23.6-10.2c11-7.4,15.2-7.1,26.1,1.3
	c5.7,4.5,14.6,9.2,18.8,10c8.1,1.6,13.4-2.1,10.4-7.2c-0.8-1.3-1.4-2.6-1.2-2.7c0.2-0.1,1.4-0.7,2.9-1.4c3-1.4,3.3-4.6,0.6-6.2
	c-2.5-1.5-2.3-2.6,0.7-4.2c1.5-0.8,2.5-2.1,2.5-3.3s-1-2.5-2.5-3.3c-3.1-1.6-3.2-2.3-0.7-4.7c2.8-2.7,2.3-5.4-1-6.7
	c-2.3-0.9-2.7-1.4-2.2-3.2c1.8-5.9,1.7-6.5-0.9-7.6C327.5,539.9,326,539.6,324.3,539.7L324.3,539.7z M324.5,542.6
	c4.8,0,5.6,1,3.2,4.3c-2.7,3.6-2.3,5.6,0.9,6.3c3.2,0.7,3.6,2.8,0.8,4.4c-2.4,1.5-2,5.2,0.8,6.5c2.6,1.2,2.6,2.8,0,4
	c-2.9,1.4-3.2,4.5-0.7,6.5l2,1.6l-2.4,1.7c-2.8,2-3,3.8-0.9,7.1c1.3,2.3,1.3,2.5-0.6,3.1c-4.3,1.5-15.1-2.4-22.2-8
	c-14.1-11.2-21.6-11.5-33.5-1.5c-7.2,6.1-19.7,11-23.6,9.4c-1.8-0.8-1.8-1.1,0.5-4.1c2.1-2.9,1.4-4.7-2.3-5.7c-3-0.8-3-1.9,0-4
	c3.1-2.2,3-4.2-0.6-6.5c-3.4-2.3-3.3-3.3,0.5-4.6c3.5-1.2,4.4-4.8,1.6-6.5c-2.4-1.4-2.5-2.7-0.1-3.5c2-0.7,2.4-3.5,0.9-6.6
	c-0.6-1.1-0.7-2.4-0.5-2.9c0.9-1.7,7.1-1.1,13.4,1.4c3.3,1.2,8.7,4.1,12,6.4c11.4,8,18.4,8.1,30.1,0.3
	C314,545.1,319.7,542.6,324.5,542.6L324.5,542.6z M267.8,555.7c-0.5,0-0.4,0.5-0.4,1.2c0,4.1,19.3,7.6,30.6,5.7
	c7.9-1.4,13-3.3,13-5.1c0-0.7-0.6-0.8-1.6-0.4c-0.9,0.4-5,1.4-9.1,2.2c-9,1.9-19,1.2-26.8-1.7C269.9,556.2,268.4,555.7,267.8,555.7z
	 M282.3,566c-1,0-1.8,0-2.4,0.2c-1,0.2-4,0.9-6.7,1.5c-2.6,0.5-5.3,1.7-5.8,2.5c-1.4,1.8-1.3,1.8,7.7-0.2c6.5-1.4,8.8-1.5,16.8-0.4
	c5.2,0.6,11,1.8,13.1,2.6c2,0.7,4.3,1.4,4.9,1.4c1.7,0,1.4-1.8-0.6-2.9C306,568.7,289.3,566.1,282.3,566L282.3,566z"/>
<path id="pipe" inkscape:label="pipe" d="M111.5,539.4c-16.3,3.1-20,6.9-19.1,19.6c1.2,18.3,10.6,27.2,31.8,30.2
	c9.5,1.3,20.9-0.1,28.6-3.7c6.9-3.1,15.8-11.9,17.2-17.1c1.6-5.7,1.4-17-0.4-20.3c-2.3-4.6-4.2-4.6-10.6-0.1c-3.2,2.2-6.9,4-8.4,4
	c-4.2,0-8.3-2.7-10.5-7c-1.1-2.2-2.8-4.4-3.9-4.9C133,538.3,119.1,538,111.5,539.4L111.5,539.4z M134.1,541.9c3.7,1,3.9,5.2,0.5,7.9
	c-6.8,5.4-25,8.8-32.8,6.3c-7.2-2.4-8-7.4-1.7-10.6C107.2,541.8,126.5,539.8,134.1,541.9L134.1,541.9z M166.1,548.6
	c0,3-2.2,5.6-7.9,9.3c-7.3,4.7-16.6,7.6-21.5,6.7c-4.3-0.8-4.8-3.3-0.8-4.1c8.5-1.9,16.9-5.3,22.5-9.1
	C165.2,546.6,166.1,546.3,166.1,548.6L166.1,548.6z M142.9,551.9c4,3.4,3.4,3.9-7.1,5.7c-3.1,0.5-4.1,1.3-5.7,4.4
	c-1.1,2.2-3.1,4.2-4.9,5c-1.7,0.7-3.1,1.6-3.1,2.1c0,1.5,3.1,1,6.5-1.1c2.6-1.6,3.7-1.8,6.8-0.9c7,1.9,22.1-3.7,29.3-10.8
	c1.8-1.7,3.5-2.9,3.8-2.6c0.9,1,0.7,9.4-0.4,13.4c-1.3,4.6-9.2,12.6-15.5,15.5c-11.1,5.2-27.7,5.6-40,1c-8.4-3.2-12.7-6.4-14.9-11.1
	c-2-4.1-3.8-13.7-2.8-14.7c0.4-0.3,3.3,0,6.6,0.9c4.8,1.2,7.3,1.3,14.5,0.3c8.5-1.1,17.6-4.5,20.1-7.5
	C137.8,549.5,140.1,549.7,142.9,551.9L142.9,551.9z"/>
<path id="spighe" inkscape:label="spighe" d="M705.8,377.8c-1.4,3.6-2.6,4.6-5.8,4.6c-1.3,0-3.5,1.2-4.8,2.7c-1.8,2-3.4,2.7-6.6,2.7
	c-5.1,0-7.7,2.5-9.3,8.6c-1.3,5.2-0.5,12.6,2.2,19.2c2.3,5.4,2.5,8.8,0.8,10.5c-0.7,0.7-0.9,1.9-0.6,2.9c0.5,1.4,5.5,1.7,12.8,0.7
	c0.6,0,3.1-1.8,5.5-3.9l4.2-3.6l3.8,2.6c5.3,3.5,13,5,20.4,3.7c7.1-1.2,7.9-2,8-7.2c0.1-3.5,0.4-4.1,3.5-4.8
	c2.9-0.9,3.3-1.4,3.3-4.6c0-3,0.5-4,3.1-5.4c3.5-1.9,3.8-3.5,1.4-8.2c-1.4-2.9-1.4-4.2-0.4-9.3c0.6-3.3,1-7.5,0.8-9.2
	c-0.3-2.8-0.8-3.2-3.8-3.5c-2-0.2-5.6,0.4-8,1.4c-4.2,1.7-4.5,1.7-7.1-0.4c-2.4-1.9-4.2-2.2-12.5-2.2
	C707.3,374.9,707.1,374.9,705.8,377.8L705.8,377.8z M722,378c0.4,0.5,0.3,1.8,0,2.8c-0.9,2.5-13.1,1.9-13.6-0.7
	c-0.2-1,0.5-1.9,1.5-2.2C713.4,376.8,721.5,377,722,378z M729.1,381.5c3.2,5.2,4,9.6,2.4,12.3c-0.9,1.3-2.1,2.5-2.6,2.5
	c-1.2,0-5.8-10.8-5.3-12.8c0.4-1.9,2.2-4.3,3.2-4.3C727.2,379.2,728.2,380.2,729.1,381.5L729.1,381.5z M745.3,382.8
	c0,1.9-0.5,5-1.1,7c-0.9,2.8-1.5,3.3-3.4,2.7c-3.1-1-5.6-3.6-6.3-7.1c-0.6-2.4-0.2-3.1,2.3-4.5c1.5-0.9,4.1-1.6,5.8-1.7
	C745,379.2,745.3,379.6,745.3,382.8L745.3,382.8z M706.8,385.6c1.4,0,2.5,0.6,2.5,1.5c0,1.1-1.1,1.3-4.8,0.9c-2.8-0.2-5.2-0.7-5.5-1
	c-0.8-0.7,2.6-2.5,3.9-1.9C703.7,385.4,705.4,385.6,706.8,385.6L706.8,385.6z M720.8,388.7c1.4,1.6,3.1,4.6,3.9,6.4
	c1.2,3.2,1.1,3.6-1.5,6.5c-1.6,1.8-3.5,3.2-4.2,3.2c-1.3,0-7.6-10.8-7.6-13.2s3.1-6.1,5.2-6.1C717.5,385.6,719.5,387,720.8,388.7
	L720.8,388.7z M698.9,391.4c0,0.1-0.5,1.8-1.1,3.6c-0.8,2.6-0.7,5.5,0.6,12.5c1,5,1.6,9.3,1.4,9.5s-3.4,0.6-6.9,1l-6.6,0.5l-2-4.4
	c-1.2-3.1-2-7-2-12.2c0-9.8,1-11,9.9-11C695.9,390.9,698.9,391.2,698.9,391.4z M707.4,392.8c0.8,1.1,3.1,4.8,4.9,8.4l3.4,6.3
	l-4.5,4.1c-2.5,2.2-5.2,4.1-5.9,4.1c-2,0-4.2-6.4-4.9-13.8c-0.6-5.5-0.4-6.5,1.5-8.6C704.6,390.4,705.4,390.4,707.4,392.8z
	 M740.1,396.2c7.1,3.9,8.1,7.6,1.9,7.6c-3.1,0-10-3.4-10-5c0-0.7,3.2-4.6,3.8-4.6C736,394.2,737.9,395.1,740.1,396.2L740.1,396.2z
	 M735,404.8c5.6,3.5,6.4,7.4,1.9,8.9c-2.3,0.9-4,0.4-8.5-1.7c-3.1-1.5-5.9-3.2-6.2-3.7c-0.7-1.2,5.2-6.5,6.9-6.4
	C729.9,401.8,732.5,403.1,735,404.8z M725.5,413.6c6.6,3.9,7.4,4.7,7.4,8c0,5-13.4,6-21.6,1.6c-2.1-1.2-3.7-2.8-3.7-3.7
	c0-1.7,8.5-9.2,10.6-9.2C719,410.2,722.2,411.7,725.5,413.6L725.5,413.6z M698.9,421.9c0,3.5-10.2,7.2-11.9,4.3
	c-1.4-2.2,2.7-5.2,7.4-5.2C696.9,420.9,698.9,421.3,698.9,421.9z"/>
<path id="fiori" inkscape:label="fiori" d="M579.5,376.4c-2.5,1.1-4.9,5.8-4.9,9.7c0,2.1-1.2,4.1-4.2,7.3c-3.7,4.1-4.2,5-4.2,9.1
	c0,4,0.5,5.1,3.8,9c3.5,4,3.7,4.7,3.2,8.2c-0.5,3-0.2,4.4,1.4,6.4c2.8,3.8,7.7,4.8,23.2,4.9c21.5,0.2,27.6-2.2,28.7-11.1
	c0.5-3.3,1.1-4.5,3.1-5.5c8.1-4.5,8.6-15.1,0.9-20c-2.1-1.3-2.8-2.5-2.8-4.5c0-4.5-2.4-9.4-5.3-11c-1.8-1-7.3-1.7-16.6-2.1
	c-7.6-0.3-16.3-0.8-19.1-1.1S580.6,375.8,579.5,376.4L579.5,376.4z M592.2,379.2c1.8,1.2-1.6,3.1-5.4,3.1c-2,0-2.9,0.5-2.9,1.5
	s1,1.5,3.3,1.5c3,0,3.3,0.2,3.3,3c0,3,0,3-5.2,3c-6.5,0-8.8-1.2-8.8-4.7c0.1-5,3.8-8,10.3-8.1C589,378.3,591.5,378.7,592.2,379.2
	L592.2,379.2z M622.6,382.8c4.6,4.7,1.7,12.4-4.6,12.4c-3.5,0-9-3.4-9-5.3c0-2.5,1.9-7,3.5-8.3C615.2,379.4,620.1,380,622.6,382.8
	L622.6,382.8z M605.4,383.2c1.4,2.9,1.1,8.6-0.6,10.4c-2.2,2.4-6,1.9-9-1.1c-3.1-3.1-3.4-6.4-0.7-9.2
	C597.6,380.6,604,380.5,605.4,383.2L605.4,383.2z M580.5,393.8c3.5,0.6,4.1,0.9,3.3,2c-0.6,0.8-2.5,1.4-4.3,1.4
	c-3.7,0-3.8,2.1-0.2,3c1.7,0.5,2.2,1.3,2.3,3.5c0,1.7,0.4,4.2,0.7,5.6c0.7,2.7,0.7,2.8-3.1,2.8c-8,0-12.5-5.3-10.4-12.3
	c1-3.5,4-6.5,6.2-6.5C575.7,393.2,578.1,393.5,580.5,393.8L580.5,393.8z M594.6,396.5c3.8,1.7,5.3,4.5,4.6,8.4
	c-0.8,4.1-2.5,5.3-7.3,5.4c-7.8,0.2-10.7-6.6-5.3-12.4C589.8,394.8,590.3,394.7,594.6,396.5z M611.8,397.2c3.3,1.2,4.8,3.5,4.8,7.2
	c0,6.3-9.1,9.1-13,4c-3.1-4.2-2.2-8.3,2.2-11.1C608.2,395.9,608.2,395.9,611.8,397.2L611.8,397.2z M631.1,398.5
	c5.2,4.6,2.4,13.4-4.3,13.4c-3.9,0-6.5-2.9-7.2-7.7c-0.4-3.2-0.1-4.6,1.1-6.1C623.1,395.3,627.9,395.5,631.1,398.5L631.1,398.5z
	 M603.2,413c1.4,0.5,2.9,1.6,3.3,2.2c2.7,4.5-2.1,12.6-7.5,12.8c-7.7,0.2-10.1-11-3-14.7C598.9,411.7,599.9,411.7,603.2,413z
	 M621.9,414.1c4.8,4.7,1.1,12.7-5.9,12.7c-3.7,0-6-2.9-6-7.6c0-2.7,0.6-3.7,3.1-5.2C616.9,411.4,619.2,411.5,621.9,414.1z
	 M588.6,416c0,0.6-1.1,0.9-2.5,0.7c-3.6-0.4-3.5,2.5,0.2,3.2c2.6,0.5,3.8,2.5,4.1,6.8c0.2,2.1-10.4,1-13-1.4c-2.1-2-2.4-5.4-0.9-8.5
	c0.8-1.5,2.1-1.9,6.5-1.9C586.3,414.9,588.6,415.3,588.6,416L588.6,416z"/>
<path id="ruote" inkscape:label="ruote" d="M470.7,375.4c-7.1,0-13.9,0.6-16,1.8c-4.3,2.3-11.3,9.8-13.6,14.3
	c-2.8,5.8-3.3,11.4-1.5,17.9c2.4,8.9,6.4,13.8,14.3,17.8c6.3,3.2,7.5,3.4,16.3,3.3c11.4-0.1,21.8-3.1,26.9-7.4
	c4.9-4.2,8.9-11.4,9.7-17.3c1.5-11.2-7.4-25.5-17.9-28.8C485.3,376.1,477.8,375.4,470.7,375.4L470.7,375.4z M480.5,378.4
	c3.5,0.1,7.1,1.1,10.7,3.1c11.7,6.1,16,19.5,10,31.8c-2.4,5-4.5,7-10.1,9.6c-13.2,6.3-28.8-3.2-31.4-19.2
	c-1.3-7.7,0.2-13.5,4.8-18.1C469.3,380.7,474.8,378.3,480.5,378.4L480.5,378.4z M463.3,378.7c1.6,0,2.8,0.4,2.8,1.1
	c0,2-6.4,5.3-10.2,5.3c-5,0-5.6-1.6-1.6-4.2C456.5,379.4,460.6,378.6,463.3,378.7L463.3,378.7z M481.1,381.9
	c-4.2-0.1-8.4,0.6-10.6,2.1c-6.8,4.3-10.7,15-8.4,22.5c1.5,4.5,8.2,12.9,12.4,15.2c6.3,3.4,16.5,1.3,22.1-4.6c4.4-4.5,5.8-9.1,5-16
	c-1.1-9.4-4.3-14.2-11.6-17.5C487.6,382.4,484.3,381.9,481.1,381.9L481.1,381.9z M479,384.1c2.7,0,5.9,0.3,8,1.1
	c1.7,0.6,3.1,1.7,3.1,2.3c0,1.9-5,8-6.3,7.6c-0.6-0.2-2.4-0.6-3.9-0.9c-3.4-0.8-7.8-7.8-5.7-9.2C475.1,384.4,476.9,384.1,479,384.1z
	 M452.1,388.2c3.2,0,6,0.3,6.4,0.6c0.8,0.8-1.4,5.7-2.7,5.8c-2.1,0.3-12.1-0.3-12.5-0.7c-0.2-0.2,0.4-1.6,1.3-3.1
	C446,388.5,446.9,388.2,452.1,388.2L452.1,388.2z M469.8,388.2c0.7,0,2.2,1.7,3.4,3.7c3,5.1,1.5,7.9-4.1,7.9c-2.5,0-4.2-0.5-4.5-1.6
	C463.9,396.3,468.1,388.2,469.8,388.2z M494,389.4c0.9,0,1.6,0.7,2.7,2.4c0.8,1.5,1.4,3.7,1.2,5.1c-0.2,2-1,2.4-4.6,2.7
	c-6,0.4-6.7-3.3-1.6-8.6C492.7,389.9,493.4,389.4,494,389.4L494,389.4z M479.9,396.7c1.2,0,2.5,0.6,3.6,1.9c2,2.3,1.4,5.9-1.1,6.9
	c-2.1,0.8-6.3-2.1-6.3-4.4C476.2,398.3,477.9,396.7,479.9,396.7L479.9,396.7z M445.4,397.8c0.9,0,2.1,0,3.5,0.1l6.7,0.3v3.7v3.7
	l-6.2,0.3c-5.4,0.3-6.3,0-7.3-1.9c-0.6-1.2-0.8-3.2-0.5-4.3C442.1,398.3,442.7,397.8,445.4,397.8z M467.3,402.4
	c2.3,0,5.4,0.8,7.1,2.4c2.3,2.1,2.2,3.8-0.7,7.3l-2.4,3l-2.2-2.1c-2.3-2.1-5-7-5-8.9C464.2,403.1,465.5,402.5,467.3,402.4
	L467.3,402.4z M493.4,403c3.3,0,5,0.5,5.4,1.6c0.8,2.1-1.4,8.6-3.1,9.4c-0.8,0.3-2.9-1.3-4.9-3.7C485.5,404.1,486,403,493.4,403z
	 M448.9,408.2c2.6,0,5.8,0.3,6.9,0.6c2,0.5,4.4,4.3,4.4,6.7c0,0.6-3.1,1.1-7,1.1c-6.3,0-7.1-0.2-8.6-2.6
	C442.1,409.9,443.4,408.2,448.9,408.2L448.9,408.2z M483.3,409c2.1,0.1,3.9,1.7,5.7,4.9c1.6,2.8,1.6,3.1-0.2,4.5
	c-2.5,1.9-12,2-13.4,0.1c-1.5-1.8,2.3-7.7,5.8-9.1C481.9,409.1,482.6,409,483.3,409z M455.3,419.8c3.1-0.1,7.3,0.6,9.8,2
	c2,1.2,4.4,2.8,5.2,3.9c1.3,1.7,1,1.8-4.7,1.3c-6.3-0.6-14.9-4.4-13.9-6.1C452,420.3,453.4,419.8,455.3,419.8z"/>
<path id="maccheroni" inkscape:label="maccheroni" d="M291,377.2c-2.7,0-5.8,0.6-9.5,1.6c-2.9,0.8-7.1,3.1-9.6,5.2
	c-5.6,4.7-5.7,7.8-0.7,17.3c13.1,24.6,51.1,34.8,79.2,21.2c10-4.8,20.1-13.7,24.4-21.8c4.5-8,4.9-12.2,1.6-16
	c-4-4.6-10.4-6.9-19.2-7h-8l-7.4,7c-5.3,5.1-8.6,7.4-11.8,8.2c-10,2.6-16.7,0.4-23.9-7.8C301.4,379.6,297,377.1,291,377.2L291,377.2
	z M357.1,380.2c3.6,0,7.6,0.4,10,1.4c2,0.7,4.9,2.7,6.5,4.3c2.6,2.5,2.9,3.3,2,5c-2.1,3.4-9.8,3.1-18.4-0.6
	c-6.8-2.9-9.9-6.4-7.9-8.7C350.2,380.8,353.5,380.3,357.1,380.2L357.1,380.2z M290.5,380.3c3.6,0,6.9,0.4,8.2,1.2
	c2.8,2,1.4,6-3.1,8.5c-2.1,1.1-7,2.7-11,3.6c-6.1,1.3-7.7,1.3-10.3,0.3c-6-2.7-2.8-9.4,5.8-12.1
	C282.9,380.8,286.8,380.3,290.5,380.3L290.5,380.3z M291.1,382.3c-2,0-4.6,0.5-7.5,1.5c-6.7,2.2-10.4,6-7.4,7.7
	c2.2,1.2,16.1-3.3,17.9-5.7C295.7,383.5,294.3,382.2,291.1,382.3L291.1,382.3z M356.6,382.4c-1,0-1.7,0.2-2.1,0.5
	c-2.1,1.8-0.4,3.6,5.1,5.9c7.2,3,13.1,3,13.1-0.1c0-1.3-1.4-2.6-4.1-3.7C365.2,383.4,359.7,382.3,356.6,382.4z M345.7,385.8
	c0.5,0,1,0.4,1.7,1c1.1,0.9,2,2.4,2,3.3c0,4-13.1,12.3-22.3,14c-5.5,1.1-7,1-11.9-0.6c-6.9-2.2-10.8-4.6-14-8.6
	c-2.1-2.7-2.2-3.4-1-5.4c0.9-1.3,2-2.4,2.5-2.4s3.2,1.8,5.7,3.8c10.3,8.6,22.6,7.7,33.2-2.3C343.9,386.6,344.9,385.7,345.7,385.8
	L345.7,385.8z M353.4,392c0.1,0,2,0.8,4.1,1.7c2.1,0.9,3.8,2,3.8,2.3c0,0.4-1.7,2.8-3.9,5.4c-5.5,6.3-15.2,11.8-24.4,13.7
	c-10,2.1-15.8,2-24.7-0.5c-6.5-1.9-8.4-3-14.8-8.9c-4.1-3.7-7.4-7.4-7.4-8.1s2.3-2.1,5.2-3c4.9-1.7,5.1-1.7,6.2,0
	c4.6,7.4,17.7,13.6,27,12.8c7.1-0.6,17.9-5.6,23.8-10.9C350.9,394,353.2,392,353.4,392L353.4,392z M369.5,396c2.1,0,4,0.5,4.4,1
	c1.2,1.8-8.1,12.4-14.9,17.3c-12.4,8.8-21.2,11.4-36.3,11.4c-20,0-37.4-7.8-46.6-20.7c-3.7-5.3-3.9-8-0.8-8c3.7,0,6.5,1.9,15.2,9.9
	c10.7,9.9,16.8,12.2,31.1,12.2c17-0.1,28.8-5.1,38.8-16.8C365.2,396.8,366.4,396,369.5,396L369.5,396z"/>
<path id="gramigna" inkscape:label="gramigna" d="M128.4,369.6c-5.5,0.9-10,3.7-15.1,8.9c-16.1,17.1-11.5,42.9,9.6,53.3
	c16.5,8,37.1,2,60.3-17.6c12.4-10.4,14.5-17.3,6.7-21.3c-5.9-3.1-8-2.4-14.4,4.4c-14.3,14.9-25.5,20.9-37.6,20
	c-9.2-0.7-13.9-4.1-15.9-11.9c-2.4-8.7,3.7-18.5,11.3-18.5c4.1,0,6,2.5,6,8c0,7.1,3.1,10.7,9.3,10.7c7.6,0,9.3-2.5,9.3-13.2
	c0-9.9-2.7-15.6-9.3-20.3C144.9,369.5,135.7,368.4,128.4,369.6L128.4,369.6z M147.6,375.1c2.9,1.6,8,12.4,7.5,16.1
	c-0.3,2.5-1.3,3.2-6,3.5c-4.9,0.4-5.7,0-5.7-2.1c0-3.6-6-9.6-9.6-9.6c-4.5,0-12.7,7.2-14.4,12.8c-2,5.9-0.9,11.7,3.3,18.1
	c4,6,11.2,8.4,21.7,7.3c8.1-0.8,20-7.7,28.8-16.8l5.1-5.2l4.5,2.7c2.5,1.5,4.5,3.2,4.3,3.7s-4,4.1-8.4,7.9
	c-14.5,12.4-34.9,20.3-47.5,18.1c-8.4-1.5-16.5-7.9-20.7-16.1c-3.1-6.1-3.5-8.5-2.8-15.1c0.3-4.3,1.6-9.6,2.8-11.9
	c3.1-5.9,11.2-13.5,16-14.9C131,372.3,144,373.2,147.6,375.1z M187.8,395.8c2.5,0.9,2.9,4.5,0.5,4.5c-2.9,0-5.5-2.3-4.5-3.9
	C184.9,394.7,185,394.7,187.8,395.8z M152.6,400.3c0,0.7-1.9,1.3-4.1,1.3c-2.3,0-3.7-0.5-3.2-1.3c0.4-0.8,2.3-1.3,4.1-1.3
	C151.2,399,152.6,399.5,152.6,400.3z"/>
<path id="radiatori" inkscape:label="radiatori" d="M879.2,231c-0.8,0.6-1.4,2.7-1.4,4.7c0,3.2-0.7,4.2-4.7,7.1l-4.7,3.3v7.3
	c0,7.3,0,7.4,4.1,10c3.2,2,4.1,3.3,4.1,5.4c0,7.5,7.6,10.6,10.5,4.4c0.7-1.4,1.3-3.9,1.3-5.4c0-2.3,0.6-3,2.8-3.4
	c4.1-0.7,5.4,0.2,5.4,3.6c0,3.1,1.8,6.2,4,7.3c4.1,2,9-0.6,9-4.9s1.1-5.5,4.7-5.5c3.1,0,3.4,0.3,4.6,4.4c1.7,5.2,3.1,6.6,6.5,6.6
	c3.8,0,5.4-1.6,5.4-5.1c0-4,2.2-6.2,6-5.8c2.5,0.3,2.8,0.8,3.2,4.1c0.5,4.4,1.9,6,5.7,6c3.3,0,4.4-1.1,5.2-5.5
	c0.5-2.9,1.1-3.4,3.7-3.7c4.1-0.3,7,1.9,7,5.3c0,3.6,3.6,6,7.6,5.3c3.1-0.5,3.4-1.1,4.9-7.6c0.5-2.3,1.5-3.5,3.6-4.2
	c3.8-1.2,5.3-4.8,5.3-12c0-5.6-0.1-6-4.1-8.6c-3.3-2.2-4.1-3.4-4.1-6c0-4.7-1.8-6.5-6.4-6.5c-4.5,0-5.4,1-5.4,5.8
	c0,4.6-1.3,5.6-6.3,4.9c-4.5-0.6-5.6-1.7-5.6-6c0-3.3-2.2-4.9-6.6-4.5c-3,0.3-3.4,0.7-4.6,4.9c-0.8,3.4-1.8,4.8-3.3,4.9
	c-3.4,0.5-5.6-1.4-5.6-5c0-3.5-2.4-5.9-5.9-5.9c-3.3,0-5.6,2.1-6.5,6.1c-0.5,2-1.4,3.9-2.1,4.3c-2.7,1.2-5.2-0.9-5.9-4.9
	c-0.6-4.3-2-5.4-6.9-5.4c-4.1,0-5.6,1.4-6,6c-0.4,3.5-0.6,3.8-3.8,4.1c-4,0.3-5.4-0.9-5.4-5C888.5,231.2,882.9,228.3,879.2,231
	L879.2,231z M885.5,235.4c1.1,3.9,0.1,35.4-1.1,37.4c-0.6,0.9-1.7,1.4-2.4,1.2c-1.4-0.3-2.6-35.8-1.3-39.6
	C881.7,231.5,884.7,232.1,885.5,235.4L885.5,235.4z M906,233.5c1.5,1.1,2.1,34.1,0.7,37.9c-0.8,2.2-4.6,2.6-5.7,0.6
	c-0.4-0.8-0.7-9.4-0.7-19.4c0-17.2,0.5-20.1,3.6-20.1C904.2,232.5,905.1,232.9,906,233.5z M928,235.2c1.4,3.8,0.8,36.8-0.7,38
	c-2.2,1.6-3.1,1.2-4.4-2.2c-1.7-4.2-1.7-33.8-0.1-36S927,232.9,928,235.2L928,235.2z M970.6,234.7c0.4,0.8,0.7,9.7,0.7,19.9
	c0,19.1-0.6,21.4-4.7,19.6c-1.4-0.6-1.7-3.9-1.4-19.3c0.1-10.2,0.6-19.2,0.9-20.1C966.9,233,969.7,232.9,970.6,234.7L970.6,234.7z
	 M948.4,236.5c1.2,3.1-0.5,35.3-1.8,36.3c-0.6,0.4-1.3,0.4-1.8-0.1c-0.9-1.1-1.9-35.7-1.1-37.3C944.8,233.4,947.5,234.1,948.4,236.5
	L948.4,236.5z M877.8,251.1c0,7.7-0.8,10.4-3.1,10.4c-2.6,0-4-3-4-8.9c0-4.5,0.5-6,2.4-7.3c1.4-1,3-1.5,3.6-1.3
	C877.3,244.3,877.8,247.5,877.8,251.1L877.8,251.1z M897.7,249.5c0.6,10.3-2.4,15-7.3,11.4c-1.7-1.2-1.9-2.5-1.3-8.3
	c0.9-8.9,1.2-9.2,5-8.9C897.2,244,897.3,244.2,897.7,249.5L897.7,249.5z M938.3,244.4c2,0.9,2.2,1.9,2.2,9.3c0,8.3,0,8.4-3.1,8.9
	c-5.3,1-6.4-0.6-6.4-9.4c0-6.6,0.4-8.1,2.1-8.8C935.7,243.4,935.6,243.4,938.3,244.4z M918.6,251.6c1.1,8.9,0.4,10.9-3.9,10.6
	c-3.2-0.3-3.2-0.3-3.6-7.8c-0.4-8.9,0-9.9,3.8-9.9C917.7,244.4,917.8,244.8,918.6,251.6L918.6,251.6z M961.6,252.5
	c0.5,10.6-0.1,11.8-4.7,11.1c-2.1-0.3-4.3-1-4.7-1.6c-1.2-1.3-1.3-16.3-0.1-17.1c0.5-0.3,2.7-0.5,5.1-0.3l4.1,0.3L961.6,252.5z
	 M979.1,248c1.4,3.3,1.1,12.4-0.7,13.9c-0.8,0.8-2,1-2.5,0.7c-0.7-0.5-1.5-12.4-1.2-15.8C975,245.3,978.3,246.3,979.1,248z"/>
<path id="gemelli" inkscape:label="gemelli" d="M675.4,234.6c-2.6,1-5.7,4.3-6.7,7.1c-0.5,1.5-1,5.8-1,9.8c0,6,0.2,7.7,1.8,10.8
	c2.1,4.3,6.6,8.4,10.1,9.1c3.1,0.6,10.2-0.7,15.8-3l4.4-1.8l2.3,1.8c1.3,1,4,2.4,5.9,3c3,1.1,4.2,1.1,7.8,0.5
	c2.4-0.5,6.4-1.7,8.9-2.7l4.5-1.9l3.7,2.2c2,1.2,4.9,2.4,6.4,2.6c2.9,0.5,9.2-1,14.3-3.4c3.8-1.8,5.5-1.7,9,0.4
	c5.7,3.4,11.6,3.6,21,0.4c4.8-1.6,5-1.6,9.2-0.4c5.8,1.7,11.3,2.2,13.4,1.2c2.8-1.4,5.7-7.4,5.6-11.7c0-2.1,0.2-5.2,0.5-7.1
	c0.6-4.6-1.4-9.8-5.1-13.5c-3.5-3.3-6-3.6-11.7-1.3l-3.7,1.4l-6.3-1.4c-7.2-1.7-14-1.9-18.9-0.6c-3.1,0.9-4.4,0.9-10.5-0.3
	c-9.1-1.7-12-1.6-18.5,0.4l-5.4,1.7l-5.8-1.9c-5-1.6-6.5-1.8-11.3-1.4c-3,0.3-7.5,1.3-10.2,2.3c-2.6,1-5.7,2.2-6.8,2.6
	c-1.8,0.6-2.4,0.5-4.7-1.3C688.3,234.5,680.3,232.8,675.4,234.6L675.4,234.6z M688,237.5c1.6,0.8,3.7,2.2,4.7,3.2
	c1.6,1.6,1.7,2,0.8,3c-0.5,0.6-3.6,2.2-6.7,3.6c-4.3,1.8-5.7,2.7-6.1,4.1c-0.2,1-0.2,2.1,0.1,2.5c1.2,1.9,4,0.4,10.9-5.7
	c6.9-6,11.5-8.7,17.5-10.3c2.4-0.6,1.7-0.1-4,3.5c-5.4,3.3-10.4,8.1-9.3,9.1c0.4,0.4,2.5-1,5.4-3.6c8.6-7.8,19.6-11.2,26-8.2
	l2.5,1.2l-3.1,2.6c-9.6,8-25.2,20-28.9,22.4c-5,3.1-10.6,4.8-15.8,4.8c-4.6,0-8.2-2.5-10.9-7.7c-1.6-2.9-1.8-4.3-1.7-10.6
	c0.1-6.1,0.3-7.7,1.9-10.1C674.5,235.6,681.1,234.2,688,237.5L688,237.5z M744.1,237.5c0,0.4-0.6,0.9-1.3,1.1
	c-1.9,0.5-15,12-15,13.1c0,1.7,1.9,0.6,7.8-4.9c6.6-6.2,12.4-9.3,17.2-9.3c3.1,0,6.8,1.1,6.8,1.9c0,0.4-3.2,3-7.1,5.9
	c-3.9,2.9-10.5,8.3-14.7,12c-9.2,7.9-13.1,10.3-19.7,11.9c-5.5,1.4-8.8,1.1-12.7-1.1c-4.9-2.8-5.1-2.5,14.6-18.1
	c6.4-5.1,12.5-9.3,15.9-10.8C741.2,236.8,744.1,236.2,744.1,237.5L744.1,237.5z M774.4,237.4c0,0.4-0.8,1-1.7,1.4
	c-1.9,0.9-15.6,12-16,13c-0.9,2.1,3,0,8.6-4.9c9.3-8.1,13.4-9.8,19.7-8.3c2,0.5,3.8,1.2,4,1.6c0.2,0.4-1,1.6-2.5,2.7
	c-1.6,1.1-7.2,5.6-12.6,10.1c-11,9.1-16.3,12.6-23.2,15.2c-7.1,2.6-11.3,2.8-15.5,0.5c-1.9-1.1-3.5-2.3-3.5-2.6
	c0-1.1,22-19.7,30.1-25.4C765.4,238.1,774.4,235.8,774.4,237.4L774.4,237.4z M800.1,240.5c1.5,5.2,3.9,10.8,5.5,12.9
	c0.9,1.1,1.4,2.5,1.2,3c-0.2,0.6-6.1,3.6-13.1,6.8c-15.1,6.8-20.7,8.2-26.5,6.1c-1.9-0.6-4-1.8-4.7-2.5c-1.3-1.3-1.1-1.6,4.3-5.4
	c3-2.3,8.4-6.6,11.9-9.6c8.9-7.7,18.2-14.3,20-14.3C799,237.5,799.6,238.9,800.1,240.5L800.1,240.5z M805.1,238.7
	c3,1.1,6.5,11.3,4.7,13.6c-1,1.2-1.1,1.2-2.6-0.1c-1.7-1.4-4.2-7-5.1-11.3C801.6,238.1,802.2,237.7,805.1,238.7L805.1,238.7z
	 M684.9,251.6c-0.7,0.6-1.5,1-1.8,0.8c-0.8-0.7,0.5-2,1.9-2C686.1,250.4,686.1,250.4,684.9,251.6z M809.3,258.8
	c0.9,0.6,1,1.1,0.2,3.5c-0.5,1.6-1.6,3.6-2.6,4.7c-1.3,1.6-2.2,1.9-5.2,1.8c-4-0.1-8.9-1.4-9.2-2.6c-0.2-0.4,1.4-1.4,3.4-2.2
	c2-0.9,5.5-2.5,7.6-3.6C808,258,807.9,258,809.3,258.8z"/>
<path id="cavatappi" inkscape:label="cavatappi" d="M559.9,223.2c-7.2,1.2-13.5,7-18.1,16.4c-1.2,2.5-2.5,4.6-2.9,4.6
	s-2.3-2.2-4.3-4.8c-8.5-11.7-17.2-16.8-27-16c-8,0.7-11.5,3.8-17.2,15.2c-5.3,10.7-6.4,16.7-4,21.4c3.1,6,14.2,9.3,19.3,5.7
	c1.2-0.8,3.7-4.2,5.5-7.5c1.8-3.3,3.6-6,4-6s2.2,2.8,3.9,6.2c5.9,12,12.1,16.2,23.6,16.3c9.7,0,14.2-3,19.6-13.3
	c2.1-3.9,4.4-7.2,5.1-7.2c0.7,0,2.3,2.3,3.6,5.1c2.6,5.5,6.5,9.4,13.2,13.2c5.8,3.3,9.1,4,14.1,2.6c8.4-2.2,19.8-17.8,21.3-29.3
	c1.3-8.9-3.3-13.5-14.4-14.4c-5-0.4-5.6-0.2-8.9,2.9c-1.9,1.9-4.1,4.6-4.9,6.1c-1.9,3.6-2.9,3.5-4.4-0.2
	C582.1,228.5,570.8,221.4,559.9,223.2L559.9,223.2z M518.7,227.8c4.8,2.3,9.2,6.9,15.2,15.7c5.9,8.8,7.7,10.5,11.6,10.8
	c8.4,0.6,10.5-1.4,2.5-2.5c-6.4-0.9-7.4-3.4-3.8-10.4c3.1-6,7.7-9.2,13.3-9.2c6.7,0,10.2,3.1,16.3,14.5c8.5,15.9,14.7,21,25.5,20.8
	c5-0.1,5.6,0.1,4.6,1.4c-1.9,2.2-6.5,4.3-9.4,4.3c-5.9,0-16.7-7.6-20-14c-3-6-7.8-11.6-11.6-13.6c-3.8-1.9-8.9-1.9-8.9,0.1
	c0,1,1,1.5,2.9,1.5c1.6,0,3.9,0.8,5.1,1.8l2.3,1.9l-2.8,5.2c-1.6,2.9-4.3,6.2-5.9,7.4c-3.9,2.8-11,2.9-14.9,0.4
	c-1.5-1-6.5-6.8-11.1-13c-10.4-14.1-13.9-17.2-20.7-18.6c-4.6-1-5.7-0.9-9.1,0.8c-2.1,1-3.8,1.6-3.8,1.2c0-1.5,3.4-5.4,6.4-7.2
	C506.1,224.7,512.8,225.1,518.7,227.8L518.7,227.8z M569.1,226.4c5.8,1.7,10.9,6.7,15.4,14.8c5,9.2,13.8,16.1,16.7,13.2
	c0.8-0.8-0.2-1.6-3.1-2.8c-5.5-2.2-6.7-4.4-4.5-8.6c0.9-1.8,1.8-3.4,1.9-3.6c0.2-0.2,2,0.8,4.2,2.2c4.2,2.8,11.3,4.7,14.3,3.9
	c5.3-1.4,2.3,8.6-4.4,14.3c-11.9,10.2-23.3,5.1-33.9-15c-2.8-5.5-6.4-10.9-7.9-12s-5.3-2.5-8.5-3.2l-5.8-1.2l3.5-1.5
	C561.2,224.9,564,224.8,569.1,226.4L569.1,226.4z M611,235.1c5.3,2.2,6.9,4.3,5.1,6.5c-2.4,2.9-11.2,1.1-15.8-3.2
	c-2.6-2.4-2.6-2.5-0.8-3.8C602,232.8,605.5,232.9,611,235.1z M510.8,235.7c5.1,2.2,7.3,4.4,16.9,17.3c9.5,12.7,12.6,15.2,19.6,15.2
	c5.2,0,6,1.1,2.2,2.8c-6.2,2.9-17.3,0.4-22.2-4.9c-1.2-1.3-4.1-5.9-6.5-10.3c-3.6-6.4-5.2-8.3-8.8-10.2c-5.1-2.8-12-3.3-12-0.9
	c0,1,1.1,1.5,3.5,1.5c3.9,0,8.5,1.8,8.5,3.4c0,1.6-3.8,7.6-4.9,7.6c-0.5,0-1.4-0.7-2.2-1.6c-1.6-2-8.3-5.4-10.6-5.4
	c-1,0-2.4-0.4-3.2-0.9c-3.1-2,8.5-15.1,13.4-15.1C505.9,234.2,508.7,234.9,510.8,235.7L510.8,235.7z M499.4,255.5
	c5,2.8,6.4,5,4.7,7.1c-3.9,4.6-16-0.7-16.1-7.1C488,251.6,492.4,251.6,499.4,255.5z"/>
<path d="M433.5,252.1c-3.1,0.4-3.4,0.2-3.4-1.7c0-1.1,1.1-4.6,2.5-7.6c2.9-6.4,3-8.1,1.1-11.2c-1.8-2.7-5.4-4.2-10.4-4.2
	c-4,0-8.6,2.2-13,6c-1.9-2.3-9.7-6.2-13.6-6.6c-3.5-0.3-5.1,0-8.3,1.9l-4.2,2.2l-3.7-1.7c-4.8-2.2-6.7-2.2-13.5,0.3
	c-3.1,1.2-5.8,2.1-5.9,2.1c-0.1,0-1.9-1.2-4-2.5c-5.1-3.3-10.3-3.4-16.3-0.1l-4.3,2.4l-3.5-2c-4.5-2.5-6.3-2.5-13.7,0.1
	c-3.3,1.2-6.3,2.1-6.7,2.1c-0.3,0-2-1.2-3.6-2.5c-3.5-2.9-6.1-3.1-12-0.8c-5.2,2-6.3,2-9.9,0.4c-1.6-0.7-4.7-1.4-6.9-1.7
	c-3.3-0.3-4.5-0.1-6.2,1.3c-2.8,2.3-2.7,4.2,0.6,10.2l2.7,5l-2.2,6.9c-2.9,9-2.9,16.5-0.2,18.7c3.5,2.9,7.9,2.1,14.9-2.7
	c1.9-1.2,3.8-2.3,4.2-2.3s1.4,1.2,2.3,2.8c3.1,5.5,8,5.6,16.9,0.5c2.4-1.4,4.9-2.5,5.5-2.5c0.7,0,2.5,1.1,4,2.5
	c2.2,2,3.7,2.5,6.8,2.5c2.8,0,5.1-0.7,7.9-2.5c4.2-2.5,6.2-3.1,6.2-1.8c0,1.3,5.9,3.5,9.1,3.5c1.9,0,5.7-0.9,8.3-2.1
	c5.8-2.5,7.4-2.6,7.4-0.6c0,0.8,0.7,2.3,1.6,3.4c2.6,3.1,9.2,2.2,17.1-2.3l6.2-3.5l2.2,2.2c4.1,4,11.1,2.1,15.2-4.1
	c0.9-1.3,1.4-1,4.3,2.7c2,2.5,4.3,4.4,5.8,4.7c3.4,0.7,10.4-3,14.8-7.7C441.1,255.8,440.1,251.2,433.5,252.1z M275,230.8
	c1.2-1.9,5.7-2,10.5-0.3c4,1.3,3.9,1.8-2,7.5c-3.2,3.1-3.7,3.2-5.1,2C275.9,237.9,273.9,232.4,275,230.8z M285.9,266.2
	c-7.8,4.4-11,3.2-11-3.9c0-11.7,8.9-25.1,20.2-30.5c6.1-3,9.8-3.2,12.6-0.9c1.1,0.9,2,2.1,2,2.6s-2.5,4.2-5.6,8.2
	c-3.1,4.1-6.4,9.7-7.5,12.7C294.5,259.9,291.8,262.8,285.9,266.2z M311.7,265.8c-5.9,3.5-9.7,4-12.1,1.6c-2.8-2.9-1.9-11.2,1.8-17.4
	c3.9-6.4,9.9-13.6,13-15.7c3.9-2.5,4-1.6,0.5,2.5c-3.1,3.4-4,6.6-2.1,6.6c0.5,0,1.9-1.5,3-3.3c3.2-5.2,8.4-9.2,12.3-9.2
	c1.9,0,3.9,0.7,4.9,1.6c1.7,1.6,1.7,1.8-1.5,5.6c-1.8,2.2-6.1,8.8-9.5,14.6C316.9,261.4,314.9,263.9,311.7,265.8z M342.5,258.7
	c0,3-9.3,9.7-13.4,9.7c-1.2,0-3.2-0.9-4.5-2.1c-3.9-3.5-3.1-8.9,2.7-18c6.5-10.2,12.4-16.3,17.5-18.3c4.2-1.6,6.4-1.4,10.4,0.6
	c1.2,0.7,2.2,1.8,2.2,2.7c0,0.9-2.5,4.4-5.5,8C346.4,248,342.5,255.2,342.5,258.7z M363.2,263.2c-9.7,4.9-15.7,5.1-17.9,0.4
	c-2.2-4.9,1.7-13.6,10.4-23.3c8.3-9,19.4-12.8,24.3-8.3l2.2,1.9l-4.1,7.1c-2.3,3.8-5.4,9.8-6.9,13.2
	C368.7,260,368.1,260.6,363.2,263.2z M385.4,265.4c-5.3,2.8-7.6,3.7-10.1,3.5c-3-0.2-3.2-0.5-3.5-3.8c-0.4-4.6,2.5-12.1,8.7-23.1
	c4.7-8.2,9.2-12.9,12.5-12.9c1.9,0,1.8,1.2-0.2,2.6c-2.5,1.7-7.4,8-7.4,9.4c0,0.7,0.5,1.3,1,1.3c0.6,0,1-0.3,1-0.7
	c0-0.4,2-3,4.5-5.8c4-4.5,4.9-5.1,7.8-5.1c1.8,0,3.9,0.6,4.6,1.2c0.9,0.9,3.2,2.1,4.8,2.5c-4.6,4.3-8.8,10.2-11.7,16.9
	C393.2,261.1,393.1,261.2,385.4,265.4z M428.2,264.3c-6,3.8-8.2,3.7-11.3-0.4c-2.3-3.2-2.4-6-0.4-9.2c1.7-2.7,1.9-3.8,0.5-3.8
	c-0.5,0-3.5,3.2-6.6,7c-5.7,7.2-8,8.6-11.6,7.1c-7-3.2,8.5-30.4,19.5-34c3.8-1.3,9.2-1,11.6,0.6c2.9,1.9,2.9,4.9,0.1,10.8
	c-1.2,2.4-2.1,6.2-2.1,8.5c0,3.9-0.2,4.2-4,6.3c-2.2,1.2-3.7,2.6-3.4,3c0.5,0.7,7-1.9,13-5.2c1.2-0.7,2.5-0.9,3-0.6
	C437.9,255.6,433.3,261.1,428.2,264.3z"/>
<path id="fusilli" inkscape:label="fusilli" d="M169.9,224.5c-1.9,0.5-5.2,1.6-7.1,2.5c-3.6,1.8-3.6,1.8-5.5-0.1
	c-1.3-1.4-3.5-2.1-6.9-2.4c-4.2-0.3-5.8,0.1-10.5,2.5c-3,1.5-5.8,2.8-6.3,2.8s-2.5-1.1-4.6-2.4c-5.3-3.4-12.8-3.4-17.4,0
	c-3.8,2.8-3.7,2.8-7.1,0.3c-2.5-1.7-4-2-11.2-1.9c-8.7,0-11.8,1.1-14.4,5.2c-3,4.6-2.8,5.9,1.8,10.3c2.4,2.2,4.2,4.5,3.9,5.2
	c-0.2,0.6-1.8,2-3.6,3.1c-6,3.7-6.8,4.6-6,8.3c0.9,5,3.8,9,8.5,11.6c8.6,4.9,15.3,4.7,22.8-0.6l4-2.8l1.8,1.9
	c3.9,4.1,12.7,4.7,18.9,1.5l4.4-2.2l3.3,2.2c6.3,4.1,12.7,3.7,19.2-0.9c3.9-2.8,4-2.8,8.1,0.2c5,3.6,11.1,3.9,17.3,0.6
	c4.3-2.3,5.1-2.4,6.8-1.3c6.8,4.2,11.4,4.7,16.2,1.9c3.5-2.1,8.8-8.3,11.4-13.3c3.1-6,7.7-19.7,7.7-22.9c0-2.6-0.3-3-2.5-3
	c-1.5,0-3.5,0.6-4.4,1.4c-1.7,1.3-2.2,1.1-5.8-2.9c-3.8-4.4-3.9-4.4-9.8-4.4c-4.1,0-7.7,0.7-11.4,2.2l-5.4,2.2l-2.1-1.9
	C180,223.8,176.3,223.1,169.9,224.5L169.9,224.5z M180.4,227.6c2.5,1.2,3.8,3.4,5.3,8.6c2,7,8,12.7,13.5,12.7c3,0,2.3-1.5-0.9-2.2
	c-3.8-0.7-9.3-6-9.3-9c0-2.4,0.6-2.7,6.1-3.7c5.5-1.1,12.8,6.3,14.5,14.7c0.7,2.8,1.5,6.1,2,7.3c1.5,3.6,0.9,5.4-2.7,9.3
	c-3.2,3.2-4.1,3.6-7.9,3.6c-5.7,0-10.2-3-11.7-7.7c-0.6-2-1.8-6.7-2.6-10.4c-2.3-9.4-4.4-13.9-8.1-16.4c-2.7-1.9-4.1-2.2-10-2
	c-8,0.2-8.4-0.9-2.1-4.1C171.2,226,176.6,225.7,180.4,227.6L180.4,227.6z M127.7,229.7c2.8,1.5,6.2,6.1,8.2,11.1
	c0.9,2.3,2.5,5,3.6,6.1c3.4,3.5,11.1,5,11.1,2.1c0-0.5-1.3-0.9-2.9-0.9c-4,0-9.3-5.1-9.3-9c0-3.3,2.3-4.8,7.3-4.8
	c5.2,0,8.7,4.3,11.4,13.9c1.1,4.2,2.3,9.3,2.5,11.3c0.5,3.3,0.2,3.9-2.4,6.1c-4.5,3.6-9.6,4.8-13.9,3.3c-4.6-1.7-6.2-4.6-9.5-17.2
	c-2.9-11.2-4.5-14.9-7.5-17.5c-2.2-1.9-7.1-2.4-12.8-1.2l-3.7,0.8l1.4-2.2C114,227.6,121.8,226.7,127.7,229.7L127.7,229.7z
	 M154.1,228.5c2.1,1,3.5,3.1,5.7,8.4c1.7,3.9,4,8.2,5.3,9.4c2.5,2.7,8.7,5,11.1,4.1c2.1-0.7,0.8-2.4-1.8-2.4
	c-3.2,0-8.3-3.6-10.4-7.4c-2.4-4.4-1-6.2,4.9-6.2c6.2,0,9.5,2.1,12,7.5s5.7,19.7,4.9,21.9c-0.9,2.4-6.5,5.1-10.3,5.1
	c-7.8,0-11.3-4.2-15.1-18.1c-2.8-10.1-4.7-14.1-8.3-16.9c-3.3-2.6-8.7-3-12.9-0.9c-2.4,1.2-2.8,1.3-2.8,0.1c0-1.3,3.7-4.3,6.6-5.4
	C145.7,226.8,151.5,227.2,154.1,228.5L154.1,228.5z M211,230.2c4,4.6,7.6,20.9,5.1,23.8c-2,2.3-2.6,1.6-3.3-3.4
	c-1-7.4-5.1-13.8-10.6-17.2c-2.6-1.5-4-1.7-8.2-1.3c-7.9,0.9-7.2-1,1.4-4.4c0.8-0.3,4.1-0.4,7.4-0.3
	C208,227.7,209.2,228.1,211,230.2L211,230.2z M101.3,229.4c2.6,1,3.8,2.4,5.9,7c4.5,9.8,9.6,13.8,15.1,12.1c3.1-1,2.1-2.3-1.8-2.3
	c-3.1,0-4.1-0.5-6.6-3.4c-3.4-3.9-3.4-5.5-0.1-7.2c3.8-1.8,8-1.5,11.1,1.1c2.9,2.4,4.8,7.9,7.8,22.1l1.1,5.8l-2.5,2.2
	c-5.2,4.3-16.8,2-20.4-4c-0.9-1.5-2.4-6.5-3.5-11.3c-2.3-11.2-4-14.9-7.8-17.2c-3.7-2.3-8.7-1.9-13.5,0.9c-3.4,2.1-5.9,2.4-6.1,0.6
	c-0.4-3.8,1.9-6.7,5.6-7.3C91.4,227.9,98.2,228.2,101.3,229.4L101.3,229.4z M222.7,235.7c0,3-2.7,8.9-3.8,8.3
	c-1.3-0.8-1.1-8.1,0.2-9.4C220.9,232.9,222.7,233.3,222.7,235.7L222.7,235.7z M99.3,237.7c2.3,2.5,3.5,5.5,6.9,19l1.8,7.3l-2,2.2
	c-4.9,5.1-11.8,5.9-19.5,2.1c-5.9-2.9-9.5-7.4-9.1-11.5c0.2-2.3,1-3.1,4.8-4.9l4.5-2.1l4.9,1.7c4.8,1.7,7.2,1.8,7.2,0.3
	c0-0.5-2.4-1.9-5.4-3.2c-5.1-2.2-8.6-5.7-8.6-8.5c0-1.6,5.9-4.6,9.2-4.6C96.1,235.3,97.7,236.1,99.3,237.7z"/>
<path id="garganelli" inkscape:label="garganelli" d="M696.1,61.4c-7.4,0.1-10.1,0.5-14.1,1.7c-4.7,1.4-6.9,2.6-10.1,5.8
	c-5.2,5.1-9.1,12-9,16c0.1,3.7,4.9,13.5,8.3,16.9c7.5,7.4,10.4,7.8,51.7,7c21.1-0.5,40.7-0.4,50.1,0.2l15.4,0.8l5.4-2.5
	c5.8-2.7,11-7.7,17.2-16.7l3.4-4.7l-1.6-3.8C809,73,798.4,64.2,789,62.5c-1.4-0.2-17.1-0.6-34.7-0.7s-39.6-0.2-49.1-0.3
	C701.5,61.4,698.5,61.4,696.1,61.4L696.1,61.4z M694.5,63.9l11.8-0.3c9-0.3,12.1-0.1,12.9,0.9c0.7,0.8,0.9,3.2,0.6,7.5
	c-0.4,4.2-0.1,6.3,0.4,6.3c1.4,0,2-2.2,1.9-6.5c-0.1-5.8,0.6-7.9,2.9-7.6c1.7,0.2,1.9,0.8,1.9,6.4c0,17.2-0.8,34.1-1.7,33.7
	c-0.5-0.2-2.4-3.4-4.1-7.1c-6.3-13.8-15.4-25.6-23.9-31.4L694.5,63.9z M684.7,65.4c3-0.2,6,0.4,8.9,1.8c5.1,2.4,9.7,6.4,14.3,12.5
	c2.5,3.4,4.6,6.6,4.6,7.3c0,2-11,12.6-15.7,15.1c-12.4,6.4-22.3,3-29.1-10.1c-3.6-6.8-3.5-7.8,0.5-14.9
	C672.1,70,678.2,65.9,684.7,65.4L684.7,65.4z M731.8,64.5c0.6-0.1,1.4,0.1,2,0.4c1.5,0.7,1.6,1.8,1.4,10.3c-0.2,5.2-0.6,12.1-1,15.4
	s-0.6,7.7-0.6,10c0.1,4.2-1.9,6.4-3.6,4c-1.8-2.5-0.6-38.5,1.4-39.8C731.4,64.6,731.6,64.5,731.8,64.5z M766.1,64.1
	c5.4-0.2,10.8-0.1,10.8,0.4c0,0.4-1.9,2.5-4.4,4.8c-2.9,2.6-7.9,9.5-14.3,19.7c-5.4,8.6-10.2,15.5-10.7,15.2
	c-0.8-0.4-1.4-35.2-0.6-38.2c0.5-1.9,3.7-2.1,4.5-0.4c0.3,0.7,0.1,4.3-0.4,8c-0.6,4.5-0.6,7.2,0,7.7c1.5,1.4,2.6-1.8,3-8.9
	c0.2-3.4,0.7-6.8,0.9-7.3C755.1,64.7,760.7,64.2,766.1,64.1L766.1,64.1z M740.9,64.6l2.7-0.1l0.3,16.1c0.2,8.9,0,17.9-0.2,20.1
	c-0.5,3.9-0.6,4-4.1,4.3l-3.5,0.3l0.4-7.8c0.3-4.2,0.5-12.2,0.7-17.5C737.6,65.2,737.8,64.7,740.9,64.6L740.9,64.6z M787.6,65.1
	c3.2,0,6,1.1,10.4,3.9c6,3.8,9.9,7.8,12.1,12.6c1.3,3.1,1.2,3.2-1.6,8c-3.8,6.2-8.5,11.2-13.4,14.1c-3.3,2-4.5,2.3-8.6,1.9
	c-9-0.7-14-4.5-19.7-14.9c-2.6-5-2.6-7.2,0.6-11.8c6-8.6,10.5-12.3,16.7-13.5C785.4,65.2,786.5,65.1,787.6,65.1z M684.6,69
	c-1.4,0-2.8,0.2-4.2,0.6c-3.8,1.1-12.8,10.2-13.6,13.8c-0.6,2.7,5.8,13,10.4,16.9c2.6,2.2,4.1,2.6,7.3,2.6c5.7-0.1,7.6-1.1,16-8.5
	c5.3-4.6,7.5-7,7.5-8.5c-0.1-3.3-10.3-13.7-14.9-15.3C689.6,69.5,687,69,684.6,69z M785.7,68.1c-2.2,0-4.3,0.4-6,1.4
	c-1.2,0.7-4.2,3.9-6.7,7c-7.3,9.2-7.1,8.5-3.4,14.5c4.7,7.4,6.7,9.6,10.2,11.2c5.5,2.4,12.1,1.1,17.7-3.8c4-3.3,10.5-11.4,10.4-12.8
	c0-2.2-9.5-12.5-13.7-15.1C791.7,68.9,788.6,68.1,785.7,68.1L785.7,68.1z M684.8,71.2c2.6,0,5.5,0.5,7.5,1.4
	c3.5,1.7,12.9,11.1,13,12.9c0,1.3-11.9,12.1-14.8,13.5c-3.4,1.6-9.3,1.6-11.6,0.1c-1.1-0.7-3.7-4.2-5.8-7.8l-3.9-6.5l1.8-3
	c1.9-3.2,7.8-9.2,9.8-9.9C681.8,71.4,683.2,71.2,684.8,71.2L684.8,71.2z M786.2,70.7c2.7-0.1,5.5,0.6,7.6,2.2
	c3.8,2.7,11.5,11.3,11.5,12.9c0,0.6-2.5,3.8-5.7,7c-8,8.3-15.1,10-21.4,5.4c-2.3-1.7-8-10.9-8-13c0-1.7,7.3-11,10.1-12.7
	C782,71.3,784.1,70.8,786.2,70.7L786.2,70.7z M762,88.9c0.5,0,2.3,2.5,4.2,5.6s4.6,6.8,6.2,8.3c1.6,1.5,2.6,2.9,2.3,3.4
	c-0.4,0.8-21.7-0.4-22.6-1.3C751.4,104.1,760.8,88.9,762,88.9L762,88.9z M713.8,91c1.6-0.2,2.6,2.1,5.3,7.5c2.5,5.2,2.8,6.6,1.9,7.2
	c-1.8,1.1-25.1,1.6-25.1,0.4c0-0.4,1.5-1.6,3.4-2.6c1.8-1,5.8-4.4,9-7.7C711.1,92.9,712.6,91.2,713.8,91L713.8,91z"/>
<path id="tortiglioni" inkscape:label="tortiglioni" d="M506.6,57.5c-7.1,0-14.5,0.1-18.5,0.4c-5.3,0.3-10.6,1-11.6,1.6
	c-3.2,1.6-7.8,7.4-10.3,12.6c-2,4.4-2.2,5.5-1.7,12.6c1.5,17.7,5.6,23.1,18,23c2.3,0,21.4-0.3,42.4-0.5c21-0.3,41.8-0.2,46.3,0.2
	c9.1,0.9,18.9-0.2,23.6-2.5c5.2-2.5,9.8-12.8,9.6-21.7c-0.1-10.7-3-17.2-10-21.9l-3.8-2.6l-30.8-0.3c-16.9-0.2-37.7-0.4-46.4-0.7
	C511.3,57.5,509,57.5,506.6,57.5L506.6,57.5z M512.9,59.6c2.7,0,7.1,0.4,10.6,1.3c5.7,1.4,7.4,2.4,25.8,15.2
	c6.1,4.2,13.6,9.2,16.8,11c4.9,2.8,5.7,3.7,5.7,5.8c0,1.4-0.4,2.6-0.8,2.6c-1.5,0-7.6-2.8-11.5-5.2c-2-1.3-9.1-5.3-15.7-8.9
	c-13-7.2-33.4-20-33.5-21.2C510.2,59.8,511.3,59.6,512.9,59.6L512.9,59.6z M532.1,59.7c3.2,0,9.9,1.4,13.5,3
	c6.6,3.1,24.4,15.6,25.2,17.9c0.9,2.3,0.3,5.1-1.2,5.1c-2.2,0-39.1-24-39.2-25.5C530.4,59.8,531.1,59.7,532.1,59.7L532.1,59.7z
	 M496.6,59.7c0.7,0,1.5,0,2.4,0.1c6.2,0.3,6.5,0.4,19.6,8.9c7.3,4.7,15.4,9.7,17.9,11.1c2.6,1.4,10.1,5.8,16.9,9.7
	c6.8,3.9,14.1,7.7,16.1,8.4c3.6,1.3,8.8,5.3,8.8,6.8c0,2.3-7.5-0.4-26.8-9.7c-21.3-10.2-41.1-21.3-48.2-26.9c-2-1.5-5.2-3.8-7.1-4.9
	C491.7,60.6,491.7,59.6,496.6,59.7L496.6,59.7z M553.6,60.5c3.8,0,6.5,0.7,11.4,3c8.1,3.9,9,4.9,7.7,8.6c-0.6,1.5-1.6,2.8-2.3,2.8
	c-1.2,0-17.9-10.6-20.6-13.1C548.7,60.7,549.1,60.5,553.6,60.5L553.6,60.5z M573.6,60.5c4.1,0,5.6,0.4,5.6,1.2c0,0.7-0.8,2-1.8,2.9
	c-1.8,1.6-2,1.6-5.3-0.3C566.9,61.4,567.3,60.5,573.6,60.5z M479.3,60.6c2.6-0.2,7.6,1,11.8,2.9c2.8,1.3,7.7,4.2,11,6.6
	c7.5,5.6,29.7,18.1,47,26.4c7.5,3.6,13.5,6.8,13.5,7.3c0,1.2-9.6,0.8-13.6-0.5c-12.2-4.2-72.8-39.9-71.4-42.1
	C477.8,60.9,478.4,60.7,479.3,60.6L479.3,60.6z M587.5,61.2c2.2,0,4.5,1,7.4,2.9c3.9,2.7,6.4,8.5,6.9,16.3c0.4,5.8,0.1,7.5-2,13.3
	c-3,7.8-5.2,9.8-12.1,10.6c-4.7,0.5-4.9,0.4-8.4-3.1c-4.6-4.8-6-9.9-5.4-19.4c0.7-11.1,5-18.6,11.4-20.3
	C586.1,61.3,586.8,61.2,587.5,61.2L587.5,61.2z M473.8,65.1c1.4-0.1,3.2,0.3,5.3,1.4c1.5,0.8,7.2,4.3,12.6,7.9
	c5.3,3.5,19,11.5,30.2,17.6c11.3,6.2,20.5,11.5,20.5,11.9c0,1.8-7.1,0.4-15.7-3.2c-27.8-11.5-37.1-16.4-51.7-27.2
	c-4.9-3.7-5.2-4-4.2-6.1C471.4,65.9,472.4,65.2,473.8,65.1L473.8,65.1z M587.1,65.4c-0.6,0-1.2,0.1-1.8,0.2c-2.7,0.6-4.1,2-6.2,6
	c-2.9,5.3-3.5,10.1-2.5,17c1,7.5,2.8,11,6.4,12.8c5.8,3,9.7,1.3,13.4-5.8c2.3-4.4,2.9-19,1-23.5C595.6,67.9,591.4,65.3,587.1,65.4
	L587.1,65.4z M588.6,67.7c1.5,0,3,0.6,4,1.5c2.2,2.1,2.9,4.4,3.7,11.2c1,9.4-3.3,19.6-8.3,19.6c-3.5,0-4.9-0.9-7.1-4.3
	c-1.7-2.8-2-4.6-2.1-11.4c0-8.3,0.7-10.7,4.4-14.6C584.5,68.3,586.6,67.6,588.6,67.7L588.6,67.7z M469,73.1c0.5,0,6.4,3.6,13,7.9
	c6.8,4.5,16.7,9.9,22.6,12.5c5.8,2.6,13.5,6,17,7.6l6.4,3l-5.9,0.3c-7.6,0.4-10.5-0.6-30.8-11c-18.9-9.6-24.6-13.2-24.6-15.7
	C466.9,75.2,467.8,73.1,469,73.1z M468.1,83.3c0.4,0,1.1,0.4,2.2,1.2c1.5,0.9,10.2,5.8,19.6,10.6l17,8.9l-4.6,0.3
	c-6.4,0.4-9.4-0.6-22.6-7.7c-11.6-6.3-13.9-8.5-12.5-12.3C467.5,83.6,467.7,83.3,468.1,83.3L468.1,83.3z M469.5,93.8
	c0.2,0,3.5,1.6,7.3,3.7c9.7,5,10.4,5.6,10.4,7c0,1.7-10,0.8-13.6-1.3C470,101.1,466.8,93.8,469.5,93.8z"/>
<path id="rigatoni" inkscape:label="rigatoni" d="M338,55.4c-13.2,0-25.5,0.1-30.5,0.3c-14.3,0.6-16.3,1.5-20.6,10.1
	c-2.2,4.5-2.7,6.8-2.8,13.1c-0.1,13.2,4.5,22.4,13.3,26.7c4,1.9,6.3,2,34.3,2.2c16.5,0,35.2,0.2,41.5,0.3c10.4,0.1,12-0.1,16.4-2.4
	c3.9-2,5.3-3.5,7.6-8c3.8-7.5,4.5-14,2.5-22.6c-2.2-9.4-5.4-14-11.8-16.9c-5-2.2-6.4-2.3-36.7-2.7C346.9,55.4,342.4,55.4,338,55.4
	L338,55.4z M341.3,57.8c16.6,0,32.1,0.4,32.5,1c0.3,0.6-0.3,2.1-1.5,3.2c-2.1,2.1-2.5,2.1-40.8,1.8c-21.4-0.1-39-0.5-39.2-0.7
	c-1.4-1.4,3.5-3.8,9.1-4.4C306.8,58.1,324.7,57.8,341.3,57.8z M382.6,60c3.1-0.1,6.2,0.9,8.3,2.9c4.7,4.4,6.6,9.6,7.1,19.3
	c0.3,8.6,0.2,9.2-2.7,13.8c-3.8,5.9-8.3,8.7-13.9,8.7c-11.7,0-17-17.6-10.4-34.5c2.2-5.7,3.4-7.3,6.2-8.8
	C378.9,60.5,380.8,60.1,382.6,60z M384,62.7c-2.1,0-4.1,0.7-5.4,1.8c-1.2,0.9-3.2,3.7-4.5,6.2c-2,3.8-2.3,6-2.4,14.8v10.4l3.2,2.9
	c4.1,3.6,7.4,4.4,10.9,2.7c3.9-1.9,6.1-5.4,7.9-12.5c1.3-5.1,1.4-7.3,0.5-12.5c-1.2-6.6-4-12.2-6.6-13.2
	C386.5,62.9,385.3,62.7,384,62.7z M382.7,64.9c0.7-0.1,1.5,0.3,2.9,1c1.4,0.6,3.5,3.1,4.7,5.5c1.8,3.7,2.1,5.7,1.7,11.6
	c-0.6,8.8-2.9,14.1-6.9,15.7c-5.9,2.5-10.4-1.8-11.5-11.1c-0.8-7.2,1.6-16.1,5.6-20C381.1,65.7,381.8,64.9,382.7,64.9L382.7,64.9z
	 M290.2,66.7h39h39v2.4c0,5-0.4,5.1-41.4,4.7c-20.9-0.1-38.5-0.7-39-1.1c-0.5-0.5-0.2-2,0.8-3.4L290.2,66.7z M287.2,76.7l38.8,0.2
	l38.7,0.3l0.3,3.7c0.3,3.2,0,3.8-2,4.2c-1.3,0.3-18.7,0.4-38.7,0.3c-39.8-0.2-39.2-0.1-37.7-6.1L287.2,76.7z M326.1,87.7
	c17.9,0,35.9,0.4,37.1,1c1.2,0.7,1.9,2.1,1.9,4v3l-21.2,0.1c-29.7,0.2-51-0.1-53-0.7c-2.4-0.7-3.5-5.3-1.7-6.5
	C290.3,87.9,308.2,87.7,326.1,87.7L326.1,87.7z M331.1,98.7h36l2.1,2.7c1.5,2,1.7,2.8,0.8,3.4c-0.7,0.4-1.6,0.5-2.2,0.2
	c-0.5-0.4-15.8-0.7-34-0.8c-33.9-0.1-38.6-0.6-38.6-4.2C295.2,98.9,301.8,98.7,331.1,98.7L331.1,98.7z"/>
<path id="penne" inkscape:label="penne" d="M73.3,60.4L71,62.7c-2,1.8-2.4,3.1-2.4,7.2c0,6.2,1.6,13.6,3.8,17.8
	c2.4,4.4,11,12.1,16.9,14.9c10,4.9,13.2,5.1,74.5,4.7c46.2-0.2,56.7-0.5,58-1.5c2.5-1.9,1.3-13.1-2-21.1
	c-3.1-7.2-11.5-16.2-18.2-19.5c-9.4-4.5-10.9-4.6-71.6-4.6H73.3V60.4z M93.5,62.7c28.4-0.1,81.3,0.2,81.8,0.7
	c0.9,0.9-0.4,4.1-1.9,4.7c-2.7,1-101,0.8-102.1-0.3c-1.4-1.4,1.6-4.4,4.9-4.8C77.3,62.8,84,62.7,93.5,62.7L93.5,62.7z M184.1,63.2
	c4.4,0.1,10.4,1.4,15,3.6c10.9,5.1,19.1,16.3,21.2,28.7c1.2,7.5,0.4,9-5,8.2c-6.3-1-13.5-3.8-19.2-7.6c-7.7-4.9-17.8-15.2-19.2-19.5
	c-1.4-4-0.6-10,1.6-12.1C179.3,63.5,181.4,63.2,184.1,63.2L184.1,63.2z M182,65.1c-1,0-1.6,0.3-2.3,1c-1.7,1.6-1.3,7.6,0.7,11.5
	c4.6,8.6,26.6,23.4,33.8,22.6c2.6-0.3,2.7-0.5,3-4.5c0.4-5.1-2.2-9.8-9-17c-4.9-5.3-9.5-8-18.7-11.2C185.4,65.8,183.4,65.1,182,65.1
	z M183.3,68c2,0,5.5,1.2,10.9,3.7c9.7,4.6,21.3,17.3,21.3,23.3c0,3.2-1.7,3.4-8,0.8c-14.3-5.8-28.1-19.9-26.3-26.6
	C181.5,68.4,182.1,67.9,183.3,68z M162.1,70.6c6.9,0.1,10,0.3,10.6,0.9c2,1.9,1.4,5.2-0.9,5.7c-4.3,0.9-71.7,2.2-85.5,1.6
	c-13.4-0.5-14-0.6-15-2.6c-2.4-4.9-2.6-4.9,32.6-5.2c17.9-0.1,40.4-0.3,50-0.5C157.2,70.6,159.9,70.6,162.1,70.6L162.1,70.6z
	 M173,79.7c0.3-0.1,1.1,0.4,2,0.9c0.9,0.6,2.2,2.3,3,3.5c1.5,2.4,1.5,2.4-1.4,3C171.8,88,78.5,87.7,76,86.8
	c-2.4-0.9-4.3-4.2-3.1-5.4c0.4-0.3,14.8-0.5,32.1-0.4C130.5,81.2,170.6,80.3,173,79.7z M130.2,89.5h53.1l2.7,2.2
	c1.8,1.5,2.4,2.5,1.7,3.1c-0.6,0.5-20.7,1-52.8,1.3L83,96.3l-2.8-2.6c-1.6-1.5-2.9-3-2.9-3.4C77.2,89.8,101.1,89.5,130.2,89.5
	L130.2,89.5z M193,97.6l5.1,2.9c2.8,1.6,5.1,3.4,5.1,3.8c0,0.5-3.7,0.6-8.7,0.3c-4.8-0.3-25.1-0.2-45.1,0.3
	c-29.8,0.7-37.6,0.6-43.6-0.5c-8.6-1.5-14.6-3.4-15.2-4.8c-0.5-1.5,5.4-1.6,56.9-1.8L193,97.6z"/>
<text transform="matrix(1 0 0 1 104.1194 160.6375)" class="st0 st1 st2">penne</text>
<text transform="matrix(1 0 0 1 109.3136 323.0304)" class="st0 st1 st2">fusilli</text>
<text transform="matrix(1 0 0 1 84.959 479.4462)" class="st0 st1 st2">gramigna</text>
<text transform="matrix(1 0 0 1 102.5576 637.9615)" class="st0 st1 st2">pipe</text>
<text transform="matrix(1 0 0 1 84.2774 814.1936)" class="st0 st1 st2">tortellini</text>
<text transform="matrix(1 0 0 1 84.7209 974.3891)" class="st0 st1 st2">tagliatelle</text>
<text transform="matrix(1 0 0 1 91.6923 1142.2975)" class="st0 st1 st2">stelline</text>
<text transform="matrix(1 0 0 1 223.4425 1143.3438)" class="st0 st1 st2">farfalline</text>
<text transform="matrix(1 0 0 1 382.1927 1144.2605)" class="st0 st1 st2">puntine</text>
<text transform="matrix(1 0 0 1 515.9429 1144.3623)" class="st0 st1 st2">tempestine</text>
<text transform="matrix(1 0 0 1 239.0077 975.2882)" class="st0 st1 st2">tagliolini</text>
<text transform="matrix(1 0 0 1 370.7402 975.2882)" class="st0 st1 st2">pappardelle</text>
<text transform="matrix(1 0 0 1 542.5995 975.2234)" class="st0 st1 st2">mafaldine</text>
<text transform="matrix(1 0 0 1 695.1927 975.2604)" class="st0 st1 st2">spaghetti</text>
<text transform="matrix(1 0 0 1 224.5905 814.2512)" class="st0 st1 st2">cappelletti</text>
<text transform="matrix(1 0 0 1 403.1927 815.2604)" class="st0 st1 st2">ravioli</text>
<text transform="matrix(1 0 0 1 516.1927 814.2604)" class="st0 st1 st2">mezzelune</text>
<text transform="matrix(1 0 0 1 702.3315 813.2974)" class="st0 st1 st2">soli</text>
<text transform="matrix(1 0 0 1 808.9614 813.1772)" class="st0 st1 st2">lasagne</text>
<text transform="matrix(1 0 0 1 241.5911 639.5182)" class="st0 st1 st2">farfalle</text>
<text transform="matrix(1 0 0 1 377.5912 639.5182)" class="st0 st1 st2">conchiglie</text>
<text transform="matrix(1 0 0 1 548.5911 639.5182)" class="st0 st1 st2">gnocchi</text>
<text transform="matrix(1 0 0 1 707.8779 638.5552)" class="st0 st1 st2">creste</text>
<text transform="matrix(1 0 0 1 247.8788 480.0103)" class="st0 st1 st2">maccheroni</text>
<text transform="matrix(1 0 0 1 438.3229 480.8365)" class="st0 st1 st2">ruote</text>
<text transform="matrix(1 0 0 1 572.2673 480.9469)" class="st0 st1 st2">fiori</text>
<text transform="matrix(1 0 0 1 669.2719 479.7523)" class="st0 st1 st2">spighe</text>
<text transform="matrix(1 0 0 1 305.1146 321.3906)" class="st0 st1 st2">fusilli2</text>
<text transform="matrix(1 0 0 1 488.1146 320.3906)" class="st0 st1 st2">cavatappi</text>
<text transform="matrix(1 0 0 1 692.1146 322.3906)" class="st0 st1 st2">gemelli</text>
<text transform="matrix(1 0 0 1 868.1146 322.3906)" class="st0 st1 st2">radiatori</text>
<text transform="matrix(1 0 0 1 290.4135 162.3056)" class="st0 st1 st2">rigatoni</text>
<text transform="matrix(1 0 0 1 472.5517 161.7023)" class="st0 st1 st2">tortiglioni</text>
<text transform="matrix(1 0 0 1 672.3465 162.7115)" class="st0 st1 st2">garganelli</text>
</svg>
