<?xml version="1.0" encoding="utf-8" standalone="no"?>
<!DOCTYPE svg PUBLIC "-//W3C//DTD SVG 1.1//EN"
  "http://www.w3.org/Graphics/SVG/1.1/DTD/svg11.dtd">
<svg xmlns:xlink="http://www.w3.org/1999/xlink" width="597.075756pt" height="118.028353pt" viewBox="0 0 597.075756 118.028353" xmlns="http://www.w3.org/2000/svg" version="1.1">
 <metadata>
  <rdf:RDF xmlns:dc="http://purl.org/dc/elements/1.1/" xmlns:cc="http://creativecommons.org/ns#" xmlns:rdf="http://www.w3.org/1999/02/22-rdf-syntax-ns#">
   <cc:Work>
    <dc:type rdf:resource="http://purl.org/dc/dcmitype/StillImage"/>
    <dc:date>2025-03-26T15:11:34.395481</dc:date>
    <dc:format>image/svg+xml</dc:format>
    <dc:creator>
     <cc:Agent>
      <dc:title>Matplotlib v3.7.2, https://matplotlib.org/</dc:title>
     </cc:Agent>
    </dc:creator>
   </cc:Work>
  </rdf:RDF>
 </metadata>
 <defs>
  <style type="text/css">*{stroke-linejoin: round; stroke-linecap: butt}</style>
 </defs>
 <g id="figure_1">
  <g id="patch_1">
   <path d="M 0 118.028353 
L 597.075756 118.028353 
L 597.075756 0 
L 0 0 
L 0 118.028353 
z
" style="fill: none"/>
  </g>
  <g id="axes_1">
   <g id="patch_2">
    <path d="M 32.685756 89.217 
L 590.685756 89.217 
L 590.685756 7.677 
L 32.685756 7.677 
z
" style="fill: #ffffff"/>
   </g>
   <g id="PathCollection_1">
    <defs>
     <path id="maeca8d01d2" d="M -0.649013 -3.44756 
C -0.804777 -3.44756 -0.939772 -3.343718 -1.095535 -3.136033 
C -1.313603 -2.845275 -1.386293 -2.814123 -1.614746 -2.949117 
C -2.133956 -3.229491 -2.507788 -3.125649 -2.694704 -2.658359 
C -2.798546 -2.398754 -3.047767 -2.128764 -3.27622 -2.014538 
C -3.618899 -1.838006 -3.67082 -1.744548 -3.629283 -1.370717 
C -3.608515 -1.017653 -3.67082 -0.872274 -3.951194 -0.643821 
C -4.304258 -0.353063 -4.304258 -0.353063 -4.086189 0.07269 
C -3.909657 0.425753 -3.909657 0.519211 -4.044652 0.602285 
C -4.127726 0.66459 -4.241952 0.716511 -4.293873 0.716511 
C -4.345794 0.716511 -4.449637 0.841121 -4.53271 0.986501 
C -4.646937 1.214953 -4.615784 1.32918 -4.397715 1.630322 
L -4.117342 2.014538 
L -4.397715 2.305296 
C -5 2.949117 -4.314642 3.364486 -3.317757 2.938733 
C -2.88162 2.751817 -2.840083 2.762201 -2.580478 3.001038 
C -2.237799 3.322949 -2.113188 3.322949 -1.82243 3.001038 
C -1.697819 2.866044 -1.531672 2.751817 -1.458982 2.751817 
C -1.386293 2.751817 -1.240914 2.866044 -1.15784 3.001038 
C -0.96054 3.322949 -0.69055 3.322949 -0.275182 3.001038 
L 0.036345 2.751817 
L 0.316719 3.001038 
C 0.669782 3.333333 0.981308 3.322949 1.344756 2.98027 
L 1.635514 2.699896 
L 1.832814 2.98027 
C 2.071651 3.333333 2.476636 3.333333 2.850467 2.98027 
L 3.141225 2.71028 
L 3.431983 2.98027 
C 3.930426 3.44756 4.906542 3.271028 4.906542 2.71028 
C 4.906542 2.554517 4.823468 2.294912 4.709242 2.139148 
C 4.53271 1.879543 4.53271 1.838006 4.709242 1.578401 
C 5 1.173416 4.958463 0.903427 4.584631 0.654206 
L 4.262721 0.436137 
L 4.543094 0.145379 
C 4.865005 -0.207684 4.8027 -0.488058 4.356179 -0.706127 
C 4.034268 -0.86189 4.013499 -0.944964 4.231568 -1.484943 
C 4.304258 -1.661475 4.221184 -1.754933 3.816199 -1.92108 
C 3.452752 -2.056075 3.265836 -2.222222 3.172378 -2.481828 
C 3.047767 -2.866044 2.975078 -2.886812 2.383178 -2.855659 
C 2.185877 -2.845275 1.884735 -2.959502 1.708204 -3.094496 
C 1.282451 -3.437175 1.033229 -3.426791 0.597092 -3.094496 
L 0.254413 -2.824507 
L -0.09865 -3.156802 
C -0.316719 -3.343718 -0.49325 -3.44756 -0.649013 -3.44756 
L -0.649013 -3.44756 
z
M -0.49325 -3.084112 
C -0.420561 -3.084112 -0.379024 -3.05296 -0.379024 -2.949117 
C -0.379024 -2.886812 -0.244029 -2.731049 -0.067497 -2.616822 
C 0.223261 -2.429907 0.275182 -2.429907 0.69055 -2.689512 
L 1.126687 -2.969886 
L 1.531672 -2.627207 
C 1.905504 -2.305296 2.050883 -2.284528 2.538941 -2.502596 
C 2.705088 -2.564901 2.788162 -2.492212 2.933541 -2.149533 
C 3.058152 -1.858775 3.234683 -1.682243 3.452752 -1.630322 
C 3.774663 -1.557632 3.888889 -1.25649 3.650052 -1.111111 
C 3.587747 -1.069574 3.525441 -0.924195 3.525441 -0.778816 
C 3.525441 -0.602285 3.639668 -0.508827 3.899273 -0.456906 
C 4.33541 -0.363448 4.376947 -0.166147 4.023884 0.166147 
C 3.67082 0.488058 3.712357 0.695742 4.148494 0.934579 
C 4.574247 1.152648 4.615784 1.277259 4.33541 1.505711 
C 4.096573 1.713396 4.096573 2.004154 4.345794 2.284528 
C 4.844237 2.855659 4.034268 3.146417 3.515057 2.58567 
C 3.34891 2.409138 3.172378 2.263759 3.110073 2.263759 
C 3.058152 2.263759 2.88162 2.398754 2.736241 2.58567 
C 2.393562 2.990654 2.310488 2.98027 1.94704 2.544133 
L 1.656282 2.201454 
L 1.292835 2.544133 
C 0.856698 2.959502 0.742471 2.98027 0.441329 2.647975 
C 0.316719 2.51298 0.140187 2.398754 0.036345 2.398754 
C -0.046729 2.398754 -0.223261 2.51298 -0.337487 2.647975 
C -0.628245 2.98027 -0.700935 2.969886 -1.053998 2.554517 
L -1.344756 2.211838 
L -1.760125 2.554517 
L -2.175493 2.90758 
L -2.435099 2.637591 
C -2.777778 2.31568 -2.80893 2.31568 -3.483904 2.647975 
C -4.158879 2.98027 -4.366563 2.876428 -4.003115 2.367601 
L -3.722741 1.993769 
L -4.023884 1.588785 
C -4.304258 1.204569 -4.304258 1.183801 -4.086189 1.017653 
C -3.951194 0.924195 -3.805815 0.851506 -3.764278 0.851506 
C -3.577362 0.851506 -3.54621 0.477674 -3.722741 0.155763 
C -3.951194 -0.301142 -3.961578 -0.280374 -3.504673 -0.446521 
C -3.110073 -0.581516 -3.07892 -0.747664 -3.317757 -1.339564 
C -3.390447 -1.495327 -3.307373 -1.609553 -2.964694 -1.754933 
C -2.715472 -1.879543 -2.507788 -2.045691 -2.507788 -2.128764 
C -2.507788 -2.222222 -2.435099 -2.38837 -2.341641 -2.51298 
C -2.185877 -2.731049 -2.123572 -2.731049 -1.687435 -2.575286 
C -1.220145 -2.398754 -1.209761 -2.409138 -0.96054 -2.751817 
C -0.794393 -2.938733 -0.607477 -3.073728 -0.49325 -3.084112 
L -0.49325 -3.084112 
z
M 0.129803 -1.900312 
C -0.358255 -1.900312 -0.794393 -1.838006 -1.085151 -1.734164 
C -1.365524 -1.630322 -1.760125 -1.360332 -1.978193 -1.13188 
C -2.871236 -0.207684 -3.328141 1.339564 -2.798546 1.599169 
C -2.68432 1.661475 -1.448598 1.754933 -0.067497 1.786085 
C 2.975078 1.889927 3.089304 1.84839 3.047767 0.924195 
C 3.026999 0.062305 2.455867 -0.996885 1.780893 -1.484943 
C 1.313603 -1.817238 1.116303 -1.879543 0.337487 -1.900312 
C 0.275182 -1.900312 0.202492 -1.900312 0.129803 -1.900312 
L 0.129803 -1.900312 
z
M 0.202492 -1.516096 
C 0.264798 -1.516096 0.327103 -1.516096 0.389408 -1.505711 
C 1.085151 -1.484943 1.303219 -1.412253 1.697819 -1.111111 
C 2.258567 -0.66459 2.80893 0.425753 2.746625 1.028037 
L 2.705088 1.443406 
L 0.129803 1.422638 
C -2.892004 1.381101 -2.933541 1.360332 -2.590862 0.446521 
C -2.300104 -0.321911 -1.562825 -1.13188 -0.939772 -1.360332 
C -0.669782 -1.464174 -0.233645 -1.52648 0.202492 -1.516096 
z
" style="stroke: #434eba; stroke-width: 0.5"/>
    </defs>
    <g clip-path="url(#pdb8aa304a8)">
     <use xlink:href="#maeca8d01d2" x="58.049392" y="32.544308" style="fill: #434eba; stroke: #434eba; stroke-width: 0.5"/>
     <use xlink:href="#maeca8d01d2" x="58.202062" y="38.698054" style="fill: #434eba; stroke: #434eba; stroke-width: 0.5"/>
     <use xlink:href="#maeca8d01d2" x="58.354732" y="44.851799" style="fill: #434eba; stroke: #434eba; stroke-width: 0.5"/>
     <use xlink:href="#maeca8d01d2" x="58.507403" y="51.005545" style="fill: #434eba; stroke: #434eba; stroke-width: 0.5"/>
     <use xlink:href="#maeca8d01d2" x="58.656919" y="57.032147" style="fill: #434eba; stroke: #434eba; stroke-width: 0.5"/>
     <use xlink:href="#maeca8d01d2" x="58.531281" y="62.946863" style="fill: #434eba; stroke: #434eba; stroke-width: 0.5"/>
     <use xlink:href="#maeca8d01d2" x="58.961628" y="69.31421" style="fill: #434eba; stroke: #434eba; stroke-width: 0.5"/>
     <use xlink:href="#maeca8d01d2" x="58.906884" y="76.988592" style="fill: #434eba; stroke: #434eba; stroke-width: 0.5"/>
     <use xlink:href="#maeca8d01d2" x="64.0581" y="33.205454" style="fill: #434eba; stroke: #434eba; stroke-width: 0.5"/>
     <use xlink:href="#maeca8d01d2" x="64.749532" y="61.075311" style="fill: #434eba; stroke: #434eba; stroke-width: 0.5"/>
     <use xlink:href="#maeca8d01d2" x="69.987949" y="30.688013" style="fill: #434eba; stroke: #434eba; stroke-width: 0.5"/>
     <use xlink:href="#maeca8d01d2" x="70.791676" y="63.084178" style="fill: #434eba; stroke: #434eba; stroke-width: 0.5"/>
     <use xlink:href="#maeca8d01d2" x="76.384326" y="31.773623" style="fill: #434eba; stroke: #434eba; stroke-width: 0.5"/>
     <use xlink:href="#maeca8d01d2" x="77.22996" y="62.239582" style="fill: #434eba; stroke: #434eba; stroke-width: 0.5"/>
     <use xlink:href="#maeca8d01d2" x="81.608324" y="34.827442" style="fill: #434eba; stroke: #434eba; stroke-width: 0.5"/>
     <use xlink:href="#maeca8d01d2" x="82.384667" y="57.699985" style="fill: #434eba; stroke: #434eba; stroke-width: 0.5"/>
     <use xlink:href="#maeca8d01d2" x="83.857911" y="40.808636" style="fill: #434eba; stroke: #434eba; stroke-width: 0.5"/>
     <use xlink:href="#maeca8d01d2" x="84.858857" y="47.373153" style="fill: #434eba; stroke: #434eba; stroke-width: 0.5"/>
     <use xlink:href="#maeca8d01d2" x="84.700688" y="52.821154" style="fill: #434eba; stroke: #434eba; stroke-width: 0.5"/>
    </g>
   </g>
   <g id="PathCollection_2">
    <defs>
     <path id="mfa6c9de2f6" d="M 1.89847 -3.532684 
L 1.20306 -3.184979 
L 0.034771 -3.463143 
C -1.828929 -3.908206 -3.317107 -3.769124 -3.553547 -3.143255 
C -4.207232 -1.363004 -4.276773 -0.639777 -3.817803 -0.38943 
C -3.511822 -0.222531 -3.511822 -0.222531 -4.012517 0.222531 
C -5 1.057024 -4.972184 1.446453 -3.873435 3.073713 
L -3.358832 3.838665 
L -2.107093 3.824757 
C -1.189152 3.824757 -0.632823 3.741307 -0.020862 3.518776 
C 0.96662 3.157163 1.022253 3.143255 1.022253 3.435327 
C 1.022253 3.755216 1.912378 4.075104 2.524339 3.977747 
C 3.817803 3.755216 4.109875 3.421419 4.638387 1.529903 
C 4.930459 0.431154 5 -0.611961 4.777469 -0.751043 
C 4.707928 -0.792768 4.638387 -1.08484 4.638387 -1.390821 
C 4.638387 -1.821975 4.513213 -2.127955 4.06815 -2.739917 
C 3.122392 -4.03338 3.011127 -4.075104 1.89847 -3.532684 
L 1.89847 -3.532684 
z
M 2.941586 -3.226704 
C 2.899861 -2.990264 2.315716 -2.586926 1.74548 -2.420028 
C 1.244784 -2.267038 1.397775 -2.753825 1.981919 -3.143255 
C 2.552156 -3.532684 3.011127 -3.560501 2.941586 -3.226704 
z
M 0.11822 -3.073713 
C 1.077886 -2.795549 1.258693 -2.489569 0.605007 -2.211405 
C 0.132128 -2.01669 -1.342142 -2.114047 -2.329624 -2.392211 
C -3.011127 -2.586926 -3.344924 -2.976356 -3.011127 -3.184979 
C -2.67733 -3.393602 -0.799722 -3.324061 0.11822 -3.073713 
z
M 3.91516 -2.336579 
C 4.151599 -2.01669 4.30459 -1.682893 4.262865 -1.571627 
C 4.165508 -1.293463 3.442281 -0.904033 2.44089 -0.556328 
C 0.938804 -0.041725 -3.052851 -0.236439 -3.664812 -0.862309 
C -3.831711 -1.029207 -3.845619 -1.154381 -3.692629 -1.641168 
C -3.497914 -2.294854 -3.414465 -2.308762 -2.218359 -2.002782 
C -0.577191 -1.571627 1.954103 -1.891516 2.969402 -2.642559 
C 3.164117 -2.781641 3.358832 -2.906815 3.414465 -2.906815 
C 3.456189 -2.906815 3.692629 -2.656467 3.91516 -2.336579 
L 3.91516 -2.336579 
z
M 4.45758 -0.584145 
C 4.638387 -0.125174 4.012517 0.15299 2.816412 0.15299 
C 1.425591 0.15299 1.230876 0.305981 1.105702 1.599444 
C 0.96662 2.892907 0.618915 3.129346 -1.662031 3.518776 
C -2.357441 3.630042 -2.691238 3.630042 -2.941586 3.518776 
C -3.317107 3.337969 -4.040334 2.294854 -3.942976 2.058414 
C -3.91516 1.961057 -3.636996 1.808067 -3.344924 1.696801 
C -3.038943 1.585535 -2.329624 1.182197 -1.759388 0.806676 
L -0.730181 0.097357 
L 0.577191 0.055633 
C 1.801113 0.013908 2.913769 -0.250348 3.609179 -0.667594 
C 3.998609 -0.876217 4.360223 -0.848401 4.45758 -0.584145 
L 4.45758 -0.584145 
z
M -1.703755 0.15299 
C -1.50904 0.347705 -3.247566 1.404729 -3.789986 1.404729 
C -4.374131 1.404729 -4.471488 1.251739 -4.123783 0.806676 
C -3.52573 0.055633 -2.176634 -0.319889 -1.703755 0.15299 
z
M 4.45758 0.904033 
C 4.30459 2.002782 3.817803 3.073713 3.331015 3.365786 
C 2.858136 3.657858 2.13491 3.713491 1.703755 3.49096 
C 1.481224 3.365786 1.439499 3.184979 1.439499 2.308762 
C 1.439499 1.752434 1.495132 1.126565 1.578581 0.93185 
C 1.703755 0.598053 1.787204 0.570236 2.579972 0.556328 
C 3.066759 0.54242 3.650904 0.486787 3.873435 0.431154 
C 4.109875 0.375522 4.346314 0.319889 4.415855 0.305981 
C 4.485396 0.305981 4.499305 0.570236 4.45758 0.904033 
L 4.45758 0.904033 
z
" style="stroke: #4685fa; stroke-width: 0.5"/>
    </defs>
    <g clip-path="url(#pdb8aa304a8)">
     <use xlink:href="#mfa6c9de2f6" x="101.635157" y="54.718135" style="fill: #4685fa; stroke: #4685fa; stroke-width: 0.5"/>
     <use xlink:href="#mfa6c9de2f6" x="102.739493" y="33.358027" style="fill: #4685fa; stroke: #4685fa; stroke-width: 0.5"/>
     <use xlink:href="#mfa6c9de2f6" x="104.091654" y="62.242912" style="fill: #4685fa; stroke: #4685fa; stroke-width: 0.5"/>
     <use xlink:href="#mfa6c9de2f6" x="107.444511" y="47.343812" style="fill: #4685fa; stroke: #4685fa; stroke-width: 0.5"/>
     <use xlink:href="#mfa6c9de2f6" x="108.678174" y="31.196587" style="fill: #4685fa; stroke: #4685fa; stroke-width: 0.5"/>
     <use xlink:href="#mfa6c9de2f6" x="110.016562" y="63.185893" style="fill: #4685fa; stroke: #4685fa; stroke-width: 0.5"/>
     <use xlink:href="#mfa6c9de2f6" x="113.38887" y="45.411231" style="fill: #4685fa; stroke: #4685fa; stroke-width: 0.5"/>
     <use xlink:href="#mfa6c9de2f6" x="114.650922" y="30.408297" style="fill: #4685fa; stroke: #4685fa; stroke-width: 0.5"/>
     <use xlink:href="#mfa6c9de2f6" x="115.994357" y="62.601033" style="fill: #4685fa; stroke: #4685fa; stroke-width: 0.5"/>
     <use xlink:href="#mfa6c9de2f6" x="119.356571" y="44.419511" style="fill: #4685fa; stroke: #4685fa; stroke-width: 0.5"/>
     <use xlink:href="#mfa6c9de2f6" x="120.929822" y="32.549757" style="fill: #4685fa; stroke: #4685fa; stroke-width: 0.5"/>
     <use xlink:href="#mfa6c9de2f6" x="121.909066" y="59.473303" style="fill: #4685fa; stroke: #4685fa; stroke-width: 0.5"/>
     <use xlink:href="#mfa6c9de2f6" x="125.683469" y="44.038081" style="fill: #4685fa; stroke: #4685fa; stroke-width: 0.5"/>
     <use xlink:href="#mfa6c9de2f6" x="125.469183" y="36.094155" style="fill: #4685fa; stroke: #4685fa; stroke-width: 0.5"/>
     <use xlink:href="#mfa6c9de2f6" x="127.243454" y="53.082222" style="fill: #4685fa; stroke: #4685fa; stroke-width: 0.5"/>
     <use xlink:href="#mfa6c9de2f6" x="127.811382" y="57.500035" style="fill: #4685fa; stroke: #4685fa; stroke-width: 0.5"/>
     <use xlink:href="#mfa6c9de2f6" x="129.017689" y="63.947301" style="fill: #4685fa; stroke: #4685fa; stroke-width: 0.5"/>
    </g>
   </g>
   <g id="PathCollection_3">
    <defs>
     <path id="m9961b6971e" d="M -2.503121 -3.102372 
C -4.538077 -2.715356 -5 -2.240949 -4.88764 -0.655431 
C -4.737828 1.629213 -3.564295 2.740325 -0.917603 3.114856 
C 0.268414 3.277154 1.691635 3.102372 2.652934 2.652934 
C 3.514357 2.265918 4.625468 1.167291 4.80025 0.518102 
C 5 -0.193508 4.975031 -1.604245 4.750312 -2.01623 
C 4.463171 -2.590512 4.225968 -2.590512 3.426966 -2.028714 
C 3.027466 -1.754057 2.565543 -1.529338 2.378277 -1.529338 
C 1.853933 -1.529338 1.342072 -1.866417 1.067416 -2.403246 
C 0.930087 -2.677903 0.717853 -2.952559 0.580524 -3.014981 
C 0.181024 -3.2397 -1.554307 -3.277154 -2.503121 -3.102372 
L -2.503121 -3.102372 
z
M 0.318352 -2.790262 
C 0.780275 -2.665418 0.805243 -2.141074 0.380774 -1.803995 
C -0.468165 -1.129838 -2.740325 -0.705368 -3.714107 -1.017478 
C -4.612984 -1.317104 -4.712859 -1.941323 -3.926342 -2.340824 
C -3.03995 -2.802747 -0.630462 -3.052434 0.318352 -2.790262 
L 0.318352 -2.790262 
z
M 4.313358 -1.953808 
C 4.313358 -1.579276 4.038702 -1.254682 3.327091 -0.792759 
C 2.41573 -0.205993 1.254682 0.156055 0.642946 0.043695 
C 0.106117 -0.05618 0.043695 -0.36829 0.543071 -0.468165 
C 1.604245 -0.705368 2.652934 -1.129838 3.35206 -1.604245 
C 4.200999 -2.203496 4.313358 -2.240949 4.313358 -1.953808 
L 4.313358 -1.953808 
z
M 1.416979 -1.541823 
C 1.916355 -1.117353 1.841448 -1.054931 0.530587 -0.830212 
C 0.143571 -0.76779 0.018727 -0.667915 -0.181024 -0.280899 
C -0.318352 -0.006242 -0.56804 0.243446 -0.792759 0.343321 
C -1.004994 0.430712 -1.179775 0.543071 -1.179775 0.605493 
C -1.179775 0.792759 -0.792759 0.730337 -0.36829 0.468165 
C -0.043695 0.268414 0.093633 0.243446 0.480649 0.355805 
C 1.354557 0.593009 3.2397 -0.106117 4.138577 -0.992509 
C 4.363296 -1.204744 4.575531 -1.354557 4.612984 -1.317104 
C 4.725343 -1.19226 4.700375 -0.143571 4.563046 0.355805 
C 4.400749 0.930087 3.414482 1.928839 2.627965 2.290886 
C 1.242197 2.940075 -0.830212 2.990012 -2.365793 2.41573 
C -3.414482 2.01623 -3.951311 1.616729 -4.225968 1.029963 
C -4.475655 0.518102 -4.700375 -0.6804 -4.575531 -0.805243 
C -4.525593 -0.842697 -4.163546 -0.805243 -3.751561 -0.692884 
C -3.15231 -0.543071 -2.8402 -0.530587 -1.941323 -0.655431 
C -0.88015 -0.792759 0.25593 -1.217228 0.56804 -1.59176 
C 0.780275 -1.841448 1.067416 -1.816479 1.416979 -1.541823 
L 1.416979 -1.541823 
z
" style="stroke: #28bceb; stroke-width: 0.5"/>
    </defs>
    <g clip-path="url(#pdb8aa304a8)">
     <use xlink:href="#m9961b6971e" x="144.799502" y="59.90559" style="fill: #28bceb; stroke: #28bceb; stroke-width: 0.5"/>
     <use xlink:href="#m9961b6971e" x="146.547271" y="37.294934" style="fill: #28bceb; stroke: #28bceb; stroke-width: 0.5"/>
     <use xlink:href="#m9961b6971e" x="149.303588" y="43.834651" style="fill: #28bceb; stroke: #28bceb; stroke-width: 0.5"/>
     <use xlink:href="#m9961b6971e" x="150.847324" y="62.143316" style="fill: #28bceb; stroke: #28bceb; stroke-width: 0.5"/>
     <use xlink:href="#m9961b6971e" x="152.252268" y="30.9423" style="fill: #28bceb; stroke: #28bceb; stroke-width: 0.5"/>
     <use xlink:href="#m9961b6971e" x="155.336269" y="45.462088" style="fill: #28bceb; stroke: #28bceb; stroke-width: 0.5"/>
     <use xlink:href="#m9961b6971e" x="156.868018" y="63.287608" style="fill: #28bceb; stroke: #28bceb; stroke-width: 0.5"/>
     <use xlink:href="#m9961b6971e" x="158.229433" y="30.332011" style="fill: #28bceb; stroke: #28bceb; stroke-width: 0.5"/>
     <use xlink:href="#m9961b6971e" x="161.365796" y="46.962382" style="fill: #28bceb; stroke: #28bceb; stroke-width: 0.5"/>
     <use xlink:href="#m9961b6971e" x="162.856538" y="63.135036" style="fill: #28bceb; stroke: #28bceb; stroke-width: 0.5"/>
     <use xlink:href="#m9961b6971e" x="164.246342" y="31.32373" style="fill: #28bceb; stroke: #28bceb; stroke-width: 0.5"/>
     <use xlink:href="#m9961b6971e" x="167.421451" y="49.515847" style="fill: #28bceb; stroke: #28bceb; stroke-width: 0.5"/>
     <use xlink:href="#m9961b6971e" x="169.251924" y="60.561288" style="fill: #28bceb; stroke: #28bceb; stroke-width: 0.5"/>
     <use xlink:href="#m9961b6971e" x="169.461102" y="32.919381" style="fill: #28bceb; stroke: #28bceb; stroke-width: 0.5"/>
     <use xlink:href="#m9961b6971e" x="171.463904" y="55.374935" style="fill: #28bceb; stroke: #28bceb; stroke-width: 0.5"/>
     <use xlink:href="#m9961b6971e" x="172.406942" y="52.849126" style="fill: #28bceb; stroke: #28bceb; stroke-width: 0.5"/>
    </g>
   </g>
   <g id="PathCollection_4">
    <defs>
     <path id="m982384df9e" d="M -4.057592 -1.993892 
C -4.1274 -1.941536 -4.179756 -1.75829 -4.179756 -1.58377 
C -4.179756 -1.304538 -4.240838 -1.217277 -4.589878 -0.964223 
L -5 -0.676265 
L -5 -0.039267 
C -5 0.597731 -5 0.606457 -4.642234 0.833333 
C -4.363002 1.007853 -4.284468 1.121291 -4.284468 1.304538 
C -4.284468 1.958988 -3.621291 2.229494 -3.368237 1.688482 
C -3.307155 1.566318 -3.254799 1.348168 -3.254799 1.217277 
C -3.254799 1.016579 -3.202443 0.955497 -3.010471 0.920593 
C -2.652705 0.859511 -2.539267 0.938045 -2.539267 1.234729 
C -2.539267 1.505236 -2.382199 1.775742 -2.190227 1.871728 
C -1.832461 2.046248 -1.404887 1.819372 -1.404887 1.444154 
C -1.404887 1.068935 -1.308901 0.964223 -0.994764 0.964223 
C -0.724258 0.964223 -0.69808 0.990401 -0.593368 1.348168 
C -0.445026 1.80192 -0.322862 1.924084 -0.026178 1.924084 
C 0.30541 1.924084 0.445026 1.784468 0.445026 1.479058 
C 0.445026 1.130017 0.636998 0.938045 0.968586 0.972949 
C 1.186736 0.999127 1.212914 1.042757 1.247818 1.330716 
C 1.291449 1.71466 1.413613 1.854276 1.745201 1.854276 
C 2.033159 1.854276 2.129145 1.75829 2.198953 1.374346 
C 2.242583 1.121291 2.294939 1.077661 2.521815 1.051483 
C 2.879581 1.025305 3.132635 1.217277 3.132635 1.513962 
C 3.132635 1.828098 3.446771 2.037522 3.795812 1.97644 
C 4.066318 1.93281 4.092496 1.880454 4.223386 1.313264 
C 4.267016 1.112565 4.354276 1.007853 4.537522 0.946771 
C 4.86911 0.842059 5 0.527923 5 -0.100349 
C 5 -0.589005 4.991274 -0.623909 4.642234 -0.850785 
C 4.354276 -1.042757 4.284468 -1.147469 4.284468 -1.374346 
C 4.284468 -1.784468 4.1274 -1.941536 3.726003 -1.941536 
C 3.333333 -1.941536 3.254799 -1.854276 3.254799 -1.435428 
C 3.254799 -1.034031 3.141361 -0.946771 2.705061 -1.007853 
C 2.312391 -1.060209 2.216405 -1.156195 2.216405 -1.531414 
C 2.216405 -1.819372 2.024433 -1.958988 1.640489 -1.924084 
C 1.378709 -1.897906 1.343805 -1.863002 1.239092 -1.49651 
C 1.169284 -1.199825 1.082024 -1.077661 0.951134 -1.068935 
C 0.65445 -1.025305 0.462478 -1.191099 0.462478 -1.505236 
C 0.462478 -1.810646 0.253054 -2.02007 -0.052356 -2.02007 
C -0.340314 -2.02007 -0.541012 -1.836824 -0.619546 -1.487784 
C -0.663176 -1.313264 -0.74171 -1.147469 -0.802792 -1.112565 
C -1.038394 -1.007853 -1.256545 -1.191099 -1.317627 -1.54014 
C -1.369983 -1.915358 -1.492147 -2.011344 -1.919721 -2.011344 
C -2.277487 -2.011344 -2.408377 -1.88918 -2.443281 -1.487784 
C -2.478185 -1.182373 -2.495637 -1.156195 -2.774869 -1.130017 
C -3.123909 -1.103839 -3.246073 -1.208551 -3.246073 -1.566318 
C -3.246073 -1.97644 -3.734729 -2.229494 -4.057592 -1.993892 
L -4.057592 -1.993892 
z
M -3.507853 -1.609948 
C -3.411867 -1.269634 -3.499127 1.479058 -3.603839 1.653578 
C -3.656195 1.732112 -3.752182 1.775742 -3.813264 1.75829 
C -3.935428 1.732112 -4.04014 -1.36562 -3.926702 -1.697208 
C -3.839442 -1.950262 -3.577661 -1.897906 -3.507853 -1.609948 
L -3.507853 -1.609948 
z
M -1.719023 -1.775742 
C -1.588133 -1.679756 -1.535777 1.199825 -1.657941 1.531414 
C -1.727749 1.723386 -2.059337 1.75829 -2.155323 1.58377 
C -2.190227 1.513962 -2.216405 0.763525 -2.216405 -0.109075 
C -2.216405 -1.609948 -2.172775 -1.863002 -1.902269 -1.863002 
C -1.876091 -1.863002 -1.797557 -1.828098 -1.719023 -1.775742 
z
M 0.200698 -1.6274 
C 0.322862 -1.295812 0.270506 1.58377 0.139616 1.688482 
C -0.052356 1.828098 -0.13089 1.793194 -0.244328 1.49651 
C -0.39267 1.130017 -0.39267 -1.45288 -0.253054 -1.644852 
C -0.113438 -1.836824 0.113438 -1.828098 0.200698 -1.6274 
L 0.200698 -1.6274 
z
M 3.917976 -1.67103 
C 3.95288 -1.601222 3.979058 -0.824607 3.979058 0.065445 
C 3.979058 1.732112 3.926702 1.93281 3.568935 1.775742 
C 3.446771 1.723386 3.420593 1.435428 3.446771 0.091623 
C 3.455497 -0.798429 3.499127 -1.58377 3.525305 -1.662304 
C 3.595113 -1.819372 3.839442 -1.828098 3.917976 -1.67103 
L 3.917976 -1.67103 
z
M 1.980803 -1.513962 
C 2.085515 -1.243455 1.937173 1.566318 1.823735 1.653578 
C 1.771379 1.688482 1.710297 1.688482 1.666667 1.644852 
C 1.588133 1.548866 1.500873 -1.470332 1.570681 -1.609948 
C 1.666667 -1.784468 1.902269 -1.723386 1.980803 -1.513962 
L 1.980803 -1.513962 
z
M -4.179756 -0.239965 
C -4.179756 0.431937 -4.249564 0.667539 -4.450262 0.667539 
C -4.677138 0.667539 -4.799302 0.405759 -4.799302 -0.109075 
C -4.799302 -0.501745 -4.755672 -0.632635 -4.589878 -0.746073 
C -4.467714 -0.833333 -4.328098 -0.876963 -4.275742 -0.859511 
C -4.223386 -0.833333 -4.179756 -0.554101 -4.179756 -0.239965 
L -4.179756 -0.239965 
z
M -2.443281 -0.379581 
C -2.390925 0.519197 -2.652705 0.929319 -3.080279 0.615183 
C -3.228621 0.510471 -3.246073 0.397033 -3.193717 -0.109075 
C -3.115183 -0.885689 -3.089005 -0.911867 -2.757417 -0.885689 
C -2.486911 -0.859511 -2.478185 -0.842059 -2.443281 -0.379581 
L -2.443281 -0.379581 
z
M 1.099476 -0.824607 
C 1.273997 -0.746073 1.291449 -0.658813 1.291449 -0.013089 
C 1.291449 0.711169 1.291449 0.719895 1.020942 0.763525 
C 0.558464 0.850785 0.462478 0.711169 0.462478 -0.056719 
C 0.462478 -0.632635 0.497382 -0.763525 0.645724 -0.824607 
C 0.8726 -0.911867 0.863874 -0.911867 1.099476 -0.824607 
z
M -0.619546 -0.196335 
C -0.52356 0.580279 -0.584642 0.754799 -0.95986 0.728621 
C -1.239092 0.702443 -1.239092 0.702443 -1.273997 0.047993 
C -1.308901 -0.728621 -1.273997 -0.815881 -0.942408 -0.815881 
C -0.69808 -0.824607 -0.689354 -0.789703 -0.619546 -0.196335 
L -0.619546 -0.196335 
z
M 3.132635 -0.117801 
C 3.176265 0.807155 3.123909 0.911867 2.722513 0.850785 
C 2.539267 0.824607 2.347295 0.763525 2.312391 0.711169 
C 2.207679 0.597731 2.198953 -0.711169 2.303665 -0.780977 
C 2.347295 -0.807155 2.539267 -0.824607 2.748691 -0.807155 
L 3.106457 -0.780977 
L 3.132635 -0.117801 
z
M 4.659686 -0.510471 
C 4.78185 -0.222513 4.755672 0.571553 4.598604 0.702443 
C 4.528796 0.772251 4.424084 0.789703 4.380454 0.763525 
C 4.319372 0.719895 4.249564 -0.318499 4.275742 -0.615183 
C 4.30192 -0.746073 4.589878 -0.658813 4.659686 -0.510471 
z
" style="stroke: #1ae4b6; stroke-width: 0.5"/>
    </defs>
    <g clip-path="url(#pdb8aa304a8)">
     <use xlink:href="#m982384df9e" x="187.67207" y="31.374588" style="fill: #1ae4b6; stroke: #1ae4b6; stroke-width: 0.5"/>
     <use xlink:href="#m982384df9e" x="194.122296" y="31.011321" style="fill: #1ae4b6; stroke: #1ae4b6; stroke-width: 0.5"/>
     <use xlink:href="#m982384df9e" x="198.022766" y="36.2682" style="fill: #1ae4b6; stroke: #1ae4b6; stroke-width: 0.5"/>
     <use xlink:href="#m982384df9e" x="197.814544" y="44.953514" style="fill: #1ae4b6; stroke: #1ae4b6; stroke-width: 0.5"/>
     <use xlink:href="#m982384df9e" x="197.743545" y="51.240761" style="fill: #1ae4b6; stroke: #1ae4b6; stroke-width: 0.5"/>
     <use xlink:href="#m982384df9e" x="197.873271" y="22.779687" style="fill: #1ae4b6; stroke: #1ae4b6; stroke-width: 0.5"/>
     <use xlink:href="#m982384df9e" x="199.249525" y="58.878554" style="fill: #1ae4b6; stroke: #1ae4b6; stroke-width: 0.5"/>
     <use xlink:href="#m982384df9e" x="203.464919" y="31.171158" style="fill: #1ae4b6; stroke: #1ae4b6; stroke-width: 0.5"/>
     <use xlink:href="#m982384df9e" x="204.113478" y="62.802343" style="fill: #1ae4b6; stroke: #1ae4b6; stroke-width: 0.5"/>
     <use xlink:href="#m982384df9e" x="209.457224" y="31.171158" style="fill: #1ae4b6; stroke: #1ae4b6; stroke-width: 0.5"/>
     <use xlink:href="#m982384df9e" x="210.254642" y="63.313036" style="fill: #1ae4b6; stroke: #1ae4b6; stroke-width: 0.5"/>
     <use xlink:href="#m982384df9e" x="215.177152" y="31.171158" style="fill: #1ae4b6; stroke: #1ae4b6; stroke-width: 0.5"/>
     <use xlink:href="#m982384df9e" x="216.226129" y="62.473889" style="fill: #1ae4b6; stroke: #1ae4b6; stroke-width: 0.5"/>
    </g>
   </g>
   <g id="PathCollection_5">
    <defs>
     <path id="mdbaf84b579" d="M -0.050251 -4.10804 
C -0.125628 -4.10804 -0.326633 -3.919598 -0.515075 -3.693467 
L -0.866834 -3.291457 
L -1.155779 -3.643216 
C -1.507538 -4.057789 -1.658291 -4.070352 -1.959799 -3.693467 
C -2.324121 -3.228643 -2.449749 -3.21608 -2.939698 -3.605528 
C -3.39196 -3.969849 -3.88191 -4.070352 -4.309045 -3.907035 
C -4.547739 -3.819095 -4.572864 -3.21608 -4.371859 -2.81407 
C -4.246231 -2.58794 -4.271357 -2.512563 -4.560302 -2.286432 
C -4.937186 -1.984925 -4.962312 -1.758794 -4.673367 -1.243719 
C -4.459799 -0.879397 -4.459799 -0.854271 -4.673367 -0.615578 
C -5 -0.263819 -4.937186 0.113065 -4.484925 0.464824 
L -4.082915 0.778894 
L -4.359296 1.080402 
C -4.68593 1.432161 -4.711055 1.69598 -4.422111 2.18593 
C -4.221106 2.537688 -4.221106 2.575377 -4.434673 2.939698 
C -4.949749 3.806533 -4.334171 4.258794 -3.341709 3.743719 
C -2.625628 3.379397 -2.462312 3.354271 -2.248744 3.61809 
C -2.047739 3.869347 -1.683417 3.856784 -1.243719 3.592965 
C -0.904523 3.404523 -0.866834 3.404523 -0.565327 3.592965 
C -0.175879 3.856784 0.125628 3.856784 0.439698 3.61809 
C 0.640704 3.467337 0.71608 3.467337 1.030151 3.61809 
C 1.482412 3.856784 1.947236 3.856784 2.148241 3.61809 
C 2.361809 3.366834 2.474874 3.379397 2.776382 3.680905 
C 3.090452 3.994975 4.045226 4.032663 4.334171 3.731156 
C 4.610553 3.467337 4.585427 3.015075 4.28392 2.738693 
C 3.932161 2.424623 3.969849 2.211055 4.409548 1.984925 
C 4.861809 1.758794 4.886935 1.482412 4.51005 1.080402 
L 4.233668 0.791457 
L 4.572864 0.439698 
C 4.987437 0 5 -0.138191 4.59799 -0.615578 
C 4.422111 -0.816583 4.28392 -1.030151 4.28392 -1.080402 
C 4.28392 -1.130653 4.422111 -1.306533 4.59799 -1.469849 
C 4.962312 -1.809045 5 -2.123116 4.711055 -2.361809 
C 4.560302 -2.487437 4.522613 -2.663317 4.585427 -3.065327 
C 4.711055 -3.982412 4.120603 -4.258794 3.253769 -3.668342 
C 2.688442 -3.291457 2.386935 -3.266332 2.085427 -3.605528 
C 1.796482 -3.919598 1.582915 -3.919598 1.168342 -3.605528 
L 0.854271 -3.341709 
L 0.452261 -3.731156 
C 0.238693 -3.932161 0.012563 -4.10804 -0.050251 -4.10804 
L -0.050251 -4.10804 
z
M -3.844221 -3.605528 
C -3.643216 -3.61809 -3.354271 -3.479899 -3.128141 -3.228643 
C -2.713568 -2.776382 -2.311558 -2.751256 -1.896985 -3.128141 
L -1.60804 -3.417085 
L -1.38191 -3.115578 
C -1.20603 -2.876884 -1.080402 -2.839196 -0.829146 -2.90201 
C -0.640704 -2.939698 -0.439698 -3.090452 -0.364322 -3.228643 
C -0.188442 -3.555276 0.163317 -3.555276 0.452261 -3.228643 
C 0.728643 -2.927136 0.979899 -2.914573 1.29397 -3.190955 
C 1.494975 -3.366834 1.582915 -3.379397 1.78392 -3.253769 
C 1.909548 -3.165829 2.135678 -3.027638 2.273869 -2.952261 
C 2.487437 -2.81407 2.58794 -2.826633 2.876884 -3.002513 
C 4.070352 -3.756281 4.409548 -3.756281 4.145729 -2.977387 
C 4.032663 -2.663317 4.032663 -2.512563 4.145729 -2.336683 
C 4.334171 -2.01005 4.321608 -1.871859 4.032663 -1.507538 
C 3.70603 -1.092965 3.70603 -1.092965 4.158291 -0.515075 
L 4.547739 -0.037688 
L 4.158291 0.263819 
C 3.731156 0.603015 3.693467 0.791457 3.994975 1.256281 
C 4.19598 1.570352 4.19598 1.582915 3.869347 1.821608 
C 3.467337 2.110553 3.442211 2.424623 3.781407 2.738693 
C 3.919598 2.864322 4.032663 3.065327 4.032663 3.203518 
C 4.032663 3.567839 3.266332 3.505025 2.90201 3.115578 
C 2.550251 2.738693 2.336683 2.726131 2.060302 3.052764 
C 1.809045 3.341709 1.432161 3.366834 1.092965 3.115578 
C 0.766332 2.864322 0.527638 2.876884 0.238693 3.140704 
C 0.012563 3.341709 -0.025126 3.341709 -0.351759 3.140704 
C -0.816583 2.864322 -1.092965 2.876884 -1.394472 3.140704 
C -1.595477 3.316583 -1.670854 3.329146 -1.846734 3.203518 
C -2.474874 2.751256 -2.58794 2.751256 -3.203518 3.165829 
C -4.120603 3.768844 -4.309045 3.693467 -3.932161 2.876884 
C -3.731156 2.462312 -3.731156 2.424623 -3.982412 2.035176 
L -4.233668 1.620603 
L -3.969849 1.143216 
L -3.693467 0.653266 
L -4.095477 0.288945 
C -4.572864 -0.150754 -4.59799 -0.226131 -4.258794 -0.439698 
C -3.932161 -0.640704 -3.944724 -0.967337 -4.271357 -1.394472 
L -4.547739 -1.733668 
L -4.133166 -2.072864 
L -3.731156 -2.41206 
L -3.932161 -2.90201 
C -4.045226 -3.165829 -4.095477 -3.429648 -4.057789 -3.492462 
C -4.020101 -3.567839 -3.944724 -3.605528 -3.844221 -3.605528 
z
M 0.527638 -2.336683 
C -0.389447 -2.336683 -1.319095 -2.324121 -1.494975 -2.286432 
C -1.595477 -2.261307 -1.884422 -2.211055 -2.123116 -2.160804 
C -3.027638 -2.01005 -3.065327 -1.934673 -3.015075 0.075377 
C -2.98995 1.482412 -2.939698 1.909548 -2.788945 2.072864 
C -2.613065 2.273869 -2.324121 2.298995 -0.326633 2.298995 
C 2.701005 2.298995 2.81407 2.248744 3.140704 0.565327 
C 3.21608 0.201005 3.278894 -0.339196 3.278894 -0.615578 
C 3.278894 -1.281407 2.851759 -2.173367 2.487437 -2.273869 
C 2.349246 -2.311558 1.444724 -2.336683 0.527638 -2.336683 
z
M 0.389447 -1.959799 
C 1.959799 -1.959799 2.248744 -1.934673 2.5 -1.746231 
C 2.939698 -1.407035 3.052764 -0.690955 2.826633 0.414573 
C 2.600503 1.520101 2.525126 1.620603 1.909548 1.796482 
C 1.20603 1.997487 -2.148241 1.959799 -2.437186 1.746231 
C -2.638191 1.595477 -2.675879 1.394472 -2.675879 0.062814 
C -2.688442 -0.967337 -2.638191 -1.507538 -2.537688 -1.60804 
C -2.286432 -1.859296 -1.545226 -1.947236 0.389447 -1.959799 
z
" style="stroke: #55fa76; stroke-width: 0.5"/>
    </defs>
    <g clip-path="url(#pdb8aa304a8)">
     <use xlink:href="#mdbaf84b579" x="232.92112" y="54.718135" style="fill: #55fa76; stroke: #55fa76; stroke-width: 0.5"/>
     <use xlink:href="#mdbaf84b579" x="234.025455" y="33.358027" style="fill: #55fa76; stroke: #55fa76; stroke-width: 0.5"/>
     <use xlink:href="#mdbaf84b579" x="235.377617" y="62.242912" style="fill: #55fa76; stroke: #55fa76; stroke-width: 0.5"/>
     <use xlink:href="#mdbaf84b579" x="238.730473" y="47.343812" style="fill: #55fa76; stroke: #55fa76; stroke-width: 0.5"/>
     <use xlink:href="#mdbaf84b579" x="239.964137" y="31.196587" style="fill: #55fa76; stroke: #55fa76; stroke-width: 0.5"/>
     <use xlink:href="#mdbaf84b579" x="241.302525" y="63.185893" style="fill: #55fa76; stroke: #55fa76; stroke-width: 0.5"/>
     <use xlink:href="#mdbaf84b579" x="244.674833" y="45.411231" style="fill: #55fa76; stroke: #55fa76; stroke-width: 0.5"/>
     <use xlink:href="#mdbaf84b579" x="245.936885" y="30.408297" style="fill: #55fa76; stroke: #55fa76; stroke-width: 0.5"/>
     <use xlink:href="#mdbaf84b579" x="247.28032" y="62.601033" style="fill: #55fa76; stroke: #55fa76; stroke-width: 0.5"/>
     <use xlink:href="#mdbaf84b579" x="250.642534" y="44.419511" style="fill: #55fa76; stroke: #55fa76; stroke-width: 0.5"/>
     <use xlink:href="#mdbaf84b579" x="252.215785" y="32.549757" style="fill: #55fa76; stroke: #55fa76; stroke-width: 0.5"/>
     <use xlink:href="#mdbaf84b579" x="253.195029" y="59.473303" style="fill: #55fa76; stroke: #55fa76; stroke-width: 0.5"/>
     <use xlink:href="#mdbaf84b579" x="256.969432" y="44.038081" style="fill: #55fa76; stroke: #55fa76; stroke-width: 0.5"/>
     <use xlink:href="#mdbaf84b579" x="256.755146" y="36.094155" style="fill: #55fa76; stroke: #55fa76; stroke-width: 0.5"/>
     <use xlink:href="#mdbaf84b579" x="258.043596" y="48.903681" style="fill: #55fa76; stroke: #55fa76; stroke-width: 0.5"/>
     <use xlink:href="#mdbaf84b579" x="257.819219" y="53.918221" style="fill: #55fa76; stroke: #55fa76; stroke-width: 0.5"/>
     <use xlink:href="#mdbaf84b579" x="257.93474" y="58.57458" style="fill: #55fa76; stroke: #55fa76; stroke-width: 0.5"/>
     <use xlink:href="#mdbaf84b579" x="260.142969" y="63.230938" style="fill: #55fa76; stroke: #55fa76; stroke-width: 0.5"/>
    </g>
   </g>
   <g id="PathCollection_6">
    <defs>
     <path id="m1f0ab89cde" d="M -0.333333 -3.914894 
C -1.340426 -3.914894 -2.304965 -3.829787 -2.602837 -3.659574 
C -3.212766 -3.333333 -4.205674 -2.269504 -4.531915 -1.631206 
C -4.929078 -0.808511 -5 -0.014184 -4.744681 0.907801 
C -4.404255 2.170213 -3.836879 2.865248 -2.716312 3.432624 
C -1.822695 3.886525 -1.652482 3.914894 -0.404255 3.900709 
C 1.212766 3.886525 2.687943 3.460993 3.411348 2.851064 
C 4.106383 2.255319 4.673759 1.234043 4.787234 0.397163 
C 5 -1.191489 3.737589 -3.219858 2.248227 -3.687943 
C 1.737589 -3.815603 0.673759 -3.914894 -0.333333 -3.914894 
L -0.333333 -3.914894 
z
M 1.056738 -3.489362 
C 1.553191 -3.475177 2.06383 -3.333333 2.574468 -3.049645 
C 4.234043 -2.184397 4.843972 -0.283688 3.992908 1.460993 
C 3.652482 2.170213 3.35461 2.453901 2.560284 2.822695 
C 0.687943 3.716312 -1.524823 2.368794 -1.893617 0.099291 
C -2.078014 -0.992908 -1.865248 -1.815603 -1.212766 -2.468085 
C -0.531915 -3.163121 0.248227 -3.503546 1.056738 -3.489362 
L 1.056738 -3.489362 
z
M -1.382979 -3.446809 
C -1.156028 -3.446809 -0.985816 -3.390071 -0.985816 -3.29078 
C -0.985816 -3.007092 -1.893617 -2.539007 -2.432624 -2.539007 
C -3.141844 -2.539007 -3.22695 -2.765957 -2.659574 -3.134752 
C -2.347518 -3.347518 -1.765957 -3.460993 -1.382979 -3.446809 
L -1.382979 -3.446809 
z
M 1.141844 -2.992908 
C 0.546099 -3.007092 -0.049645 -2.907801 -0.361702 -2.695035 
C -1.326241 -2.085106 -1.879433 -0.567376 -1.553191 0.496454 
C -1.340426 1.134752 -0.390071 2.326241 0.205674 2.652482 
C 1.099291 3.134752 2.546099 2.836879 3.340426 2 
C 3.964539 1.361702 4.163121 0.70922 4.049645 -0.269504 
C 3.893617 -1.602837 3.439716 -2.283688 2.404255 -2.751773 
C 2.06383 -2.921986 1.595745 -2.992908 1.141844 -2.992908 
L 1.141844 -2.992908 
z
M 0.843972 -2.680851 
C 1.22695 -2.680851 1.680851 -2.638298 1.978723 -2.524823 
C 2.219858 -2.439716 2.41844 -2.283688 2.41844 -2.198582 
C 2.41844 -1.929078 1.70922 -1.06383 1.524823 -1.120567 
C 1.439716 -1.148936 1.184397 -1.205674 0.971631 -1.248227 
C 0.489362 -1.361702 -0.134752 -2.35461 0.163121 -2.553191 
C 0.29078 -2.638298 0.546099 -2.680851 0.843972 -2.680851 
z
M -2.971631 -2.099291 
C -2.51773 -2.099291 -2.120567 -2.056738 -2.06383 -2.014184 
C -1.950355 -1.900709 -2.262411 -1.205674 -2.446809 -1.191489 
C -2.744681 -1.148936 -4.163121 -1.234043 -4.219858 -1.29078 
C -4.248227 -1.319149 -4.163121 -1.51773 -4.035461 -1.730496 
C -3.836879 -2.056738 -3.70922 -2.099291 -2.971631 -2.099291 
L -2.971631 -2.099291 
z
M -0.460993 -2.099291 
C -0.361702 -2.099291 -0.148936 -1.858156 0.021277 -1.574468 
C 0.446809 -0.851064 0.234043 -0.453901 -0.560284 -0.453901 
C -0.914894 -0.453901 -1.156028 -0.524823 -1.198582 -0.680851 
C -1.297872 -0.950355 -0.702128 -2.099291 -0.460993 -2.099291 
z
M 2.971631 -1.929078 
C 3.099291 -1.929078 3.198582 -1.829787 3.35461 -1.588652 
C 3.468085 -1.375887 3.553191 -1.06383 3.524823 -0.865248 
C 3.496454 -0.58156 3.382979 -0.524823 2.87234 -0.48227 
C 2.021277 -0.425532 1.921986 -0.950355 2.64539 -1.702128 
C 2.787234 -1.858156 2.886525 -1.929078 2.971631 -1.929078 
L 2.971631 -1.929078 
z
M 0.971631 -0.893617 
C 1.141844 -0.893617 1.326241 -0.808511 1.48227 -0.624113 
C 1.765957 -0.297872 1.680851 0.212766 1.326241 0.35461 
C 1.028369 0.468085 0.432624 0.056738 0.432624 -0.269504 
C 0.446809 -0.666667 0.687943 -0.893617 0.971631 -0.893617 
L 0.971631 -0.893617 
z
M -3.921986 -0.737589 
C -3.794326 -0.737589 -3.624113 -0.737589 -3.425532 -0.723404 
L -2.475177 -0.680851 
L -2.475177 -0.156028 
L -2.475177 0.368794 
L -3.35461 0.411348 
C -4.120567 0.453901 -4.248227 0.411348 -4.390071 0.141844 
C -4.475177 -0.028369 -4.503546 -0.312057 -4.460993 -0.468085 
C -4.390071 -0.666667 -4.304965 -0.737589 -3.921986 -0.737589 
z
M -0.815603 -0.085106 
C -0.489362 -0.085106 -0.049645 0.028369 0.191489 0.255319 
C 0.51773 0.553191 0.503546 0.794326 0.092199 1.29078 
L -0.248227 1.716312 
L -0.560284 1.41844 
C -0.886525 1.120567 -1.269504 0.425532 -1.269504 0.156028 
C -1.255319 0.014184 -1.070922 -0.070922 -0.815603 -0.085106 
L -0.815603 -0.085106 
z
M 2.886525 0 
C 3.35461 0 3.595745 0.070922 3.652482 0.22695 
C 3.765957 0.524823 3.453901 1.446809 3.212766 1.560284 
C 3.099291 1.602837 2.801418 1.375887 2.51773 1.035461 
C 1.765957 0.156028 1.836879 0 2.886525 0 
z
M -3.425532 0.737589 
C -3.056738 0.737589 -2.602837 0.780142 -2.446809 0.822695 
C -2.163121 0.893617 -1.822695 1.432624 -1.822695 1.77305 
C -1.822695 1.858156 -2.262411 1.929078 -2.815603 1.929078 
C -3.70922 1.929078 -3.822695 1.900709 -4.035461 1.560284 
C -4.390071 0.978723 -4.205674 0.737589 -3.425532 0.737589 
L -3.425532 0.737589 
z
M 1.453901 0.851064 
C 1.751773 0.865248 2.007092 1.092199 2.262411 1.546099 
C 2.489362 1.943262 2.489362 1.985816 2.234043 2.184397 
C 1.879433 2.453901 0.531915 2.468085 0.333333 2.198582 
C 0.120567 1.943262 0.659574 1.106383 1.156028 0.907801 
C 1.255319 0.865248 1.35461 0.851064 1.453901 0.851064 
z
M -2.51773 2.382979 
C -2.078014 2.368794 -1.48227 2.468085 -1.12766 2.666667 
C -0.843972 2.836879 -0.503546 3.06383 -0.390071 3.219858 
C -0.205674 3.460993 -0.248227 3.475177 -1.056738 3.404255 
C -1.950355 3.319149 -3.170213 2.780142 -3.028369 2.539007 
C -2.985816 2.453901 -2.787234 2.382979 -2.51773 2.382979 
z
" style="stroke: #a4fc3c; stroke-width: 0.5"/>
    </defs>
    <g clip-path="url(#pdb8aa304a8)">
     <use xlink:href="#m1f0ab89cde" x="274.319664" y="32.646023" style="fill: #a4fc3c; stroke: #a4fc3c; stroke-width: 0.5"/>
     <use xlink:href="#m1f0ab89cde" x="274.192512" y="38.49971" style="fill: #a4fc3c; stroke: #a4fc3c; stroke-width: 0.5"/>
     <use xlink:href="#m1f0ab89cde" x="274.345182" y="44.653456" style="fill: #a4fc3c; stroke: #a4fc3c; stroke-width: 0.5"/>
     <use xlink:href="#m1f0ab89cde" x="274.497852" y="50.807201" style="fill: #a4fc3c; stroke: #a4fc3c; stroke-width: 0.5"/>
     <use xlink:href="#m1f0ab89cde" x="274.650523" y="56.960947" style="fill: #a4fc3c; stroke: #a4fc3c; stroke-width: 0.5"/>
     <use xlink:href="#m1f0ab89cde" x="274.78862" y="62.52729" style="fill: #a4fc3c; stroke: #a4fc3c; stroke-width: 0.5"/>
     <use xlink:href="#m1f0ab89cde" x="280.293043" y="31.883162" style="fill: #a4fc3c; stroke: #a4fc3c; stroke-width: 0.5"/>
     <use xlink:href="#m1f0ab89cde" x="286.279828" y="31.660661" style="fill: #a4fc3c; stroke: #a4fc3c; stroke-width: 0.5"/>
     <use xlink:href="#m1f0ab89cde" x="290.047139" y="38.041675" style="fill: #a4fc3c; stroke: #a4fc3c; stroke-width: 0.5"/>
     <use xlink:href="#m1f0ab89cde" x="289.628857" y="45.884205" style="fill: #a4fc3c; stroke: #a4fc3c; stroke-width: 0.5"/>
     <use xlink:href="#m1f0ab89cde" x="289.781527" y="52.03795" style="fill: #a4fc3c; stroke: #a4fc3c; stroke-width: 0.5"/>
     <use xlink:href="#m1f0ab89cde" x="289.934198" y="58.191696" style="fill: #a4fc3c; stroke: #a4fc3c; stroke-width: 0.5"/>
     <use xlink:href="#m1f0ab89cde" x="290.057028" y="63.142664" style="fill: #a4fc3c; stroke: #a4fc3c; stroke-width: 0.5"/>
     <use xlink:href="#m1f0ab89cde" x="295.544291" y="31.806876" style="fill: #a4fc3c; stroke: #a4fc3c; stroke-width: 0.5"/>
     <use xlink:href="#m1f0ab89cde" x="301.497604" y="31.924239" style="fill: #a4fc3c; stroke: #a4fc3c; stroke-width: 0.5"/>
     <use xlink:href="#m1f0ab89cde" x="304.987876" y="37.60462" style="fill: #a4fc3c; stroke: #a4fc3c; stroke-width: 0.5"/>
     <use xlink:href="#m1f0ab89cde" x="304.862567" y="45.101001" style="fill: #a4fc3c; stroke: #a4fc3c; stroke-width: 0.5"/>
     <use xlink:href="#m1f0ab89cde" x="305.015237" y="51.254746" style="fill: #a4fc3c; stroke: #a4fc3c; stroke-width: 0.5"/>
     <use xlink:href="#m1f0ab89cde" x="305.167908" y="57.408492" style="fill: #a4fc3c; stroke: #a4fc3c; stroke-width: 0.5"/>
     <use xlink:href="#m1f0ab89cde" x="305.300453" y="62.751062" style="fill: #a4fc3c; stroke: #a4fc3c; stroke-width: 0.5"/>
    </g>
   </g>
   <g id="PathCollection_7">
    <defs>
     <path id="m1c584048a5" d="M -0.571848 -4.714076 
C -0.777126 -4.714076 -0.953079 -4.611437 -1.158358 -4.391496 
C -1.348974 -4.186217 -1.70088 -4.054252 -2.067449 -4.054252 
C -2.55132 -4.054252 -2.697947 -3.966276 -2.917889 -3.482405 
C -3.093842 -3.145161 -3.460411 -2.807918 -3.812317 -2.631965 
C -4.340176 -2.397361 -4.41349 -2.294721 -4.296188 -1.884164 
C -4.222874 -1.532258 -4.296188 -1.326979 -4.560117 -1.092375 
C -4.985337 -0.725806 -5 -0.388563 -4.618768 0.036657 
C -4.354839 0.300587 -4.354839 0.432551 -4.545455 0.960411 
C -4.780059 1.546921 -4.780059 1.590909 -4.237537 2.016129 
C -3.870968 2.324047 -3.695015 2.602639 -3.695015 2.910557 
C -3.695015 3.394428 -3.269795 3.643695 -2.771261 3.453079 
C -2.565982 3.379765 -2.404692 3.526393 -2.170088 3.966276 
C -1.86217 4.640762 -1.818182 4.640762 -1.143695 4.406158 
C -0.791789 4.274194 -0.58651 4.288856 -0.26393 4.494135 
C 0.307918 4.846041 0.630499 4.816716 1.246334 4.318182 
C 1.524927 4.083578 1.950147 3.892962 2.184751 3.892962 
C 2.478006 3.892962 2.653959 3.746334 2.844575 3.335777 
C 2.961877 3.027859 3.284457 2.646628 3.548387 2.485337 
C 3.900293 2.265396 4.002933 2.045455 4.002933 1.605572 
C 4.002933 1.195015 4.120235 0.945748 4.442815 0.711144 
C 4.956012 0.315249 5 -0.095308 4.604106 -0.63783 
C 4.428152 -0.887097 4.398827 -1.092375 4.501466 -1.282991 
C 4.750733 -1.708211 4.57478 -2.07478 3.98827 -2.397361 
C 3.709677 -2.573314 3.475073 -2.837243 3.475073 -3.013196 
C 3.475073 -3.409091 3.196481 -3.643695 2.580645 -3.77566 
C 2.331378 -3.848974 2.038123 -4.083578 1.935484 -4.318182 
C 1.70088 -4.78739 1.451613 -4.846041 0.762463 -4.538123 
C 0.395894 -4.391496 0.219941 -4.391496 -0.043988 -4.538123 
C -0.249267 -4.655425 -0.410557 -4.714076 -0.571848 -4.714076 
L -0.571848 -4.714076 
z
M -0.659824 -4.20088 
C -0.542522 -4.20088 -0.410557 -4.142229 -0.205279 -4.024927 
C 0.043988 -3.878299 0.249267 -3.878299 0.68915 -4.024927 
C 1.246334 -4.215543 1.319648 -4.171554 1.759531 -3.702346 
C 2.02346 -3.438416 2.404692 -3.18915 2.595308 -3.18915 
C 2.844575 -3.18915 2.961877 -3.042522 3.049853 -2.675953 
C 3.123167 -2.353372 3.343109 -2.060117 3.680352 -1.91349 
C 4.134897 -1.678886 4.14956 -1.605572 3.973607 -1.239003 
C 3.812317 -0.90176 3.826979 -0.769795 4.061584 -0.505865 
C 4.442815 -0.080645 4.428152 0.241935 4.002933 0.505865 
C 3.753666 0.63783 3.651026 0.90176 3.651026 1.297654 
C 3.651026 1.766862 3.56305 1.928152 3.13783 2.133431 
C 2.859238 2.280059 2.536657 2.617302 2.44868 2.910557 
C 2.302053 3.262463 2.155425 3.423754 1.876833 3.423754 
C 1.642229 3.423754 1.260997 3.629032 0.997067 3.863636 
C 0.542522 4.288856 0.513196 4.288856 0 4.039589 
C -0.381232 3.848974 -0.659824 3.819648 -1.070381 3.93695 
C -1.554252 4.068915 -1.642229 4.039589 -1.876833 3.599707 
C -2.067449 3.247801 -2.272727 3.08651 -2.697947 3.057185 
C -3.211144 3.013196 -3.269795 2.939883 -3.269795 2.514663 
C -3.284457 2.250733 -3.372434 1.986804 -3.475073 1.957478 
C -4.090909 1.752199 -4.222874 1.48827 -4.017595 0.931085 
C -3.841642 0.491202 -3.841642 0.300587 -4.017595 0.05132 
C -4.296188 -0.388563 -4.281525 -0.711144 -3.958944 -0.960411 
C -3.768328 -1.107038 -3.709677 -1.326979 -3.782991 -1.634897 
C -3.870968 -2.030792 -3.812317 -2.118768 -3.357771 -2.309384 
C -3.049853 -2.426686 -2.756598 -2.705279 -2.653959 -2.998534 
C -2.507331 -3.394428 -2.375367 -3.482405 -1.964809 -3.482405 
C -1.686217 -3.482405 -1.319648 -3.629032 -1.143695 -3.819648 
C -0.953079 -4.09824 -0.821114 -4.20088 -0.659824 -4.20088 
L -0.659824 -4.20088 
z
M 0.733138 -3.18915 
C 0.645161 -3.18915 0.557185 -3.18915 0.454545 -3.18915 
C -0.029326 -3.18915 -0.68915 -3.101173 -0.982405 -2.998534 
C -2.360704 -2.529326 -2.947214 -1.752199 -3.093842 -0.21261 
C -3.240469 1.239003 -2.727273 2.118768 -1.363636 2.778592 
C -0.381232 3.247801 -0.307918 3.247801 0.630499 3.071848 
C 2.375367 2.675953 3.695015 1.033724 3.387097 -0.447214 
C 3.211144 -1.341642 2.903226 -1.869501 2.096774 -2.573314 
C 1.524927 -3.071848 1.319648 -3.174487 0.733138 -3.18915 
L 0.733138 -3.18915 
z
M 0.293255 -2.837243 
C 0.615836 -2.837243 0.909091 -2.76393 1.260997 -2.617302 
C 2.683284 -2.045455 3.40176 0.021994 2.609971 1.253666 
C 2.155425 1.986804 1.627566 2.324047 0.601173 2.573314 
C -2.741935 3.379765 -4.061584 -1.48827 -0.821114 -2.602639 
C -0.366569 -2.76393 -0.014663 -2.837243 0.293255 -2.837243 
z
" style="stroke: #d9e436; stroke-width: 0.5"/>
    </defs>
    <g clip-path="url(#pdb8aa304a8)">
     <use xlink:href="#m1c584048a5" x="320.089338" y="55.016923" style="fill: #d9e436; stroke: #d9e436; stroke-width: 0.5"/>
     <use xlink:href="#m1c584048a5" x="321.731647" y="33.383455" style="fill: #d9e436; stroke: #d9e436; stroke-width: 0.5"/>
     <use xlink:href="#m1c584048a5" x="323.115918" y="62.155053" style="fill: #d9e436; stroke: #d9e436; stroke-width: 0.5"/>
     <use xlink:href="#m1c584048a5" x="325.360403" y="47.903244" style="fill: #d9e436; stroke: #d9e436; stroke-width: 0.5"/>
     <use xlink:href="#m1c584048a5" x="327.669697" y="31.196587" style="fill: #d9e436; stroke: #d9e436; stroke-width: 0.5"/>
     <use xlink:href="#m1c584048a5" x="329.008085" y="63.185893" style="fill: #d9e436; stroke: #d9e436; stroke-width: 0.5"/>
     <use xlink:href="#m1c584048a5" x="331.296561" y="45.640089" style="fill: #d9e436; stroke: #d9e436; stroke-width: 0.5"/>
     <use xlink:href="#m1c584048a5" x="333.642446" y="30.408297" style="fill: #d9e436; stroke: #d9e436; stroke-width: 0.5"/>
     <use xlink:href="#m1c584048a5" x="334.985249" y="62.575604" style="fill: #d9e436; stroke: #d9e436; stroke-width: 0.5"/>
     <use xlink:href="#m1c584048a5" x="337.261108" y="44.521226" style="fill: #d9e436; stroke: #d9e436; stroke-width: 0.5"/>
     <use xlink:href="#m1c584048a5" x="339.921346" y="32.549757" style="fill: #d9e436; stroke: #d9e436; stroke-width: 0.5"/>
     <use xlink:href="#m1c584048a5" x="340.899958" y="59.447874" style="fill: #d9e436; stroke: #d9e436; stroke-width: 0.5"/>
     <use xlink:href="#m1c584048a5" x="343.6578" y="43.742826" style="fill: #d9e436; stroke: #d9e436; stroke-width: 0.5"/>
     <use xlink:href="#m1c584048a5" x="344.898592" y="36.178069" style="fill: #d9e436; stroke: #d9e436; stroke-width: 0.5"/>
     <use xlink:href="#m1c584048a5" x="346.368935" y="52.469512" style="fill: #d9e436; stroke: #d9e436; stroke-width: 0.5"/>
     <use xlink:href="#m1c584048a5" x="347.222418" y="43.47865" style="fill: #d9e436; stroke: #d9e436; stroke-width: 0.5"/>
     <use xlink:href="#m1c584048a5" x="346.892615" y="59.290942" style="fill: #d9e436; stroke: #d9e436; stroke-width: 0.5"/>
     <use xlink:href="#m1c584048a5" x="348.412161" y="64.305482" style="fill: #d9e436; stroke: #d9e436; stroke-width: 0.5"/>
    </g>
   </g>
   <g id="PathCollection_8">
    <defs>
     <path id="m4df014a658" d="M 3.82494 -1.510791 
C 3.808953 -1.510791 3.800959 -1.510791 3.784972 -1.510791 
C 3.760991 -1.502798 2.426059 -1.478817 0.819345 -1.454836 
C -2.873701 -1.406875 -4.816147 -1.334932 -4.904077 -1.254996 
C -4.944045 -1.223022 -4.976019 -1.127098 -4.976019 -1.055156 
C -4.976019 -0.751399 -5 -0.751399 -1.826539 -0.831335 
C -0.203837 -0.863309 1.754596 -0.903277 2.513989 -0.903277 
C 3.872902 -0.903277 3.896882 -0.903277 3.984812 -1.039169 
C 4.040767 -1.119105 4.080735 -1.231015 4.080735 -1.28697 
C 4.056755 -1.3749 3.928857 -1.494804 3.82494 -1.510791 
L 3.82494 -1.510791 
z
M 3.792966 -1.326938 
C 3.840927 -1.318945 3.872902 -1.294964 3.872902 -1.239009 
C 3.872902 -1.183054 3.848921 -1.127098 3.800959 -1.103118 
C 3.721023 -1.055156 3.601119 -1.17506 3.649081 -1.254996 
C 3.697042 -1.310951 3.745004 -1.334932 3.792966 -1.326938 
z
M 1.618705 -1.294964 
C 3.185452 -1.294964 3.433253 -1.278977 3.433253 -1.207034 
C 3.433253 -1.095124 2.609912 -1.063149 -1.794564 -0.991207 
C -4.40048 -0.959233 -4.816147 -0.959233 -4.816147 -1.039169 
C -4.816147 -1.111111 -4.584333 -1.127098 -3.489209 -1.17506 
C -2.761791 -1.207034 -1.730616 -1.239009 -1.18705 -1.26299 
C -0.635492 -1.278977 0.611511 -1.294964 1.618705 -1.294964 
L 1.618705 -1.294964 
z
M 0.083933 -0.511591 
C -1.235012 -0.511591 -2.458034 -0.495604 -2.993605 -0.479616 
C -4.072742 -0.439648 -4.120703 -0.431655 -4.232614 -0.28777 
C -4.368505 -0.103917 -4.368505 0.055955 -4.22462 0.159872 
C -4.080735 0.263789 4.408473 0.255795 4.672262 0.151878 
C 4.91207 0.055955 5 -0.335731 4.816147 -0.463629 
C 4.760192 -0.503597 2.290168 -0.519584 0.083933 -0.511591 
z
M -0.331735 -0.327738 
C 1.770584 -0.327738 4.248601 -0.295763 4.304556 -0.263789 
C 4.40048 -0.207834 4.368505 0 4.256595 0.039968 
C 4.192646 0.055955 2.298161 0.071942 0.043965 0.063949 
C -3.721023 0.047962 -4.064748 0.031974 -4.080735 -0.055955 
C -4.096723 -0.11191 -4.056755 -0.183853 -4.016787 -0.19984 
C -3.976819 -0.231815 -3.553157 -0.271783 -3.073541 -0.28777 
C -2.713829 -0.327738 -1.586731 -0.327738 -0.331735 -0.327738 
L -0.331735 -0.327738 
z
M 4.624301 -0.295763 
C 4.672262 -0.303757 4.720224 -0.279776 4.744205 -0.231815 
C 4.80016 -0.143885 4.672262 -0.023981 4.568345 -0.071942 
C 4.51239 -0.103917 4.496403 -0.159872 4.504396 -0.207834 
C 4.528377 -0.263789 4.576339 -0.28777 4.624301 -0.295763 
L 4.624301 -0.295763 
z
M 2.729816 0.615508 
C 2.058353 0.615508 1.019185 0.623501 -0.619504 0.639488 
C -3.976819 0.671463 -4.752198 0.68745 -4.832134 0.759392 
C -4.952038 0.863309 -4.952038 1.159073 -4.840128 1.26299 
C -4.768185 1.326938 -3.832934 1.350919 -0.627498 1.350919 
C 1.634692 1.358913 3.553157 1.382894 3.6251 1.414868 
C 3.904876 1.510791 4.208633 0.911271 3.984812 0.711431 
C 3.904876 0.647482 3.840927 0.615508 2.729816 0.615508 
z
M 3.281375 0.77538 
C 3.297362 0.77538 3.329337 0.791367 3.369305 0.807354 
C 3.42526 0.839329 3.465228 0.919265 3.465228 1.015188 
L 3.465228 1.199041 
L 0.123901 1.183054 
C -1.722622 1.17506 -3.545164 1.183054 -3.920863 1.207034 
C -4.528377 1.239009 -4.632294 1.231015 -4.728217 1.127098 
C -4.968026 0.863309 -4.88809 0.863309 -0.707434 0.823341 
C 1.466827 0.799361 3.265388 0.783373 3.281375 0.77538 
C 3.273381 0.77538 3.273381 0.77538 3.281375 0.77538 
z
M 3.760991 0.823341 
C 3.792966 0.823341 3.832934 0.863309 3.864908 0.919265 
C 3.91287 1.047162 3.816946 1.143086 3.71303 1.071143 
C 3.617106 1.023181 3.657074 0.823341 3.760991 0.823341 
z
" style="stroke: #faba39; stroke-width: 0.5"/>
    </defs>
    <g clip-path="url(#pdb8aa304a8)">
     <use xlink:href="#m4df014a658" x="367.736319" y="32.290021" style="fill: #faba39; stroke: #faba39; stroke-width: 0.5"/>
     <use xlink:href="#m4df014a658" x="368.165152" y="38.596339" style="fill: #faba39; stroke: #faba39; stroke-width: 0.5"/>
     <use xlink:href="#m4df014a658" x="368.317823" y="44.750085" style="fill: #faba39; stroke: #faba39; stroke-width: 0.5"/>
     <use xlink:href="#m4df014a658" x="368.470493" y="50.90383" style="fill: #faba39; stroke: #faba39; stroke-width: 0.5"/>
     <use xlink:href="#m4df014a658" x="368.623163" y="57.057576" style="fill: #faba39; stroke: #faba39; stroke-width: 0.5"/>
     <use xlink:href="#m4df014a658" x="368.536103" y="62.331489" style="fill: #faba39; stroke: #faba39; stroke-width: 0.5"/>
     <use xlink:href="#m4df014a658" x="373.626897" y="37.172332" style="fill: #faba39; stroke: #faba39; stroke-width: 0.5"/>
     <use xlink:href="#m4df014a658" x="379.444137" y="32.11202" style="fill: #faba39; stroke: #faba39; stroke-width: 0.5"/>
     <use xlink:href="#m4df014a658" x="385.399852" y="30.637155" style="fill: #faba39; stroke: #faba39; stroke-width: 0.5"/>
     <use xlink:href="#m4df014a658" x="390.85294" y="30.860363" style="fill: #faba39; stroke: #faba39; stroke-width: 0.5"/>
    </g>
   </g>
   <g id="PathCollection_9">
    <defs>
     <path id="m1658d20a3e" d="M -1.144244 -3.467406 
C -1.338419 -2.9681 -1.504854 -2.829404 -1.948682 -2.829404 
C -2.128988 -2.829404 -2.434119 -2.662968 -2.614424 -2.454924 
C -2.864078 -2.177531 -3.085992 -2.080444 -3.52982 -2.080444 
C -4.237171 -2.080444 -4.597781 -1.733703 -4.819695 -0.887656 
C -5 -0.166436 -4.889043 0.859917 -4.514563 1.775312 
C -4.195562 2.524272 -4.167822 2.995839 -4.403606 3.231623 
C -4.500693 3.32871 -4.528433 3.495146 -4.486824 3.633842 
C -4.417476 3.828017 -3.723994 3.869626 -2.711512 3.730929 
C -2.628294 3.730929 -2.281553 3.481276 -1.948682 3.190014 
L -1.366158 2.690707 
L -0.839112 3.051318 
C -0.104022 3.536755 0.963939 3.744799 1.990291 3.564494 
C 2.975035 3.398058 3.085992 3.287101 3.099861 2.565881 
C 3.113731 2.080444 3.15534 1.997226 3.585298 1.900139 
C 3.987517 1.775312 4.042996 1.705964 4.042996 1.262136 
C 4.042996 0.846047 4.112344 0.707351 4.472954 0.513176 
C 4.958391 0.249653 5 0.027739 4.667129 -0.624133 
C 4.472954 -1.026352 4.472954 -1.206657 4.61165 -1.914008 
C 4.694868 -2.371706 4.750347 -2.95423 4.722607 -3.190014 
C 4.680999 -3.578363 4.61165 -3.633842 4.195562 -3.675451 
C 3.918169 -3.70319 3.418863 -3.619972 3.085992 -3.481276 
C 2.503467 -3.245492 2.461859 -3.245492 2.101248 -3.536755 
C 1.768377 -3.800277 1.518724 -3.841886 0.367545 -3.841886 
C -0.9362 -3.869626 -0.963939 -3.869626 -1.144244 -3.467406 
L -1.144244 -3.467406 
z
M 1.102635 -3.439667 
C 1.158114 -3.370319 1.144244 -3.190014 1.102635 -3.051318 
C 0.977809 -2.704577 -0.714286 -2.787795 -0.783634 -3.148405 
C -0.811373 -3.287101 -0.714286 -3.411928 -0.575589 -3.453537 
C -0.090153 -3.606103 1.033287 -3.578363 1.102635 -3.439667 
z
M 2.087379 -2.95423 
C 2.531207 -2.23301 2.642164 -1.622746 2.42025 -1.248266 
C 2.295423 -1.067961 2.128988 -0.901526 2.059639 -0.901526 
C 1.893204 -0.901526 1.255201 -2.399445 1.324549 -2.676838 
C 1.380028 -2.940361 1.629681 -3.273232 1.768377 -3.273232 
C 1.823856 -3.273232 1.962552 -3.134535 2.087379 -2.95423 
L 2.087379 -2.95423 
z
M 4.334258 -2.773925 
C 4.334258 -2.510402 4.26491 -2.080444 4.181692 -1.803051 
C 4.056865 -1.414702 3.973648 -1.345354 3.710125 -1.428571 
C 3.280166 -1.567268 2.933426 -1.927878 2.836338 -2.413315 
C 2.753121 -2.746186 2.808599 -2.843273 3.15534 -3.037448 
C 3.363384 -3.162275 3.723994 -3.259362 3.959778 -3.273232 
C 4.292649 -3.273232 4.334258 -3.217753 4.334258 -2.773925 
L 4.334258 -2.773925 
z
M -1.005548 -2.385576 
C -0.811373 -2.385576 -0.658807 -2.302358 -0.658807 -2.177531 
C -0.658807 -2.024965 -0.811373 -1.997226 -1.324549 -2.052705 
C -1.712899 -2.080444 -2.04577 -2.149792 -2.087379 -2.191401 
C -2.198336 -2.288488 -1.726768 -2.538141 -1.546463 -2.454924 
C -1.435506 -2.413315 -1.199723 -2.385576 -1.005548 -2.385576 
L -1.005548 -2.385576 
z
M 0.9362 -1.955617 
C 1.130374 -1.733703 1.366158 -1.317614 1.477115 -1.067961 
C 1.643551 -0.624133 1.629681 -0.568655 1.269071 -0.166436 
C 1.047157 0.083218 0.783634 0.277393 0.686546 0.277393 
C 0.506241 0.277393 -0.367545 -1.220527 -0.367545 -1.553398 
C -0.367545 -1.886269 0.062413 -2.399445 0.353675 -2.399445 
C 0.478502 -2.385576 0.755895 -2.191401 0.9362 -1.955617 
L 0.9362 -1.955617 
z
M -2.101248 -1.581137 
C -2.101248 -1.567268 -2.170596 -1.331484 -2.253814 -1.081831 
C -2.364771 -0.721221 -2.350902 -0.319001 -2.170596 0.651872 
C -2.0319 1.345354 -1.948682 1.941748 -1.976422 1.969487 
C -2.004161 1.997226 -2.447989 2.052705 -2.933426 2.108183 
L -3.848821 2.177531 
L -4.126214 1.567268 
C -4.292649 1.137309 -4.403606 0.596394 -4.403606 -0.124827 
C -4.403606 -1.48405 -4.26491 -1.650485 -3.030513 -1.650485 
C -2.517337 -1.650485 -2.101248 -1.608877 -2.101248 -1.581137 
z
M -0.92233 -1.386963 
C -0.811373 -1.234397 -0.492372 -0.721221 -0.242718 -0.221914 
L 0.228849 0.651872 
L -0.395284 1.220527 
C -0.742025 1.525659 -1.116505 1.789182 -1.213592 1.789182 
C -1.490985 1.789182 -1.796117 0.901526 -1.893204 -0.124827 
C -1.976422 -0.887656 -1.948682 -1.026352 -1.68516 -1.317614 
C -1.31068 -1.719834 -1.199723 -1.719834 -0.92233 -1.386963 
z
M 3.613037 -0.915395 
C 4.597781 -0.37448 4.736477 0.138696 3.87656 0.138696 
C 3.446602 0.138696 2.489598 -0.332871 2.489598 -0.554785 
C 2.489598 -0.651872 2.933426 -1.192788 3.016644 -1.192788 
C 3.044383 -1.192788 3.307906 -1.067961 3.613037 -0.915395 
L 3.613037 -0.915395 
z
M 2.905687 0.277393 
C 3.682386 0.762829 3.793343 1.303745 3.169209 1.511789 
C 2.850208 1.636616 2.614424 1.567268 1.990291 1.276006 
C 1.560333 1.067961 1.171983 0.832178 1.130374 0.762829 
C 1.033287 0.596394 1.851595 -0.138696 2.087379 -0.124827 
C 2.198336 -0.138696 2.558946 0.041609 2.905687 0.277393 
z
M 1.588072 1.49792 
C 2.503467 2.038835 2.614424 2.149792 2.614424 2.60749 
C 2.614424 3.300971 0.755895 3.439667 -0.381415 2.829404 
C -0.672677 2.662968 -0.894591 2.441054 -0.894591 2.316227 
C -0.894591 2.080444 0.284327 1.040222 0.575589 1.040222 
C 0.686546 1.026352 1.130374 1.234397 1.588072 1.49792 
L 1.588072 1.49792 
z
M -2.101248 2.649098 
C -2.101248 3.134535 -3.51595 3.647712 -3.751734 3.245492 
C -3.945908 2.940361 -3.377254 2.524272 -2.725381 2.524272 
C -2.378641 2.510402 -2.101248 2.565881 -2.101248 2.649098 
z
" style="stroke: #fb7e21; stroke-width: 0.5"/>
    </defs>
    <g clip-path="url(#pdb8aa304a8)">
     <use xlink:href="#m1658d20a3e" x="408.435072" y="14.947647" style="fill: #fb7e21; stroke: #fb7e21; stroke-width: 0.5"/>
     <use xlink:href="#m1658d20a3e" x="408.587742" y="21.101393" style="fill: #fb7e21; stroke: #fb7e21; stroke-width: 0.5"/>
     <use xlink:href="#m1658d20a3e" x="408.740412" y="27.255138" style="fill: #fb7e21; stroke: #fb7e21; stroke-width: 0.5"/>
     <use xlink:href="#m1658d20a3e" x="408.893083" y="33.408884" style="fill: #fb7e21; stroke: #fb7e21; stroke-width: 0.5"/>
     <use xlink:href="#m1658d20a3e" x="409.045753" y="39.56263" style="fill: #fb7e21; stroke: #fb7e21; stroke-width: 0.5"/>
     <use xlink:href="#m1658d20a3e" x="409.198423" y="45.716375" style="fill: #fb7e21; stroke: #fb7e21; stroke-width: 0.5"/>
     <use xlink:href="#m1658d20a3e" x="409.351093" y="51.870121" style="fill: #fb7e21; stroke: #fb7e21; stroke-width: 0.5"/>
     <use xlink:href="#m1658d20a3e" x="409.566219" y="60.541308" style="fill: #fb7e21; stroke: #fb7e21; stroke-width: 0.5"/>
     <use xlink:href="#m1658d20a3e" x="415.300815" y="50.153684" style="fill: #fb7e21; stroke: #fb7e21; stroke-width: 0.5"/>
     <use xlink:href="#m1658d20a3e" x="421.370546" y="45.040396" style="fill: #fb7e21; stroke: #fb7e21; stroke-width: 0.5"/>
     <use xlink:href="#m1658d20a3e" x="427.314374" y="37.452494" style="fill: #fb7e21; stroke: #fb7e21; stroke-width: 0.5"/>
     <use xlink:href="#m1658d20a3e" x="425.83202" y="48.660583" style="fill: #fb7e21; stroke: #fb7e21; stroke-width: 0.5"/>
     <use xlink:href="#m1658d20a3e" x="429.21405" y="55.156781" style="fill: #fb7e21; stroke: #fb7e21; stroke-width: 0.5"/>
     <use xlink:href="#m1658d20a3e" x="432.363648" y="32.130184" style="fill: #fb7e21; stroke: #fb7e21; stroke-width: 0.5"/>
     <use xlink:href="#m1658d20a3e" x="434.096388" y="61.193978" style="fill: #fb7e21; stroke: #fb7e21; stroke-width: 0.5"/>
    </g>
   </g>
   <g id="PathCollection_10">
    <defs>
     <path id="maafbcc43d8" d="M -2.979798 -4.713805 
C -3.249158 -4.713805 -3.417508 -4.62963 -3.569024 -4.461279 
C -3.737374 -4.292929 -3.804714 -4.023569 -3.754209 -3.821549 
C -3.518519 -2.861953 -3.468013 -1.717172 -3.619529 -1.414141 
C -3.720539 -1.228956 -4.074074 -0.757576 -4.410774 -0.37037 
C -4.73064 0.03367 -5 0.488215 -5 0.656566 
C -5 1.127946 -4.208754 1.649832 -3.316498 1.767677 
C -2.188552 1.919192 -1.515152 2.373737 -1.144781 3.232323 
C -0.505051 4.713805 0.10101 4.713805 1.228956 3.265993 
C 1.902357 2.390572 2.171717 2.188552 3.215488 1.767677 
C 4.949495 1.077441 5 0.589226 3.535354 -1.010101 
C 2.878788 -1.734007 2.861953 -1.750842 2.979798 -2.777778 
C 3.063973 -3.686869 3.047138 -3.872054 2.760943 -4.124579 
C 2.441077 -4.410774 2.373737 -4.410774 1.195286 -4.141414 
L -0.03367 -3.855219 
L -1.313131 -4.292929 
C -2.154882 -4.579125 -2.643098 -4.713805 -2.979798 -4.713805 
L -2.979798 -4.713805 
z
M -2.828283 -4.208754 
C -2.558923 -4.191919 -2.188552 -4.090909 -1.683502 -3.872054 
C -0.791246 -3.484848 0.824916 -3.400673 1.632997 -3.703704 
C 2.323232 -3.973064 2.643098 -3.670034 2.508418 -2.845118 
C 2.373737 -2.037037 2.710438 -1.212121 3.501684 -0.3367 
C 3.821549 0.03367 4.090909 0.43771 4.090909 0.572391 
C 4.090909 0.723906 3.602694 1.060606 2.878788 1.397306 
C 1.868687 1.851852 1.531987 2.121212 0.976431 2.861953 
C 0.06734 4.090909 -0.26936 4.107744 -0.791246 3.013468 
C -1.262626 2.020202 -1.784512 1.582492 -2.727273 1.397306 
C -3.585859 1.245791 -4.494949 0.858586 -4.494949 0.673401 
C -4.494949 0.589226 -4.225589 0.151515 -3.888889 -0.286195 
C -3.030303 -1.397306 -2.912458 -1.835017 -3.148148 -2.946128 
C -3.249158 -3.468013 -3.299663 -3.956229 -3.232323 -4.057239 
C -3.164983 -4.175084 -3.030303 -4.225589 -2.828283 -4.208754 
L -2.828283 -4.208754 
z
M -0.892256 -2.878788 
C -1.094276 -2.878788 -1.380471 -2.794613 -1.616162 -2.609428 
C -2.323232 -2.104377 -2.676768 -0.690236 -2.373737 0.43771 
C -2.171717 1.161616 -1.969697 0.824916 -1.969697 -0.185185 
C -1.969697 -1.363636 -1.683502 -2.053872 -1.060606 -2.340067 
C -0.824916 -2.441077 -0.622896 -2.609428 -0.622896 -2.710438 
C -0.622896 -2.828283 -0.723906 -2.878788 -0.892256 -2.878788 
L -0.892256 -2.878788 
z
M 0.016835 -1.969697 
C -0.23569 -1.969697 -0.505051 -1.919192 -0.740741 -1.801347 
C -1.397306 -1.498316 -1.666667 -1.026936 -1.599327 -0.23569 
C -1.565657 0.185185 -1.414141 0.47138 -1.094276 0.707071 
C -0.690236 1.010101 -0.555556 1.026936 0.03367 0.841751 
C 0.40404 0.740741 0.824916 0.488215 0.976431 0.26936 
C 1.279461 -0.16835 1.313131 -1.195286 1.026936 -1.582492 
C 0.841751 -1.835017 0.43771 -1.969697 0.016835 -1.969697 
z
M 0.151515 -1.515152 
C 0.37037 -1.515152 0.555556 -1.464646 0.690236 -1.329966 
C 1.212121 -0.808081 0.505051 0.488215 -0.30303 0.488215 
C -0.774411 0.488215 -1.296296 0.03367 -1.296296 -0.387205 
C -1.296296 -0.976431 -0.488215 -1.515152 0.151515 -1.515152 
L 0.151515 -1.515152 
z
M 1.077441 1.178451 
C 0.959596 1.178451 0.707071 1.228956 0.30303 1.313131 
C 0.03367 1.363636 -0.185185 1.498316 -0.151515 1.582492 
C -0.06734 1.835017 0.740741 1.717172 1.043771 1.414141 
C 1.195286 1.245791 1.245791 1.178451 1.077441 1.178451 
z
" style="stroke: #e4450a; stroke-width: 0.5"/>
    </defs>
    <g clip-path="url(#pdb8aa304a8)">
     <use xlink:href="#maafbcc43d8" x="450.208877" y="46.68872" style="fill: #e4450a; stroke: #e4450a; stroke-width: 0.5"/>
     <use xlink:href="#maafbcc43d8" x="451.372935" y="54.921565" style="fill: #e4450a; stroke: #e4450a; stroke-width: 0.5"/>
     <use xlink:href="#maafbcc43d8" x="452.385149" y="37.69031" style="fill: #e4450a; stroke: #e4450a; stroke-width: 0.5"/>
     <use xlink:href="#maafbcc43d8" x="454.984447" y="59.963229" style="fill: #e4450a; stroke: #e4450a; stroke-width: 0.5"/>
     <use xlink:href="#maafbcc43d8" x="456.056188" y="46.072377" style="fill: #e4450a; stroke: #e4450a; stroke-width: 0.5"/>
     <use xlink:href="#maafbcc43d8" x="457.02509" y="33.368925" style="fill: #e4450a; stroke: #e4450a; stroke-width: 0.5"/>
     <use xlink:href="#maafbcc43d8" x="460.816722" y="62.295888" style="fill: #e4450a; stroke: #e4450a; stroke-width: 0.5"/>
     <use xlink:href="#maafbcc43d8" x="462.046601" y="45.996091" style="fill: #e4450a; stroke: #e4450a; stroke-width: 0.5"/>
     <use xlink:href="#maafbcc43d8" x="463.294143" y="30.408297" style="fill: #e4450a; stroke: #e4450a; stroke-width: 0.5"/>
     <use xlink:href="#maafbcc43d8" x="466.834263" y="63.313036" style="fill: #e4450a; stroke: #e4450a; stroke-width: 0.5"/>
     <use xlink:href="#maafbcc43d8" x="468.038906" y="45.996091" style="fill: #e4450a; stroke: #e4450a; stroke-width: 0.5"/>
     <use xlink:href="#maafbcc43d8" x="469.299697" y="30.9423" style="fill: #e4450a; stroke: #e4450a; stroke-width: 0.5"/>
     <use xlink:href="#maafbcc43d8" x="472.808273" y="62.575604" style="fill: #e4450a; stroke: #e4450a; stroke-width: 0.5"/>
     <use xlink:href="#maafbcc43d8" x="474.389666" y="45.24301" style="fill: #e4450a; stroke: #e4450a; stroke-width: 0.5"/>
     <use xlink:href="#maafbcc43d8" x="475.161863" y="35.107158" style="fill: #e4450a; stroke: #e4450a; stroke-width: 0.5"/>
     <use xlink:href="#maafbcc43d8" x="478.719575" y="41.744412" style="fill: #e4450a; stroke: #e4450a; stroke-width: 0.5"/>
     <use xlink:href="#maafbcc43d8" x="477.940783" y="60.855988" style="fill: #e4450a; stroke: #e4450a; stroke-width: 0.5"/>
     <use xlink:href="#maafbcc43d8" x="478.951851" y="46.71536" style="fill: #e4450a; stroke: #e4450a; stroke-width: 0.5"/>
    </g>
   </g>
   <g id="PathCollection_11">
    <defs>
     <path id="m4b7342afaf" d="M -1.21787 -3.096695 
C -1.670747 -2.888617 -2.270502 -2.668299 -2.564259 -2.582619 
C -3.384333 -2.374541 -3.873929 -1.799266 -4.045288 -0.881273 
C -4.082007 -0.648715 -4.290086 -0.208078 -4.485924 0.085679 
C -4.914321 0.722154 -5 1.738066 -4.681763 2.252142 
C -4.498164 2.55814 -4.510404 2.888617 -4.277846 2.766218 
C -3.71481 2.46022 -3.73929 1.407589 -3.408813 1.750306 
C -2.723378 2.44798 -1.768666 3.059976 -0.091799 2.998776 
C 1.009792 2.962056 1.30355 2.900857 1.878825 2.619339 
C 2.246022 2.44798 2.649939 2.227662 2.760098 2.141983 
C 2.931457 2.019584 3.017136 2.056304 3.335373 2.399021 
C 3.653611 2.729498 4.155447 3.451652 4.375765 3.329253 
C 4.510404 3.255814 4.706242 3.059976 4.816401 2.888617 
C 5 2.619339 4.583843 1.848225 4.412485 1.150551 
C 4.314565 0.709914 4.253366 0.122399 4.290086 -0.232558 
C 4.375765 -1.052632 4.179927 -1.603427 3.592411 -2.276622 
C 2.919217 -3.035496 2.099143 -3.365973 0.716034 -3.427173 
C -0.299878 -3.451652 -0.446756 -3.427173 -1.21787 -3.096695 
L -1.21787 -3.096695 
z
M 1.842105 -3.011016 
C 2.588739 -2.753978 3.127295 -2.386781 3.592411 -1.811506 
C 4.082007 -1.187271 3.947368 -1.052632 3.310894 -1.493268 
C 2.270502 -2.227662 -0.679315 -2.668299 -1.707466 -2.239902 
C -1.988984 -2.129743 -2.050184 -2.141983 -2.013464 -2.252142 
C -1.988984 -2.337821 -1.609547 -2.582619 -1.181151 -2.802938 
C -0.532436 -3.121175 -0.238678 -3.194614 0.434517 -3.194614 
C 0.887393 -3.206854 1.523868 -3.121175 1.842105 -3.011016 
z
M -3.004896 -1.395349 
C -3.396573 -0.257038 -3.384333 0.428397 -2.955936 1.30967 
C -2.576499 2.117503 -2.637699 2.44798 -3.066095 1.897185 
C -3.76377 1.028152 -3.984088 -0.783354 -3.494492 -1.566707 
C -3.261934 -1.946144 -2.894737 -2.264382 -2.796818 -2.166463 
C -2.772338 -2.154223 -2.870257 -1.799266 -3.004896 -1.395349 
z
M -0.079559 -2.117503 
C -0.079559 -2.044064 -0.373317 -1.848225 -0.716034 -1.676867 
C -1.070991 -1.493268 -1.621787 -1.138311 -1.940024 -0.869033 
C -2.772338 -0.171359 -3.225214 -0.514076 -2.674419 -1.432069 
C -2.49082 -1.738066 -2.307222 -1.835985 -1.597307 -2.007344 
C -0.618115 -2.239902 -0.079559 -2.276622 -0.079559 -2.117503 
z
M 1.438188 -1.713586 
C 1.548348 -1.566707 1.634027 -1.30967 1.634027 -1.162791 
C 1.634027 -0.905753 1.572827 -0.881273 1.070991 -0.881273 
C 0.764994 -0.881273 0.128519 -0.820073 -0.336597 -0.734394 
C -1.425949 -0.563035 -1.634027 -0.709914 -0.997552 -1.19951 
C -0.520196 -1.554468 0.532436 -1.970624 0.985312 -1.982864 
C 1.132191 -1.982864 1.340269 -1.860465 1.438188 -1.713586 
z
M 2.600979 -1.603427 
C 3.225214 -1.383109 3.286414 -0.636475 2.662179 -0.636475 
C 2.282742 -0.636475 1.878825 -1.040392 1.878825 -1.432069 
C 1.878825 -1.774786 2.013464 -1.799266 2.600979 -1.603427 
z
M 3.849449 -0.624235 
C 4.045288 -0.244798 3.910649 0.379437 3.482252 0.991432 
C 3.115055 1.529988 2.52754 2.019584 2.405141 1.884945 
C 2.368421 1.848225 2.5153 1.456548 2.723378 1.003672 
C 2.931457 0.563035 3.102815 0.146879 3.102815 0.085679 
C 3.102815 -0.159119 3.457772 -0.881273 3.580171 -0.881273 
C 3.653611 -0.881273 3.76377 -0.758874 3.849449 -0.624235 
L 3.849449 -0.624235 
z
M -1.425949 -0.269278 
C -1.168911 0.208078 -0.287638 0.599755 0.850673 0.709914 
C 1.438188 0.771114 1.976744 0.807834 2.037944 0.795594 
C 2.111383 0.783354 2.184823 0.856793 2.209302 0.966952 
C 2.282742 1.26071 1.682987 1.468788 0.593635 1.529988 
C -0.324357 1.578947 -0.434517 1.566707 -1.181151 1.175031 
C -1.609547 0.954712 -2.074663 0.624235 -2.209302 0.440636 
L -2.4541 0.097919 
L -2.160343 -0.208078 
C -1.817625 -0.575275 -1.597307 -0.599755 -1.425949 -0.269278 
z
M 2.160343 -0.379437 
C 2.649939 -0.244798 2.858017 0.02448 2.637699 0.244798 
C 2.46634 0.416157 0.532436 0.391677 0.361077 0.220318 
C 0.299878 0.159119 0.287638 -0.02448 0.336597 -0.195838 
C 0.410037 -0.489596 0.471236 -0.514076 1.058752 -0.514076 
C 1.401469 -0.514076 1.903305 -0.452876 2.160343 -0.379437 
L 2.160343 -0.379437 
z
M 0.01836 -0.183599 
C -0.0306 0.085679 -0.397797 0.171359 -0.630355 -0.02448 
C -0.887393 -0.232558 -0.740514 -0.391677 -0.312118 -0.391677 
C -0.01836 -0.391677 0.05508 -0.342717 0.01836 -0.183599 
z
M -2.53978 0.514076 
C -2.233782 1.003672 -1.560588 1.468788 -0.740514 1.750306 
C -0.275398 1.909425 0.079559 1.946144 0.813953 1.884945 
C 1.328029 1.835985 1.756426 1.848225 1.756426 1.909425 
C 1.756426 2.190942 1.20563 2.5459 0.581395 2.668299 
C -0.275398 2.851897 -1.572827 2.729498 -1.915545 2.44798 
C -2.172583 2.215422 -3.017136 0.587515 -3.017136 0.281518 
C -3.017136 -0.02448 -2.809058 0.073439 -2.53978 0.514076 
z
M -3.996328 0.660955 
C -3.812729 1.126071 -4.106487 2.435741 -4.339045 2.386781 
C -4.669523 2.325581 -4.547124 0.342717 -4.228886 0.342717 
C -4.167687 0.342717 -4.057528 0.489596 -3.996328 0.660955 
L -3.996328 0.660955 
z
M 4.130967 1.150551 
C 4.265606 1.493268 4.620563 2.692778 4.436965 2.851897 
C 3.971848 3.243574 3.274174 1.848225 3.665851 1.26071 
C 3.898409 0.905753 4.020808 0.881273 4.130967 1.150551 
z
" style="stroke: #b91e02; stroke-width: 0.5"/>
    </defs>
    <g clip-path="url(#pdb8aa304a8)">
     <use xlink:href="#m4b7342afaf" x="499.022282" y="32.290021" style="fill: #b91e02; stroke: #b91e02; stroke-width: 0.5"/>
     <use xlink:href="#m4b7342afaf" x="499.451115" y="38.596339" style="fill: #b91e02; stroke: #b91e02; stroke-width: 0.5"/>
     <use xlink:href="#m4b7342afaf" x="499.603785" y="44.750085" style="fill: #b91e02; stroke: #b91e02; stroke-width: 0.5"/>
     <use xlink:href="#m4b7342afaf" x="499.756456" y="50.90383" style="fill: #b91e02; stroke: #b91e02; stroke-width: 0.5"/>
     <use xlink:href="#m4b7342afaf" x="499.909126" y="57.057576" style="fill: #b91e02; stroke: #b91e02; stroke-width: 0.5"/>
     <use xlink:href="#m4b7342afaf" x="499.822066" y="62.331489" style="fill: #b91e02; stroke: #b91e02; stroke-width: 0.5"/>
     <use xlink:href="#m4b7342afaf" x="504.91286" y="37.172332" style="fill: #b91e02; stroke: #b91e02; stroke-width: 0.5"/>
     <use xlink:href="#m4b7342afaf" x="510.730099" y="32.11202" style="fill: #b91e02; stroke: #b91e02; stroke-width: 0.5"/>
     <use xlink:href="#m4b7342afaf" x="516.685814" y="30.637155" style="fill: #b91e02; stroke: #b91e02; stroke-width: 0.5"/>
     <use xlink:href="#m4b7342afaf" x="522.138902" y="30.860363" style="fill: #b91e02; stroke: #b91e02; stroke-width: 0.5"/>
    </g>
   </g>
   <g id="PathCollection_12">
    <defs>
     <path id="mf87fbdb9e6" d="M 1.538462 -4.632606 
C 0.700344 -4.196326 0.160735 -3.989667 -0.838117 -3.69116 
C -1.30884 -3.564868 -1.882893 -3.381171 -2.078071 -3.300804 
C -3.949483 -2.554535 -4.7876 -0.361653 -4.167623 2.118255 
C -4.006889 2.749713 -3.386912 3.495982 -2.93915 3.58783 
C -2.789897 3.633754 -2.548794 3.80597 -2.376579 4.001148 
C -1.768083 4.747417 -0.642939 5 0.665901 4.701493 
C 1.056257 4.609644 1.618829 4.540758 1.905855 4.540758 
C 2.973594 4.540758 3.903559 3.817451 4.45465 2.520092 
C 4.776119 1.773823 4.7876 1.73938 4.7876 0.499426 
C 4.776119 -0.54535 4.741676 -0.86682 4.56946 -1.41791 
C 4.052813 -3.059701 3.15729 -4.494834 2.479908 -4.816303 
C 2.112514 -4.977038 2.238806 -5 1.538462 -4.632606 
z
M 2.548794 -4.494834 
C 2.709529 -4.402985 2.985075 -4.115959 3.191734 -3.817451 
C 3.662457 -3.174512 4.362801 -1.601607 4.213548 -1.544202 
C 4.13318 -1.509759 4.121699 -1.245695 4.156142 -0.522388 
C 4.225029 0.591274 4.075775 1.349024 3.685419 1.854191 
L 3.444317 2.152698 
L 3.513203 1.796785 
C 3.547646 1.601607 3.58209 1.050517 3.58209 0.579793 
C 3.570608 -0.200918 3.547646 -0.350172 3.272101 -0.912744 
C 2.789897 -1.911596 2.158439 -2.3938 0.952928 -2.692308 
C 0.287026 -2.853042 0.183697 -2.853042 -0.562572 -2.703789 
C -1.52698 -2.508611 -2.043628 -2.267509 -2.571757 -1.785304 
C -3.226177 -1.165327 -3.363949 -0.752009 -3.363949 0.533869 
C -3.352468 1.509759 -3.375431 1.659013 -3.524684 1.785304 
C -3.662457 1.888634 -3.685419 2.003444 -3.650976 2.256028 
C -3.58209 2.71527 -3.731343 2.692308 -3.926521 2.210103 
C -4.041332 1.923077 -4.087256 1.544202 -4.087256 0.579793 
C -4.098737 -0.901263 -3.972445 -1.314581 -3.249139 -2.152698 
C -2.766935 -2.726751 -2.273249 -3.025258 -1.389208 -3.289323 
C -1.056257 -3.392652 -0.505166 -3.564868 -0.149254 -3.668197 
C 0.206659 -3.771527 0.838117 -4.035591 1.274397 -4.253731 
C 2.16992 -4.690011 2.192882 -4.701493 2.548794 -4.494834 
L 2.548794 -4.494834 
z
M 1.561424 -2.256028 
C 3.249139 -1.509759 3.972445 0.878301 2.973594 2.382319 
C 2.479908 3.128588 1.504018 3.702641 0.574053 3.794489 
C 0.183697 3.840413 0.034443 3.794489 -0.505166 3.484501 
C -1.102181 3.128588 -1.389208 3.036739 -1.389208 3.197474 
C -1.389208 3.243398 -1.079219 3.450057 -0.700344 3.656716 
C -0.045924 4.02411 0.011481 4.035591 0.65442 3.989667 
C 1.41217 3.943743 1.917336 3.702641 2.881745 3.002296 
C 3.949483 2.210103 4.316877 1.555683 4.443169 0.269805 
C 4.512055 -0.522388 4.649828 -0.361653 4.649828 0.522388 
C 4.638347 1.636051 4.225029 2.795637 3.547646 3.507463 
C 3.04248 4.047072 2.617681 4.253731 1.997704 4.24225 
C 1.710677 4.24225 1.239954 4.299656 0.941447 4.391504 
C 0.642939 4.483352 0.045924 4.552239 -0.390356 4.552239 
C -1.056257 4.56372 -1.239954 4.529277 -1.595867 4.322618 
C -1.986223 4.092997 -3.501722 2.416762 -3.501722 2.210103 
C -3.501722 1.946039 -3.168772 1.84271 -2.273249 1.854191 
C -1.481056 1.854191 -1.216992 1.900115 -0.482204 2.187141 
C 0.447761 2.543054 1.182549 2.61194 1.504018 2.3938 
C 1.905855 2.118255 2.009185 1.41791 1.756602 0.752009 
C 1.595867 0.350172 1.377727 0.235362 1.481056 0.614237 
C 1.722158 1.486797 1.733639 1.578645 1.595867 1.865672 
C 1.458094 2.198622 1.079219 2.359357 1.205511 2.049369 
C 1.377727 1.590126 1.366246 1.3031 1.113662 0.855339 
C 0.826636 0.315729 0.21814 -0.154994 -0.447761 -0.315729 
C -1.687715 -0.614237 -2.812859 0.315729 -2.261768 1.188289 
C -2.181401 1.314581 -2.135476 1.440873 -2.146958 1.463835 
C -2.16992 1.486797 -2.376579 1.52124 -2.6062 1.567164 
C -3.099885 1.647532 -3.122847 1.613088 -3.203215 0.717566 
C -3.329506 -0.625718 -2.675086 -1.693456 -1.400689 -2.210103 
C -0.711825 -2.49713 -0.551091 -2.508611 0.332951 -2.474168 
C 0.838117 -2.462687 1.297359 -2.382319 1.561424 -2.256028 
L 1.561424 -2.256028 
z
M 0.068886 0.143513 
C 0.734788 0.510907 1.159587 1.153846 1.067738 1.670494 
C 1.010333 1.980482 0.861079 1.911596 0.677382 1.475316 
C 0.528129 1.142365 0.390356 0.993111 -0.034443 0.752009 
C -0.493685 0.499426 -0.688863 0.464983 -1.297359 0.453502 
C -1.687715 0.453502 -2.020666 0.419059 -2.020666 0.373134 
C -2.020666 0.32721 -1.882893 0.2124 -1.722158 0.097589 
C -1.297359 -0.200918 -0.505166 -0.177956 0.068886 0.143513 
z
M -0.264064 0.924225 
C 0.252583 1.188289 0.619977 1.624569 0.619977 1.991963 
C 0.619977 2.27899 0.401837 2.267509 -0.585534 1.900115 
C -1.033295 1.727899 -1.481056 1.601607 -1.572905 1.601607 
C -1.768083 1.601607 -2.032147 1.234214 -2.032147 0.98163 
C -2.032147 0.522388 -1.102181 0.499426 -0.264064 0.924225 
z
" style="stroke: #7a0403; stroke-width: 0.5"/>
    </defs>
    <g clip-path="url(#pdb8aa304a8)">
     <use xlink:href="#mf87fbdb9e6" x="538.65739" y="59.90559" style="fill: #7a0403; stroke: #7a0403; stroke-width: 0.5"/>
     <use xlink:href="#mf87fbdb9e6" x="540.48792" y="38.221384" style="fill: #7a0403; stroke: #7a0403; stroke-width: 0.5"/>
     <use xlink:href="#mf87fbdb9e6" x="543.932651" y="44.177939" style="fill: #7a0403; stroke: #7a0403; stroke-width: 0.5"/>
     <use xlink:href="#mf87fbdb9e6" x="544.706474" y="62.194174" style="fill: #7a0403; stroke: #7a0403; stroke-width: 0.5"/>
     <use xlink:href="#mf87fbdb9e6" x="545.569187" y="31.094872" style="fill: #7a0403; stroke: #7a0403; stroke-width: 0.5"/>
     <use xlink:href="#mf87fbdb9e6" x="549.742698" y="45.61466" style="fill: #7a0403; stroke: #7a0403; stroke-width: 0.5"/>
     <use xlink:href="#mf87fbdb9e6" x="550.726538" y="63.313036" style="fill: #7a0403; stroke: #7a0403; stroke-width: 0.5"/>
     <use xlink:href="#mf87fbdb9e6" x="551.542566" y="30.332011" style="fill: #7a0403; stroke: #7a0403; stroke-width: 0.5"/>
     <use xlink:href="#mf87fbdb9e6" x="555.772225" y="47.114954" style="fill: #7a0403; stroke: #7a0403; stroke-width: 0.5"/>
     <use xlink:href="#mf87fbdb9e6" x="556.714427" y="63.135036" style="fill: #7a0403; stroke: #7a0403; stroke-width: 0.5"/>
     <use xlink:href="#mf87fbdb9e6" x="557.555059" y="31.14573" style="fill: #7a0403; stroke: #7a0403; stroke-width: 0.5"/>
     <use xlink:href="#mf87fbdb9e6" x="561.784481" y="49.748943" style="fill: #7a0403; stroke: #7a0403; stroke-width: 0.5"/>
     <use xlink:href="#mf87fbdb9e6" x="563.109317" y="60.541308" style="fill: #7a0403; stroke: #7a0403; stroke-width: 0.5"/>
     <use xlink:href="#mf87fbdb9e6" x="563.044878" y="32.849452" style="fill: #7a0403; stroke: #7a0403; stroke-width: 0.5"/>
     <use xlink:href="#mf87fbdb9e6" x="565.322119" y="55.388084" style="fill: #7a0403; stroke: #7a0403; stroke-width: 0.5"/>
    </g>
   </g>
   <g id="matplotlib.axis_1">
    <g id="xtick_1">
     <g id="line2d_1">
      <defs>
       <path id="mc7a74ee0fe" d="M 0 0 
L 0 -3 
" style="stroke: #000000; stroke-width: 0.5"/>
      </defs>
      <g>
       <use xlink:href="#mc7a74ee0fe" x="49.241516" y="89.217" style="stroke: #000000; stroke-width: 0.5"/>
      </g>
     </g>
     <g id="text_1">
      <!-- $\mathdefault{0}$ -->
      <g transform="translate(46.750848 99.635498) scale(0.1 -0.1)">
       <defs>
        <path id="CMR17-30" d="M 2688 2025 
C 2688 2416 2682 3080 2413 3591 
C 2176 4039 1798 4198 1466 4198 
C 1158 4198 768 4058 525 3597 
C 269 3118 243 2524 243 2025 
C 243 1661 250 1106 448 619 
C 723 -39 1216 -128 1466 -128 
C 1760 -128 2208 -7 2470 600 
C 2662 1042 2688 1559 2688 2025 
z
M 1466 -26 
C 1056 -26 813 325 723 812 
C 653 1188 653 1738 653 2096 
C 653 2588 653 2997 736 3387 
C 858 3929 1216 4096 1466 4096 
C 1728 4096 2067 3923 2189 3400 
C 2272 3036 2278 2607 2278 2096 
C 2278 1680 2278 1169 2202 792 
C 2067 95 1690 -26 1466 -26 
z
" transform="scale(0.015625)"/>
       </defs>
       <use xlink:href="#CMR17-30" transform="scale(0.996264)"/>
      </g>
     </g>
    </g>
    <g id="xtick_2">
     <g id="line2d_2">
      <g>
       <use xlink:href="#mc7a74ee0fe" x="153.597903" y="89.217" style="stroke: #000000; stroke-width: 0.5"/>
      </g>
     </g>
     <g id="text_2">
      <!-- $\mathdefault{2}$ -->
      <g transform="translate(151.107235 99.635498) scale(0.1 -0.1)">
       <defs>
        <path id="CMR17-32" d="M 2669 989 
L 2554 989 
C 2490 536 2438 459 2413 420 
C 2381 369 1920 369 1830 369 
L 602 369 
C 832 619 1280 1072 1824 1597 
C 2214 1967 2669 2402 2669 3035 
C 2669 3790 2067 4224 1395 4224 
C 691 4224 262 3604 262 3030 
C 262 2780 448 2748 525 2748 
C 589 2748 781 2787 781 3010 
C 781 3207 614 3264 525 3264 
C 486 3264 448 3258 422 3245 
C 544 3790 915 4058 1306 4058 
C 1862 4058 2227 3617 2227 3035 
C 2227 2479 1901 2000 1536 1584 
L 262 146 
L 262 0 
L 2515 0 
L 2669 989 
z
" transform="scale(0.015625)"/>
       </defs>
       <use xlink:href="#CMR17-32" transform="scale(0.996264)"/>
      </g>
     </g>
    </g>
    <g id="xtick_3">
     <g id="line2d_3">
      <g>
       <use xlink:href="#mc7a74ee0fe" x="257.95429" y="89.217" style="stroke: #000000; stroke-width: 0.5"/>
      </g>
     </g>
     <g id="text_3">
      <!-- $\mathdefault{4}$ -->
      <g transform="translate(255.463622 99.635498) scale(0.1 -0.1)">
       <defs>
        <path id="CMR17-34" d="M 2150 4122 
C 2150 4256 2144 4256 2029 4256 
L 128 1254 
L 128 1088 
L 1779 1088 
L 1779 457 
C 1779 224 1766 160 1318 160 
L 1197 160 
L 1197 0 
C 1402 0 1747 0 1965 0 
C 2182 0 2528 0 2733 0 
L 2733 160 
L 2611 160 
C 2163 160 2150 224 2150 457 
L 2150 1088 
L 2803 1088 
L 2803 1254 
L 2150 1254 
L 2150 4122 
z
M 1798 3703 
L 1798 1254 
L 256 1254 
L 1798 3703 
z
" transform="scale(0.015625)"/>
       </defs>
       <use xlink:href="#CMR17-34" transform="scale(0.996264)"/>
      </g>
     </g>
    </g>
    <g id="xtick_4">
     <g id="line2d_4">
      <g>
       <use xlink:href="#mc7a74ee0fe" x="362.310677" y="89.217" style="stroke: #000000; stroke-width: 0.5"/>
      </g>
     </g>
     <g id="text_4">
      <!-- $\mathdefault{6}$ -->
      <g transform="translate(359.820009 99.635498) scale(0.1 -0.1)">
       <defs>
        <path id="CMR17-36" d="M 678 2176 
C 678 3690 1395 4032 1811 4032 
C 1946 4032 2272 4009 2400 3776 
C 2298 3776 2106 3776 2106 3553 
C 2106 3381 2246 3323 2336 3323 
C 2394 3323 2566 3348 2566 3560 
C 2566 3954 2246 4179 1805 4179 
C 1043 4179 243 3390 243 1984 
C 243 253 966 -128 1478 -128 
C 2099 -128 2688 427 2688 1283 
C 2688 2081 2170 2662 1517 2662 
C 1126 2662 838 2407 678 1960 
L 678 2176 
z
M 1478 25 
C 691 25 691 1200 691 1436 
C 691 1896 909 2560 1504 2560 
C 1613 2560 1926 2560 2138 2120 
C 2253 1870 2253 1609 2253 1289 
C 2253 944 2253 690 2118 434 
C 1978 171 1773 25 1478 25 
z
" transform="scale(0.015625)"/>
       </defs>
       <use xlink:href="#CMR17-36" transform="scale(0.996264)"/>
      </g>
     </g>
    </g>
    <g id="xtick_5">
     <g id="line2d_5">
      <g>
       <use xlink:href="#mc7a74ee0fe" x="466.667063" y="89.217" style="stroke: #000000; stroke-width: 0.5"/>
      </g>
     </g>
     <g id="text_5">
      <!-- $\mathdefault{8}$ -->
      <g transform="translate(464.176396 99.635498) scale(0.1 -0.1)">
       <defs>
        <path id="CMR17-38" d="M 1741 2264 
C 2144 2467 2554 2773 2554 3263 
C 2554 3841 1990 4179 1472 4179 
C 890 4179 378 3759 378 3180 
C 378 3021 416 2747 666 2505 
C 730 2442 998 2251 1171 2130 
C 883 1983 211 1634 211 934 
C 211 279 838 -128 1459 -128 
C 2144 -128 2720 362 2720 1010 
C 2720 1590 2330 1857 2074 2029 
L 1741 2264 
z
M 902 2822 
C 851 2854 595 3051 595 3351 
C 595 3739 998 4032 1459 4032 
C 1965 4032 2336 3676 2336 3262 
C 2336 2669 1670 2331 1638 2331 
C 1632 2331 1626 2331 1574 2370 
L 902 2822 
z
M 2080 1519 
C 2176 1449 2483 1240 2483 851 
C 2483 381 2010 25 1472 25 
C 890 25 448 438 448 940 
C 448 1443 838 1862 1280 2060 
L 2080 1519 
z
" transform="scale(0.015625)"/>
       </defs>
       <use xlink:href="#CMR17-38" transform="scale(0.996264)"/>
      </g>
     </g>
    </g>
    <g id="xtick_6">
     <g id="line2d_6">
      <g>
       <use xlink:href="#mc7a74ee0fe" x="571.02345" y="89.217" style="stroke: #000000; stroke-width: 0.5"/>
      </g>
     </g>
     <g id="text_6">
      <!-- $\mathdefault{10}$ -->
      <g transform="translate(566.042115 99.635498) scale(0.1 -0.1)">
       <defs>
        <path id="CMR17-31" d="M 1702 4058 
C 1702 4192 1696 4192 1606 4192 
C 1357 3916 979 3827 621 3827 
C 602 3827 570 3827 563 3808 
C 557 3795 557 3782 557 3648 
C 755 3648 1088 3686 1344 3839 
L 1344 461 
C 1344 236 1331 160 781 160 
L 589 160 
L 589 0 
C 896 0 1216 0 1523 0 
C 1830 0 2150 0 2458 0 
L 2458 160 
L 2266 160 
C 1715 160 1702 230 1702 458 
L 1702 4058 
z
" transform="scale(0.015625)"/>
       </defs>
       <use xlink:href="#CMR17-31" transform="scale(0.996264)"/>
       <use xlink:href="#CMR17-30" transform="translate(45.690477 0) scale(0.996264)"/>
      </g>
     </g>
    </g>
    <g id="text_7">
     <!-- $x$ -->
     <g transform="translate(308.838796 112.491175) scale(0.1 -0.1)">
      <defs>
       <path id="CMMI12-78" d="M 3034 2606 
C 2829 2567 2752 2414 2752 2293 
C 2752 2139 2874 2088 2963 2088 
C 3155 2088 3290 2254 3290 2427 
C 3290 2695 2982 2816 2714 2816 
C 2323 2816 2106 2433 2048 2312 
C 1901 2816 1504 2816 1389 2816 
C 736 2816 390 1980 390 1839 
C 390 1814 416 1782 461 1782 
C 512 1782 525 1820 538 1846 
C 755 2555 1184 2689 1370 2689 
C 1658 2689 1715 2420 1715 2267 
C 1715 2127 1677 1980 1600 1673 
L 1382 798 
C 1286 415 1101 64 762 64 
C 730 64 570 64 435 147 
C 666 192 717 383 717 460 
C 717 588 621 664 499 664 
C 346 664 179 530 179 326 
C 179 57 480 -64 755 -64 
C 1062 -64 1280 179 1414 441 
C 1517 64 1837 -64 2074 -64 
C 2726 -64 3072 773 3072 913 
C 3072 945 3046 971 3008 971 
C 2950 971 2944 939 2925 888 
C 2752 326 2381 64 2093 64 
C 1869 64 1747 230 1747 492 
C 1747 632 1773 734 1875 1156 
L 2099 2024 
C 2195 2408 2413 2689 2707 2689 
C 2720 2689 2899 2689 3034 2606 
z
" transform="scale(0.015625)"/>
      </defs>
      <use xlink:href="#CMMI12-78" transform="scale(0.996264)"/>
     </g>
    </g>
   </g>
   <g id="matplotlib.axis_2">
    <g id="ytick_1">
     <g id="line2d_7">
      <defs>
       <path id="m9dde6e306d" d="M 0 0 
L 3 0 
" style="stroke: #000000; stroke-width: 0.5"/>
      </defs>
      <g>
       <use xlink:href="#m9dde6e306d" x="32.685756" y="80.781828" style="stroke: #000000; stroke-width: 0.5"/>
      </g>
     </g>
     <g id="text_8">
      <!-- $\mathdefault{0.0}$ -->
      <g transform="translate(16.455677 84.241077) scale(0.1 -0.1)">
       <defs>
        <path id="CMMI12-3a" d="M 1178 307 
C 1178 492 1024 619 870 619 
C 685 619 557 466 557 313 
C 557 128 710 0 864 0 
C 1050 0 1178 153 1178 307 
z
" transform="scale(0.015625)"/>
       </defs>
       <use xlink:href="#CMR17-30" transform="scale(0.996264)"/>
       <use xlink:href="#CMMI12-3a" transform="translate(45.690477 0) scale(0.996264)"/>
       <use xlink:href="#CMR17-30" transform="translate(72.787654 0) scale(0.996264)"/>
      </g>
     </g>
    </g>
    <g id="ytick_2">
     <g id="line2d_8">
      <g>
       <use xlink:href="#m9dde6e306d" x="32.685756" y="52.664586" style="stroke: #000000; stroke-width: 0.5"/>
      </g>
     </g>
     <g id="text_9">
      <!-- $\mathdefault{0.5}$ -->
      <g transform="translate(16.455677 56.123835) scale(0.1 -0.1)">
       <defs>
        <path id="CMR17-35" d="M 730 3692 
C 794 3666 1056 3584 1325 3584 
C 1920 3584 2246 3911 2432 4100 
C 2432 4157 2432 4192 2394 4192 
C 2387 4192 2374 4192 2323 4163 
C 2099 4058 1837 3973 1517 3973 
C 1325 3973 1037 3999 723 4139 
C 653 4171 640 4171 634 4171 
C 602 4171 595 4164 595 4037 
L 595 2203 
C 595 2089 595 2057 659 2057 
C 691 2057 704 2070 736 2114 
C 941 2401 1222 2522 1542 2522 
C 1766 2522 2246 2382 2246 1289 
C 2246 1085 2246 715 2054 421 
C 1894 159 1645 25 1370 25 
C 947 25 518 320 403 814 
C 429 807 480 795 506 795 
C 589 795 749 840 749 1038 
C 749 1210 627 1280 506 1280 
C 358 1280 262 1190 262 1011 
C 262 454 704 -128 1382 -128 
C 2042 -128 2669 440 2669 1264 
C 2669 2030 2170 2624 1549 2624 
C 1222 2624 947 2503 730 2274 
L 730 3692 
z
" transform="scale(0.015625)"/>
       </defs>
       <use xlink:href="#CMR17-30" transform="scale(0.996264)"/>
       <use xlink:href="#CMMI12-3a" transform="translate(45.690477 0) scale(0.996264)"/>
       <use xlink:href="#CMR17-35" transform="translate(72.787654 0) scale(0.996264)"/>
      </g>
     </g>
    </g>
    <g id="ytick_3">
     <g id="line2d_9">
      <g>
       <use xlink:href="#m9dde6e306d" x="32.685756" y="24.547345" style="stroke: #000000; stroke-width: 0.5"/>
      </g>
     </g>
     <g id="text_10">
      <!-- $\mathdefault{1.0}$ -->
      <g transform="translate(16.455677 28.006594) scale(0.1 -0.1)">
       <use xlink:href="#CMR17-31" transform="scale(0.996264)"/>
       <use xlink:href="#CMMI12-3a" transform="translate(45.690477 0) scale(0.996264)"/>
       <use xlink:href="#CMR17-30" transform="translate(72.787654 0) scale(0.996264)"/>
      </g>
     </g>
    </g>
    <g id="text_11">
     <!-- $y$ -->
     <g transform="translate(10.518498 50.88925) rotate(-90) scale(0.1 -0.1)">
      <defs>
       <path id="CMMI12-79" d="M 1683 -700 
C 1510 -939 1261 -1152 947 -1152 
C 870 -1152 563 -1152 467 -889 
C 486 -895 518 -895 531 -895 
C 723 -895 851 -729 851 -582 
C 851 -435 730 -384 634 -384 
C 531 -384 307 -458 307 -759 
C 307 -1071 582 -1286 947 -1286 
C 1587 -1286 2234 -700 2413 6 
L 3040 2485 
C 3046 2517 3059 2556 3059 2594 
C 3059 2689 2982 2753 2886 2753 
C 2829 2753 2694 2727 2643 2535 
L 2170 658 
C 2138 543 2138 530 2086 460 
C 1958 281 1747 64 1440 64 
C 1082 64 1050 415 1050 588 
C 1050 952 1222 1443 1395 1903 
C 1466 2088 1504 2178 1504 2305 
C 1504 2574 1312 2816 998 2816 
C 410 2816 173 1890 173 1839 
C 173 1814 198 1782 243 1782 
C 301 1782 307 1807 333 1897 
C 486 2433 730 2689 979 2689 
C 1037 2689 1146 2689 1146 2478 
C 1146 2312 1075 2127 979 1884 
C 666 1047 666 837 666 683 
C 666 77 1101 -64 1421 -64 
C 1606 -64 1837 -6 2061 230 
L 2067 224 
C 1971 -147 1907 -392 1683 -700 
z
" transform="scale(0.015625)"/>
      </defs>
      <use xlink:href="#CMMI12-79" transform="scale(0.996264)"/>
     </g>
    </g>
   </g>
   <g id="patch_3">
    <path d="M 32.685756 89.217 
L 32.685756 7.677 
" style="fill: none; stroke: #000000; stroke-linejoin: miter; stroke-linecap: square"/>
   </g>
   <g id="patch_4">
    <path d="M 32.685756 89.217 
L 590.685756 89.217 
" style="fill: none; stroke: #000000; stroke-linejoin: miter; stroke-linecap: square"/>
   </g>
   <g id="patch_5">
    <path d="M 30.185756 8.6 
Q 31.435756 6.1 32.685756 3.6 
Q 33.935756 6.1 35.185756 8.6 
z
" style="stroke: #000000; stroke-linecap: round"/>
   </g>
   <g id="patch_6">
    <path d="M 587.895756 88.717 
Q 588.185927 88.717 588.476097 88.717 
L 588.476097 86.717 
Q 590.975927 87.967 593.475756 89.217 
Q 590.975927 90.467 588.476097 91.717 
L 588.476097 89.717 
Q 588.185927 89.717 587.895756 89.717 
L 587.895756 88.717 
z
" style="stroke: #000000; stroke-linecap: round"/>
   </g>
  </g>
 </g>
 <defs>
  <clipPath id="pdb8aa304a8">
   <rect x="32.685756" y="7.677" width="558" height="81.54"/>
  </clipPath>
 </defs>
</svg>
